<svg id="Layer_1" data-name="Layer 1" xmlns="http://www.w3.org/2000/svg" xmlns:xlink="http://www.w3.org/1999/xlink" width="790" height="710" viewBox="0 0 790 710"><defs><style>.cls-1{fill:none;}.cls-2{clip-path:url(#clip-path);}.cls-3{opacity:0.51;}.cls-4{clip-path:url(#clip-path-2);}.cls-5{clip-path:url(#clip-path-3);}.cls-6{fill:#5f4300;}.cls-7{fill:#310000;}.cls-8{fill:#4c2300;}.cls-9{fill:#fff0c9;opacity:0.5;}.cls-10{fill:#d42300;}.cls-11{fill:#ffae5c;opacity:0.2;}</style><clipPath id="clip-path"><rect class="cls-1" x="-542" y="904.5" width="434" height="296"/></clipPath><clipPath id="clip-path-2"><rect class="cls-1" x="1127" y="-192.5" width="588" height="471"/></clipPath><clipPath id="clip-path-3"><rect class="cls-1" x="-512" y="-157.5" width="356" height="416"/></clipPath><image id="image" width="2898" height="2294" xlink:href="../dokumentation/tirsdag%20dokumentation/IMG_1692.JPG"/></defs><title>æble</title><g class="cls-2"><use class="cls-3" transform="translate(-1693.65 667.7) scale(0.89 0.8)" xlink:href="#image"/></g><g class="cls-4"><use class="cls-3" transform="translate(113.37 -850.3) scale(0.66 0.63)" xlink:href="#image"/></g><g class="cls-5"><image width="4032" height="3024" transform="matrix(0, 0.76, -0.73, 0, 537.32, -643.92)" xlink:href="../dokumentation/tirsdag%20dokumentation/IMG_1691.JPG"/></g><path class="cls-6" d="M418.35,546.41l-22.68,7.18,2.85,20.78a2.41,2.41,0,0,1-4.07,2L377,559.5l-11.2,12.86a6,6,0,0,1-10.32-5.17l1-4.59L336.9,542"/><path class="cls-7" d="M389.19,401.2c-.15,14.41-4.89,18.25-10.7,18.19s-12.77-2-12.62-16.4,6.95-40.6,12.75-40.54S389.34,386.79,389.19,401.2Z"/><path class="cls-8" d="M412,134.5l14-3c2,0-2.25-30-1.57-40.73l8.15-27.49a9.93,9.93,0,0,0-2-9.35c-3.9-4.48-10.52-10.27-16.79-7.69h0A20.61,20.61,0,0,0,401,65.31l1,59.19C402,126.87,409.63,134.5,412,134.5Z"/><path class="cls-9" d="M132.61,141.73C247.7,121,375.93,132.4,375.93,132.4c166.56,14.79,257.86-29.72,275.92,4.15,8,15-3.59,35.9-26.78,77.69C603.07,253.88,522,271.5,557,307.5c9.31,9.57-19.27,25.19-11,50,5,15,27.24,37.92,22,50-23,53,131.6,59.6,133.91,79.16,3,25.54-70.91,63.43-149,71.48-73.05,7.52-76.68-18.58-166.48-17.61-81.73.88-107.32,22.81-185.12,11.39-37.5-5.5-72.84-10.69-85-33.15C96.61,482.33,287.79,477.31,252,419.5c-13-21,26-28,21.48-63.35-1-8.07-19.28-7.93-21-29-2.52-31.64-9-33.33-21-51.79-9.48-14.61-1.74-28.85-40.56-28.85-46,0-48.78-25.48-57-41-7.72-14.57-17.88-35.41-6-47C135.79,150.9,128.67,142.43,132.61,141.73Z"/><path class="cls-10" d="M116,162c30.4,10.93,69.84,58.5,156,58.5S428,194.31,428,162s-70.77-71.09-156-58.5C184,116.5,84,150.5,116,162Z"/><path class="cls-10" d="M659,162.5c-25.27,17.84-73,56-163,56s-163-25.07-163-56,84.7-13.64,163-56C557,73.5,693,138.5,659,162.5Z"/><path class="cls-10" d="M249,249.5l-39.26-29.42a42.67,42.67,0,0,0-11.63-2.68L146,225.5c-9.83-.85-19.61-20.17-24-29l-11.94-43,258.52,63.4c3.83,10.79-28.08,21.52-39.5,22.27L298,237.5C290.57,240.32,256.41,252.35,249,249.5Z"/><path class="cls-10" d="M469.58,247.44l54.18-26.16a67.72,67.72,0,0,1,14.47-2l59.52,10.36c11.86-.32,28.5-18.3,36-26.52l25.43-40.56L336.66,210.23h0c-7.37,10.12,27.56,22,40.89,23.27h37.2C422.8,236.57,460.05,249.8,469.58,247.44Z"/><path class="cls-7" d="M458.17,397.15c-.13,12.88-6.27,16.29-13.81,16.21s-16.58-1.83-16.44-14.7,8.85-36.25,16.38-36.17S458.3,384.28,458.17,397.15Z"/><path class="cls-11" d="M387,294.5c-8.26,3.12-10,19.14-25,50-11.45,23.58-42.79,56.05-23,80,9,10.93,19.77,15.25,32,20,3.81,1.48,77.18,29.07,104-5,18.25-23.18,4.64-61.83,0-75,0,0-26.87-16.36-34-26-17-23-30.28-40.9-37-47"/><path class="cls-10" d="M64,505.5c-7.78,16.26,20.94,51.5,55,68,25.85,12.52,97.59,24.18,142,21,77.32-5.54-42.3-18.1,0,0,16.63,7.11,112.72-46.88,130-40,21.28,8.47,54,28,116,37,59.6,8.65,69.52-10.11,80-14,28.64-10.63,27.78-17.32,52-24,41-11.29,60.74,3.06,80-12,14-11,25.92-34,19-46-15.55-27-120.38,49.52-254,38-79.41-6.85-77.1-24.74-149-11-40.27,7.69-59.74-1.11-95,14-42,18-59.79-14.84-112-18C103.05,517,70.37,492.2,64,505.5Z"/></svg>
