<svg id="Layer_1" data-name="Layer 1" xmlns="http://www.w3.org/2000/svg" xmlns:xlink="http://www.w3.org/1999/xlink" width="1200" height="690" viewBox="0 0 1200 690"><defs><style>.cls-1{fill:none;}.cls-2{clip-path:url(#clip-path);}.cls-3{opacity:0.51;}.cls-4{fill:#eadc12;}.cls-5{fill:#f8e800;}.cls-6{fill:#dcd013;}.cls-7{fill:#44370c;}</style><clipPath id="clip-path"><ellipse class="cls-1" cx="-933.5" cy="1098" rx="285.5" ry="244"/></clipPath></defs><title>bananskrald</title><g class="cls-2"><image class="cls-3" width="2898" height="2294" transform="translate(-1781.05 -209.2) scale(1.03 0.72)" xlink:href="../dokumentation/tirsdag%20dokumentation/IMG_1692.JPG"/></g><path class="cls-4" d="M656.1,340.07c-4.35-30.77-262.66-57.93-315.61-113.45-43.43-45.54-27.53,25.86-5.38,49.14C519.18,469.23,533.47,439.11,587.23,406.64,623.88,384.5,660.46,370.84,656.1,340.07Z"/><rect class="cls-5" x="558" y="24" width="122" height="143" rx="16.05"/><path class="cls-6" d="M557,155h0a12,12,0,0,1-12-12V24c0-9,5.37-12,12-12h0c12,2,2,9.37,5,12l-5,131C554,165.63,563.63,155,557,155Z"/><path class="cls-7" d="M574.61,37l94.21-2.5c9.35-.25,14.17-8.3,8.07-13.5l-9.4-8A13.2,13.2,0,0,0,659,10.13H557.07c-9.51,0-14.68,8.13-8.54,13.45l9.17,7.94C561.89,35.14,568.12,37.16,574.61,37Z"/><path class="cls-5" d="M773,219c-124-118.5-170-44-179-73-12.58-40.54-115,40-148,69-32.57,28.62,64.87,68,156,68S804.34,249,773,219Z"/><path class="cls-5" d="M588,310c0,55.78-201,240-403,222-68.76-6.13-152.84-16-95-27,400-76,304-296,373-296S588,254.22,588,310Z"/><path class="cls-5" d="M550.83,263.39C528.64,285.15,660,509.21,646.72,584.78c-10.9,62,37.16,6.82,42.76-24.82C736,297,703.3,303.37,645.27,279.35,605.71,263,573,241.64,550.83,263.39Z"/><path class="cls-5" d="M705.14,226.09c-45.22-4.92-146.78,75.11-239.3,81.19-75.88,5,45.44,19.51,69.23,12C716.92,261.37,782.32,278,784,262.7S750.35,231,705.14,226.09Z"/><path class="cls-5" d="M641.69,322C641.69,377.78,785,482,987,464c68.76-6.13,295-111,151-81C739.4,466,835.73,221,766.69,221S641.69,266.22,641.69,322Z"/></svg>
