<svg id="Layer_1" data-name="Layer 1" xmlns="http://www.w3.org/2000/svg" xmlns:xlink="http://www.w3.org/1999/xlink" width="500" height="830" viewBox="0 0 500 830"><defs><style>.cls-1{fill:none;}.cls-2{clip-path:url(#clip-path);}.cls-3{opacity:0.51;}.cls-4{clip-path:url(#clip-path-2);}.cls-5{clip-path:url(#clip-path-3);}.cls-6{clip-path:url(#clip-path-4);}.cls-7{fill:#b3b3b3;opacity:0.95;}.cls-8{fill:#d4145a;opacity:0.79;}.cls-9{fill:#999;}.cls-10{fill:#ff7bac;opacity:0.6;}.cls-11{fill:#9e005d;opacity:0.4;}</style><clipPath id="clip-path"><rect class="cls-1" x="-540.5" y="-1235.5" width="434" height="296"/></clipPath><clipPath id="clip-path-2"><rect class="cls-1" x="-538.5" y="-135.5" width="359" height="341"/></clipPath><clipPath id="clip-path-3"><rect class="cls-1" x="1139.5" y="-135.5" width="370" height="299"/></clipPath><clipPath id="clip-path-4"><rect class="cls-1" x="-510.5" y="-2297.5" width="356" height="416"/></clipPath><image id="image" width="2898" height="2294" xlink:href="../dokumentation/tirsdag%20dokumentation/IMG_1692.JPG"/></defs><title>drink</title><g class="cls-2"><use class="cls-3" transform="translate(-1692.15 -1472.3) scale(0.89 0.8)" xlink:href="#image"/></g><g class="cls-4"><use class="cls-3" transform="translate(-581.63 -1132.69) scale(0.73 0.64)" xlink:href="#image"/></g><g class="cls-5"><use class="cls-3" transform="translate(455.74 -804.35) scale(0.85 0.67)" xlink:href="#image"/></g><g class="cls-6"><image width="4032" height="3024" transform="matrix(0, 0.76, -0.73, 0, 538.82, -2783.92)" xlink:href="../dokumentation/tirsdag%20dokumentation/IMG_1691.JPG"/></g><path class="cls-7" d="M428.5,312.5c0-74.56-78.8-135-176-135s-176,60.44-176,135"/><polygon class="cls-8" points="376.5 746.5 121.5 746.5 74.5 312.5 426.5 312.5 376.5 746.5"/><ellipse class="cls-9" cx="296" cy="213.5" rx="24.5" ry="5"/><path class="cls-10" d="M261.5,312.5h34L329.12,91.62,314.61,89A14.34,14.34,0,0,0,298,100.61Z"/><path class="cls-10" d="M460.5,95.5l-146-1c-5.07,0-15,3.57-12.55-.87l8.64-15.66a6.64,6.64,0,0,1,5.87-3.44l143.43.93c3.66,0,1.61,6.41,1.61,10.07l5,6C466.5,95.18,464.18,95.5,460.5,95.5Z"/><polygon class="cls-11" points="403.5 513.5 96.5 513.5 85.5 414.5 414.5 414.5 403.5 513.5"/></svg>
