<svg id="Layer_1" data-name="Layer 1" xmlns="http://www.w3.org/2000/svg" xmlns:xlink="http://www.w3.org/1999/xlink" width="900" height="585" viewBox="0 0 900 585"><defs><style>.cls-1,.cls-6,.cls-7,.cls-8,.cls-9{fill:none;}.cls-2{clip-path:url(#clip-path);}.cls-3{opacity:0.51;}.cls-4{fill:#35a3ff;}.cls-5{fill:#000068;}.cls-6{stroke:#1935a0;}.cls-6,.cls-7,.cls-8,.cls-9{stroke-linecap:round;stroke-linejoin:round;stroke-width:8px;}.cls-7{stroke:#3d64ad;}.cls-8{stroke:#2d509e;}.cls-9{stroke:#0000ad;}.cls-10{fill:#1fb0ff;}.cls-11{clip-path:url(#clip-path-2);}.cls-12{clip-path:url(#clip-path-3);}</style><clipPath id="clip-path"><rect class="cls-1" x="-691" y="-296.5" width="468" height="252"/></clipPath><clipPath id="clip-path-2"><rect class="cls-1" x="984" y="-1397.5" width="434" height="296"/></clipPath><clipPath id="clip-path-3"><rect class="cls-1" x="1014" y="-2459.5" width="356" height="416"/></clipPath><image id="image" width="2898" height="2294" xlink:href="../dokumentation/tirsdag%20dokumentation/IMG_1692.JPG"/></defs><title>fisk </title><g class="cls-2"><use class="cls-3" transform="translate(-691 -1260.32) scale(0.71 0.77)" xlink:href="#image"/></g><path class="cls-4" d="M276.72,355C356.27,467.29,53,506.81,38.81,474.74a27.79,27.79,0,0,1-2-6c-8.48-50.91,29.61-182,115.7-192.83,11.65-1.47,41.66-2.93,79,23"/><path d="M133,430.5h0c-13.15,10.11-35.53,24.1-70.06,33.85C53.54,467,44.46,469,36,470.5"/><path d="M198,351.5s-27,0-51.63-15.24c-8.12-5-9.37-2.76-9.37-2.76Z"/><path d="M179.22,310.09s-.54,33.27-16.08,63.38"/><path class="cls-5" d="M245,302.5c-2-4.88,76.57-52.66,178-82,114.36-33.08,209.41-28.74,260-26,51,2.76,106.19,10.34,106,15-.17,4.2-52,0-135,9-96.18,10.43-125.65-18.38-150,8-12,13-24-20-115,33C279.72,323.15,246,305,245,302.5Z"/><path class="cls-6" d="M444,373.5c-63-22-100.73-45.92-122.29-100.81S403,74.5,371,123.5"/><path class="cls-7" d="M645.11,233C551,211.51,580.24,202.64,597,145.19"/><path class="cls-8" d="M537,323.5c-61.81-26.49-172-74-110-174"/><path class="cls-9" d="M586,249.5c-120-5.63-89-66-76.76-93.41"/><path class="cls-10" d="M789,209.5c-3.59-20.77-23.92-27.59-21-37,2.23-7.18,14.72-.34,21,3,21.7,11.54,35.13,5.21,39,14,1.82,4.13,37,13,2,27-17.73,7.09-34,24.08-41,17C784.63,229.07,791.29,222.72,789,209.5Z"/><g class="cls-11"><use class="cls-3" transform="translate(-167.65 -1634.3) scale(0.89 0.8)" xlink:href="#image"/></g><g class="cls-12"><image width="4032" height="3024" transform="matrix(0, 0.76, -0.73, 0, 2063.32, -2945.92)" xlink:href="../dokumentation/tirsdag%20dokumentation/IMG_1691.JPG"/></g></svg>