<svg id="Layer_1" data-name="Layer 1" xmlns="http://www.w3.org/2000/svg" xmlns:xlink="http://www.w3.org/1999/xlink" width="540" height="880" viewBox="0 0 540 880"><defs><style>.cls-1{fill:none;}.cls-2{clip-path:url(#clip-path);}.cls-3{opacity:0.51;}.cls-4{clip-path:url(#clip-path-2);}.cls-5,.cls-7{fill:#0071bc;}.cls-5{opacity:0.55;}.cls-6{fill:#3fb4f5;}.cls-6,.cls-7{opacity:0.8;}.cls-8,.cls-9{fill:#00a99d;}.cls-8{opacity:0.9;}.cls-10{clip-path:url(#clip-path-3);}.cls-11{clip-path:url(#clip-path-4);}</style><clipPath id="clip-path"><rect class="cls-1" x="-1040" y="1101.5" width="370" height="299"/></clipPath><clipPath id="clip-path-2"><rect class="cls-1" x="-638" y="-43.5" width="453" height="413"/></clipPath><clipPath id="clip-path-3"><ellipse class="cls-1" cx="931.5" cy="1344.5" rx="285.5" ry="244"/></clipPath><clipPath id="clip-path-4"><ellipse class="cls-1" cx="914.5" cy="269" rx="302.5" ry="293.5"/></clipPath><image id="image" width="2898" height="2294" xlink:href="../dokumentation/tirsdag%20dokumentation/IMG_1692.JPG"/></defs><title>flaske</title><g class="cls-2"><use class="cls-3" transform="translate(-1723.76 432.65) scale(0.85 0.67)" xlink:href="#image"/></g><g class="cls-4"><use class="cls-3" transform="translate(-1629 -150.5) scale(0.57 0.47)" xlink:href="#image"/></g><line class="cls-1" x1="143" y1="351.5" x2="234" y2="359.5"/><ellipse class="cls-1" cx="146" cy="352" rx="5" ry="3.5"/><path class="cls-5" d="M402.89,580.19l-13.07,78.38a37.48,37.48,0,0,0,7.5,29.41c76.2,96.58-12.73,97.29-30.32,96.52l-162.23-5.61A39,39,0,0,1,168,746.1L134,553.5c-4.6-5.65-1.95-188.24,9-202L207,217.36a36.93,36.93,0,0,1,19.87-18.71,39.06,39.06,0,0,1,12.87-2.58l103.69-3c.58,0,1.15,0,1.73,0,16.62.25,30.84,12.08,35,28.18l27.55,107.19A106.22,106.22,0,0,1,395,411.23c-41.61,66.43-27.83,106.65-.65,138A37.79,37.79,0,0,1,402.89,580.19Z"/><path class="cls-6" d="M223.55,122.5H357.45A5.55,5.55,0,0,1,363,128v53.36a21.09,21.09,0,0,1-21.09,21.09H235.18A17.18,17.18,0,0,1,218,185.32V128A5.55,5.55,0,0,1,223.55,122.5Z"/><path class="cls-7" d="M218,122.5c0,8.84,32.6,14,72.5,16,39.5,2,72.5-7.16,72.5-16s-32.46-16-72.5-16S218,113.66,218,122.5Z"/><ellipse class="cls-1" cx="286.5" cy="491" rx="145.5" ry="135.5"/><path class="cls-8" d="M410,341.5c22,101-249.82,335.63-269,244-9-43-9-29.17-9-104,0-84,7-77.89,7-119C139,332.5,406.54,325.59,410,341.5Z"/><path class="cls-9" d="M141.06,605.12c-22-101,253.2-324.82,261.94-231.62,3,32-34,43.3-34,115,0,48,32,41.89,32,83C401,601.5,144.53,621,141.06,605.12Z"/><g class="cls-10"><use class="cls-3" transform="translate(83.95 37.3) scale(1.03 0.72)" xlink:href="#image"/></g><g class="cls-11"><use class="cls-3" transform="translate(-1316.94 -1095.74) scale(0.92 0.73)" xlink:href="#image"/></g></svg>
