<svg id="Layer_1" data-name="Layer 1" xmlns="http://www.w3.org/2000/svg" width="990" height="820" viewBox="0 0 990 820"><defs><style>.cls-1{fill:#5e5700;}.cls-2{fill:#7f6a00;}.cls-3{fill:#fff;}</style></defs><title>gameover</title><path class="cls-1" d="M265.5,75c0,17.67,3.78,38.53-24,42-24,3-34-22.33-34-40s15.95-34,27-34S265.5,57.33,265.5,75Z"/><path class="cls-1" d="M390.5,366c0,30.93-76,139-186,94-83.06-34-139-63.07-139-94,0-40,74.48-38.5,162.5-56C308.5,294,390.5,335.07,390.5,366Z"/><path class="cls-1" d="M499.5,575c0-48.32-181-143-282-16C105.78,699.48,25.43,700,36.5,747c14,59.5,115.14,47.78,237-84C359.5,570,499.5,623.32,499.5,575Z"/><path class="cls-1" d="M264.72,495c0,23.75-56.09,84-51.22,73,4-9,7.78-49.25,7.78-73s-27.78-40-15.78-40S264.72,471.25,264.72,495Z"/><path class="cls-1" d="M652.5,248c96.24,86.85,94,18.71,143-19,52-40,124-95,88-107-50.42-16.81-58-3-111,38C723.57,197.85,611.5,211,652.5,248Z"/><rect class="cls-1" x="236.5" y="316" width="444" height="215"/><path class="cls-1" d="M342.5,218c0,38.11,41.61,121,14,121s-100.62-35.32-114-71c-15-40-12.95-94.48,15-108C288.5,145,342.5,179.89,342.5,218Z"/><path class="cls-1" d="M291.5,293c0,16.57-90.81,30-106,30s28-19.76,41-30c14-11,17.2-27.59,22-42C253.5,236,291.5,276.43,291.5,293Z"/><path class="cls-1" d="M454.5,127c0,53.3,4.76,289-35,289s-138.45-181.74-128-234c8-40,60.66,29.46,99,40C430.5,233,454.5,73.7,454.5,127Z"/><path class="cls-1" d="M544.5,182c0,73.73,136,124-86,161-26.42,4.4-16-79.77-16-153.5S454.5,49,489.5,49C537.87,49,544.5,108.27,544.5,182Z"/><path class="cls-1" d="M708.5,282c49.65,14.19-49.37,97-93,97s-99.4-168.64-88-219c12-53,28.37,36,72,36S652.5,266,708.5,282Z"/><path class="cls-1" d="M698.5,212c0,10.49-30.54,36-46,36s-31-19.51-31-30,15.54-13,31-13S698.5,201.51,698.5,212Z"/><path class="cls-1" d="M759.5,578c33.89,35.22,11.85,96-79,96s-241.87-107.51-290-116c-68-12,151.15-96,242-96S708.5,525,759.5,578Z"/><path class="cls-1" d="M893.5,373c0,63.51-33.49,82-97,82s-84.49,48-133,7c-71-60,120-254.21,97-195C727.5,352,893.5,309.49,893.5,373Z"/><path class="cls-2" d="M81.23,746.25c-4.25-10.41,14.72-6,32.86-13.44S142.7,709,147,719.37s-7,24.86-25.15,32.28S85.49,756.65,81.23,746.25Z"/><path class="cls-2" d="M399.23,236.25c-4.25-10.41,14.72-6,32.86-13.44S460.7,199,465,209.37s-7,24.86-25.15,32.28S403.49,246.65,399.23,236.25Z"/><path class="cls-2" d="M229,106.35c-2.39-5.87,7.49-3.07,16.73-6.84S260,86.8,262.41,92.67s-3.15,13.67-12.39,17.45S231.35,112.21,229,106.35Z"/><path class="cls-3" d="M211.3,341.51a21.21,21.21,0,0,1,15.75,6.39q.81-5.31,5.4-5.31,5.58,0,5.58,5.4a34.24,34.24,0,0,1-.36,3.6,50.9,50.9,0,0,0-.54,5.49,12.11,12.11,0,0,0,.18,2.43q.18,2.88.18,3.24a4.76,4.76,0,0,1-2.07,3.92,8.52,8.52,0,0,1-5.31,1.57q-5.22,0-6.3-5.13c-.72-3.42-1.76-5.77-3.1-7.06s-3.5-1.94-6.44-1.94q-5.85,0-9.05,5.45T202,375q0,8.46,3.1,13.19a9.77,9.77,0,0,0,8.6,4.72,8.48,8.48,0,0,0,5.81-2,6.53,6.53,0,0,0,2.29-5.09q0-3.78-3.15-3.78h-.54a2.64,2.64,0,0,1-.63.09q-1.44.18-1.62.18a3.79,3.79,0,0,1-3.06-1.57,6.08,6.08,0,0,1-1.26-3.92,5.53,5.53,0,0,1,1.8-4.32,6.73,6.73,0,0,1,4.68-1.62,49.5,49.5,0,0,1,5.72.5,48.71,48.71,0,0,0,5.8.49,53.34,53.34,0,0,0,6.57-.45,38.32,38.32,0,0,1,4-.36,6.26,6.26,0,0,1,4.63,1.76,6.38,6.38,0,0,1,1.76,4.72,7.31,7.31,0,0,1-1.26,4.37,3.75,3.75,0,0,1-3.15,1.75l-2.16-.18q-2.43,0-2.43,4.05,0,1.71.09,3.6l.18,3.87q.09,2,.09,3.78,0,6-6.66,6-6.3,0-6.3-4.41v-.54a22.06,22.06,0,0,1-14.13,4.95,25.08,25.08,0,0,1-13-3.64,22,22,0,0,1-8.91-9.5,39.58,39.58,0,0,1-3.6-17.37q0-15.12,7-23.94T211.3,341.51Z"/><path class="cls-3" d="M288.16,384.53h-12q-5.13,0-5.13,6.12,0,1.44,1.53,1.44a9.8,9.8,0,0,0,1.35-.13,10.19,10.19,0,0,1,1.35-.14q3.33,0,3.33,5.31a7,7,0,0,1-1.53,4.68,5.05,5.05,0,0,1-4,1.8,51.53,51.53,0,0,1-5.58-.63,39.91,39.91,0,0,0-5.31-.27,47.22,47.22,0,0,0-5.76.27q-4.77.63-5.67.63a6.23,6.23,0,0,1-4.54-1.71,6,6,0,0,1-1.76-4.5q0-6.3,4.77-6.3a17.1,17.1,0,0,1,1.71.14,16.36,16.36,0,0,0,1.71.13,3.18,3.18,0,0,0,2.79-1.89q.27-.54,1.26-3.33l12.42-35.37q2.16-6,4.86-7.56,2-1,8.73-1,7.56,0,9.54.95t3.24,5.26L307,386.78q1.35,4.59,3.15,4.59a11.38,11.38,0,0,0,1.89-.27h1q5,0,5,5.94a6.45,6.45,0,0,1-1.8,4.77,6.33,6.33,0,0,1-4.68,1.8,27,27,0,0,1-3.33-.27,24.28,24.28,0,0,0-3.33-.45q-2-.18-5.13-.18a37.06,37.06,0,0,0-4.59.18,52.87,52.87,0,0,1-5.76.72,5,5,0,0,1-4-1.84,6.91,6.91,0,0,1-1.58-4.64q0-5.31,3.42-5.31a10.19,10.19,0,0,1,1.35.14,9.8,9.8,0,0,0,1.35.13q1.71,0,1.71-1.89a7.64,7.64,0,0,0-1-4.05A2.91,2.91,0,0,0,288.16,384.53Zm-1.35-13.77-4.32-18.45-5.58,19.17a2,2,0,0,0-.09.63q0,1.08,2.25,1.08h5.58q2.34,0,2.34-1.26Q287,372,286.81,370.76Z"/><path class="cls-3" d="M358.36,348.35l7.47,32.85,7.83-31.5a14.57,14.57,0,0,1,2.21-5.44,4.21,4.21,0,0,1,3.46-1.49,60.21,60.21,0,0,1,6,.45,60.4,60.4,0,0,0,6.12.45q2.16,0,10.71-.72,2.43-.18,3.6-.18a6.54,6.54,0,0,1,4.77,1.76,6.4,6.4,0,0,1,1.8,4.81,6.48,6.48,0,0,1-1.4,4.23,4.29,4.29,0,0,1-3.46,1.71,11.19,11.19,0,0,1-2.25-.31,11.24,11.24,0,0,0-2.07-.32q-2.43,0-2.43,6v24.93q0,6.12,2.34,6.12a11,11,0,0,0,2.16-.31,11.25,11.25,0,0,1,2.16-.32,4.43,4.43,0,0,1,3.51,1.71,6.34,6.34,0,0,1,1.44,4.23,6.43,6.43,0,0,1-1.8,4.82,6.54,6.54,0,0,1-4.77,1.75,50.25,50.25,0,0,1-5.76-.54,33.68,33.68,0,0,0-10.44.09,41,41,0,0,1-5,.45,5.64,5.64,0,0,1-4.36-1.8,6.7,6.7,0,0,1-1.67-4.77q0-5.58,3.69-5.58a2.73,2.73,0,0,1,.81.09h.63a2.71,2.71,0,0,0,.45.09q1.44,0,1.71-2,.09-.9.09-3.06V352.67L373.39,397q-1.62,5.76-5.31,5.76h-5.76q-3.6,0-4.95-5.13l-12-44.91V386.6q0,4.23.81,4.77a1.4,1.4,0,0,0,1,.27,2.46,2.46,0,0,0,.54-.09h.54a2.73,2.73,0,0,1,.81-.09q3.6,0,3.6,5.49a7,7,0,0,1-1.62,4.86,5.53,5.53,0,0,1-4.32,1.8,25,25,0,0,1-3.24-.27l-3.15-.45q-1.89-.18-4.32-.18a40.69,40.69,0,0,0-5.13.27l-5.58.72a6.06,6.06,0,0,1-4.59-1.89,6.64,6.64,0,0,1-1.8-4.77,6.37,6.37,0,0,1,1.4-4.27,4.42,4.42,0,0,1,3.55-1.67,10.73,10.73,0,0,1,2.12.32,10.38,10.38,0,0,0,2.11.31q1.8,0,2.25-2.34a24.41,24.41,0,0,0,.18-3.78V360.68a22.47,22.47,0,0,0-.18-3.69q-.45-2.34-2.25-2.34A10.56,10.56,0,0,0,326,355a10.7,10.7,0,0,1-2.21.31,4.28,4.28,0,0,1-3.46-1.71,6.42,6.42,0,0,1-1.4-4.23q0-6.57,6.66-6.57,2.16,0,7.2.45t7.56.45a69.67,69.67,0,0,0,8.46-.54,41.25,41.25,0,0,1,4.68-.36,3.91,3.91,0,0,1,3.15,1.08A12.15,12.15,0,0,1,358.36,348.35Z"/><path class="cls-3" d="M448.36,354.11a9.51,9.51,0,0,0-4,.54q-1.35.81-1.35,3.6v5a5,5,0,0,0,.41,2.3c.26.51,1,.76,2.11.76q4,0,4-2.88V362.3a8.43,8.43,0,0,1-.09-1.35q0-3.78,4.41-3.78,4.59,0,4.59,4.59a24,24,0,0,1-.18,2.79,45.85,45.85,0,0,0-.36,5.49q0,2.34.36,5.94t.36,5q0,5.31-4.77,5.31-4.5,0-4.5-4.59v-.45q0-.45.18-2.16,0-2.16-3.87-2.16-2.61,0-2.61,2.88v6.75c0,2.1.37,3.53,1.12,4.28s2.15,1.12,4.19,1.12h5.22q5.76,0,8.05-1a3.54,3.54,0,0,0,2.3-3.51,20.2,20.2,0,0,0-.27-3,19.93,19.93,0,0,1-.27-2.93,7.05,7.05,0,0,1,1.89-5.22,6.93,6.93,0,0,1,5.13-1.89q6.57,0,6.57,7.2a48.2,48.2,0,0,1-.27,5q-.45,4.32-.45,5.4a31.19,31.19,0,0,0,.45,3.87,22.47,22.47,0,0,1,.27,3.51q0,4.23-5.31,4.23-1.71,0-5.67-.27-6.57-.45-21-.63h-8q-4.5,0-7.47.27l-6.84.63a1.47,1.47,0,0,0-.36.09h-.45a5.93,5.93,0,0,1-4.55-1.89A6.73,6.73,0,0,1,415.6,397a6.47,6.47,0,0,1,1.39-4.23,4.4,4.4,0,0,1,3.56-1.71,11.25,11.25,0,0,1,2.16.32,11,11,0,0,0,2.07.31q2.43,0,2.43-6.12V360.68q0-6-2.43-6a12.64,12.64,0,0,0-2.16.36,9.34,9.34,0,0,1-2.07.27,4.43,4.43,0,0,1-3.51-1.71,6.34,6.34,0,0,1-1.44-4.23q0-6.57,6.57-6.57,1.53,0,6.21.36,7,.54,13.59.54.63,0,10.8-.27,7.38-.18,9.72-.36,3.87-.27,8.1-.27,5,0,5,4.41a41.31,41.31,0,0,1-.32,4.23,40.68,40.68,0,0,0-.31,4.23,29.11,29.11,0,0,0,.4,4.1,29.16,29.16,0,0,1,.41,4,5.82,5.82,0,0,1-1.93,4.41,6.83,6.83,0,0,1-4.82,1.8q-6.75,0-6.75-6.93a17.93,17.93,0,0,1,.4-3.24,17.9,17.9,0,0,0,.41-3.06,2.3,2.3,0,0,0-2.07-2.43,22.31,22.31,0,0,0-3.78-.18Z"/><path class="cls-3" d="M534.94,404.78q-13.68,0-21.15-8.28T506.32,373q0-14.67,7.42-23.08t20.48-8.42q13.68,0,21.33,8.19t7.65,22.86q0,15.21-7.43,23.72T534.94,404.78Zm-.09-50.67q-11.7,0-11.7,19.08,0,9.09,2.25,13.5,2.79,5.49,9.36,5.49,11.61,0,11.61-18.54,0-10.26-2.75-14.89T534.85,354.11Z"/><path class="cls-3" d="M592.45,358.25l8.1,29,8.55-29a9,9,0,0,0,.45-2.16q0-1.53-1.44-1.44l-1.26.09h-.18q-4.14,0-4.14-5.4,0-6.57,5.76-6.57a50.23,50.23,0,0,1,5.58.45,50.23,50.23,0,0,0,5.58.45,34.51,34.51,0,0,0,5.22-.36,37.89,37.89,0,0,1,5.13-.54,6,6,0,0,1,4.5,1.76,6.23,6.23,0,0,1,1.71,4.54,7.31,7.31,0,0,1-1.31,4.41,3.84,3.84,0,0,1-3.19,1.8,7.46,7.46,0,0,1-1.8-.31,8,8,0,0,0-1.53-.32q-2.16,0-4.68,7.74l-11,33.39q-2.43,7.38-7.11,7.38c-.6,0-1.5,0-2.7-.13s-2.1-.14-2.7-.14-1.47.05-2.61.14-2,.13-2.61.13q-4.77,0-8.1-10.44L576,359.06q-1.44-4.41-3.24-4.41a6.12,6.12,0,0,0-1.67.32,6.89,6.89,0,0,1-2,.31,3.78,3.78,0,0,1-3.2-1.66,7.09,7.09,0,0,1-1.21-4.28q0-6.57,6.57-6.57a50.06,50.06,0,0,1,5.49.45,50.23,50.23,0,0,0,5.58.45,47.42,47.42,0,0,0,6.12-.45,43.12,43.12,0,0,1,4.77-.45q5.94,0,5.94,6.66,0,5.31-3.69,5.31h-.9a2.73,2.73,0,0,0-.81-.09q-1.62,0-1.62,1.53A7.87,7.87,0,0,0,592.45,358.25Z"/><path class="cls-3" d="M669.13,354.11a9.51,9.51,0,0,0-4,.54q-1.35.81-1.35,3.6v5a5.1,5.1,0,0,0,.4,2.3c.27.51,1,.76,2.12.76q4,0,4-2.88V362.3a8.43,8.43,0,0,1-.09-1.35q0-3.78,4.41-3.78,4.59,0,4.59,4.59a24,24,0,0,1-.18,2.79,45.85,45.85,0,0,0-.36,5.49q0,2.34.36,5.94t.36,5q0,5.31-4.77,5.31-4.5,0-4.5-4.59v-.45q0-.45.18-2.16,0-2.16-3.87-2.16-2.61,0-2.61,2.88v6.75c0,2.1.37,3.53,1.12,4.28s2.15,1.12,4.19,1.12h5.22q5.76,0,8-1a3.54,3.54,0,0,0,2.3-3.51,20.2,20.2,0,0,0-.27-3,19.93,19.93,0,0,1-.27-2.93,7.05,7.05,0,0,1,1.89-5.22,6.93,6.93,0,0,1,5.13-1.89q6.57,0,6.57,7.2a48.2,48.2,0,0,1-.27,5q-.45,4.32-.45,5.4a31.19,31.19,0,0,0,.45,3.87,22.47,22.47,0,0,1,.27,3.51q0,4.23-5.31,4.23-1.71,0-5.67-.27-6.57-.45-21-.63h-8q-4.5,0-7.47.27l-6.84.63a1.47,1.47,0,0,0-.36.09h-.45a5.93,5.93,0,0,1-4.55-1.89,6.73,6.73,0,0,1-1.75-4.77,6.47,6.47,0,0,1,1.39-4.23,4.4,4.4,0,0,1,3.56-1.71,11.25,11.25,0,0,1,2.16.32,11,11,0,0,0,2.07.31q2.43,0,2.43-6.12V360.68q0-6-2.43-6a12.64,12.64,0,0,0-2.16.36,9.34,9.34,0,0,1-2.07.27,4.43,4.43,0,0,1-3.51-1.71,6.34,6.34,0,0,1-1.44-4.23q0-6.57,6.57-6.57,1.53,0,6.21.36,7,.54,13.59.54.63,0,10.8-.27,7.38-.18,9.72-.36,3.87-.27,8.1-.27,5,0,5,4.41a41.31,41.31,0,0,1-.32,4.23,40.68,40.68,0,0,0-.31,4.23,29.11,29.11,0,0,0,.4,4.1,29.16,29.16,0,0,1,.41,4,5.8,5.8,0,0,1-1.94,4.41,6.79,6.79,0,0,1-4.81,1.8q-6.75,0-6.75-6.93a17.93,17.93,0,0,1,.4-3.24,17.9,17.9,0,0,0,.41-3.06,2.3,2.3,0,0,0-2.07-2.43,22.31,22.31,0,0,0-3.78-.18Z"/><path class="cls-3" d="M758.05,368.6a24.48,24.48,0,0,1-8.19,3.06q6.48,1.08,9.18,3.83t2.7,8.14q0,1.62-.09,3.15v1.08q0,3.69,2.16,3.69a9.29,9.29,0,0,0,1.66-.22,9.62,9.62,0,0,1,1.67-.23,3.77,3.77,0,0,1,3.19,1.67,7.22,7.22,0,0,1,1.22,4.36,6.4,6.4,0,0,1-1.76,4.73,6.25,6.25,0,0,1-4.63,1.75,30.63,30.63,0,0,1-3.06-.22c-1.39-.15-2.4-.23-3.06-.23s-1.79.08-3.2.23-2.47.22-3.19.22a6.34,6.34,0,0,1-5.36-2.74,11.93,11.93,0,0,1-2-7.25,1.39,1.39,0,0,1,.09-.63l.18-5.22v-.63q0-4.68-2.39-6.48t-8.59-1.8c-1.68,0-2.74.45-3.15,1.35a8.36,8.36,0,0,0-.45,3.33v2.07q0,6.12,2.25,6.12a9.17,9.17,0,0,0,1.93-.31,9.31,9.31,0,0,1,2-.32,3.89,3.89,0,0,1,3.19,1.71,6.77,6.77,0,0,1,1.31,4.23c0,4.38-2.11,6.57-6.3,6.57a50.92,50.92,0,0,1-5.85-.45,53.93,53.93,0,0,0-6.39-.45,57.15,57.15,0,0,0-6.66.45,55.51,55.51,0,0,1-6.39.45q-6.57,0-6.57-6.57a6.47,6.47,0,0,1,1.39-4.23,4.3,4.3,0,0,1,3.47-1.71,11.35,11.35,0,0,1,2.25.32,10.88,10.88,0,0,0,2.07.31q2.43,0,2.43-6.12V360.68a23.73,23.73,0,0,0-.18-3.69q-.47-2.34-2.25-2.34a10.63,10.63,0,0,0-2.12.32,10.54,10.54,0,0,1-2.2.31,4.3,4.3,0,0,1-3.47-1.71,6.47,6.47,0,0,1-1.39-4.23,6.73,6.73,0,0,1,1.75-4.77,5.93,5.93,0,0,1,4.55-1.89,2.73,2.73,0,0,1,.81.09l6.39.63c1.8.18,3.71.27,5.76.27,3.53,0,8-.18,13.41-.54q5.4-.36,8-.36,8.53,0,13.54,4.28t5,11.65Q762.73,365.45,758.05,368.6Zm-20.43-13.86a15,15,0,0,0-4.68.45q-2,.9-2,3.87v5.4a3.81,3.81,0,0,0,.67,2.7,3.86,3.86,0,0,0,2.57.63q11.68,0,11.7-6.93C745.9,356.78,743.13,354.74,737.62,354.74Z"/></svg>
