<svg id="Layer_1" data-name="Layer 1" xmlns="http://www.w3.org/2000/svg" xmlns:xlink="http://www.w3.org/1999/xlink" width="680" height="1015" viewBox="0 0 680 1015"><defs><style>.cls-1{fill:none;}.cls-2{clip-path:url(#clip-path);}.cls-3{opacity:0.51;}.cls-4,.cls-8{fill:#fbb03b;}.cls-4{opacity:0.2;}.cls-5,.cls-6,.cls-7{fill:#e8422d;}.cls-5,.cls-8{opacity:0.6;}.cls-7{opacity:0.5;}</style><clipPath id="clip-path"><ellipse class="cls-1" cx="-583.5" cy="233" rx="285.5" ry="244"/></clipPath></defs><title>katon</title><g class="cls-2"><image class="cls-3" width="2898" height="2294" transform="translate(-1431.05 -1074.2) scale(1.03 0.72)" xlink:href="../dokumentation/tirsdag%20dokumentation/IMG_1692.JPG"/></g><rect class="cls-4" x="177" y="124" width="355" height="62"/><polyline class="cls-5" points="436 332 531.81 186.14 593 299"/><polygon class="cls-6" points="437 332 114 316 177 186 532 186 437 332"/><polygon class="cls-7" points="436 936 137 896 114 316 436 316 436 936"/><polygon class="cls-6" points="593 853 436 936 432 332 593 299 593 853"/><polygon class="cls-8" points="356 822 196 804 177 430 343 430 356 822"/></svg>
