<svg id="Layer_1" data-name="Layer 1" xmlns="http://www.w3.org/2000/svg" width="170" height="120.72" viewBox="0 0 170 120.72"><defs><style>.cls-1{fill:#017300;}.cls-2{fill:#fff;}</style></defs><title>menu</title><path class="cls-1" d="M1.5,82c0,50.05,28.32,37.88,89,37.88s78,5.24,78-44.81S135-7.86,85.5.92C34.77,9.92,1.5,32,1.5,82Z"/><path class="cls-2" d="M38.35,83.32q-.56-14.5-1.11-29a2.47,2.47,0,0,1,.83-2.2,3.22,3.22,0,0,1,2.27-.57,6,6,0,0,1,2.84.8,8.92,8.92,0,0,1,2.25,2.72l6.3,10.54q2.88-4.92,5.82-9.73a6.38,6.38,0,0,1,2.16-2.34,5.46,5.46,0,0,1,2.83-.37,3.83,3.83,0,0,1,2.3.87,2.76,2.76,0,0,1,.93,2.21Q65.88,70,66,83.78a1.45,1.45,0,0,1-.92,1.31,5,5,0,0,1-4.36,0,1.53,1.53,0,0,1-.93-1.34l-.3-19.18Q56.71,69,54,73.63a2.14,2.14,0,0,1-2.09,1.1,2.37,2.37,0,0,1-2.11-1.25q-2.91-5-5.87-10.11.31,10,.65,20.09a1.44,1.44,0,0,1-.89,1.36,4.34,4.34,0,0,1-2.15.47,4.56,4.56,0,0,1-2.22-.56A1.69,1.69,0,0,1,38.35,83.32Z"/><path class="cls-2" d="M71.73,83.81q0-14.11,0-28.18a1.31,1.31,0,0,1,.83-1.24,3.8,3.8,0,0,1,2-.34l17.56,1.22a1.83,1.83,0,0,1,1.49.8A2.76,2.76,0,0,1,94,57.7a2.55,2.55,0,0,1-.59,1.65A1.69,1.69,0,0,1,92,60q-6.95-.39-13.89-.8,0,4.28,0,8.56L85.4,68a1.83,1.83,0,0,1,1.44.7,2.37,2.37,0,0,1,.51,1.55,2.26,2.26,0,0,1-.53,1.43,1.76,1.76,0,0,1-1.48.61L78,72.09q0,4.3,0,8.61,6.76,0,13.54,0a1.64,1.64,0,0,1,1.41.7,2.67,2.67,0,0,1,.49,1.68,2.76,2.76,0,0,1-.54,1.61,1.68,1.68,0,0,1-1.46.72q-8.48.12-16.94.13a3.68,3.68,0,0,1-1.91-.47A1.47,1.47,0,0,1,71.73,83.81Z"/><path class="cls-2" d="M97,83.71q.39-13.21.78-26.39a1.28,1.28,0,0,1,1-1.17,5.22,5.22,0,0,1,2.28-.28,5.92,5.92,0,0,1,2.69.7,7,7,0,0,1,2,2.35q4.44,7.68,8.71,14.91.41-7.76.83-15.48c0-.52.36-.88,1-1.1a5.78,5.78,0,0,1,2.28-.24,6.11,6.11,0,0,1,2.24.52,1.24,1.24,0,0,1,.87,1.19q-.78,12.24-1.54,24.53c0,.47-.37.86-1,1.16a5.5,5.5,0,0,1-2.18.49c-1.68,0-2.84-.44-3.48-1.48q-4.71-7.67-9.63-15.86-.32,8-.61,16.06a1.43,1.43,0,0,1-1,1.22,5,5,0,0,1-2.17.48,4.7,4.7,0,0,1-2.18-.4A1.3,1.3,0,0,1,97,83.71Z"/><path class="cls-2" d="M126.12,76.34q.61-8.67,1.24-17.29.06-.75,1-1a6.23,6.23,0,0,1,2.29-.24,6.55,6.55,0,0,1,2.23.5c.6.28.89.66.85,1.14q-.7,8.43-1.4,16.88c-.22,2.78,1.41,4.13,4.91,4s5.37-1.51,5.64-4.15Q143.71,68,144.54,60c.05-.46.39-.79,1-1a6.81,6.81,0,0,1,2.3-.22,6.53,6.53,0,0,1,2.22.47c.59.26.87.61.82,1.06q-.9,7.85-1.8,15.73a7.69,7.69,0,0,1-3.76,6,17.53,17.53,0,0,1-8.47,2.31c-3.44.16-6.14-.38-8.12-1.66S125.91,79.28,126.12,76.34Z"/></svg>
