<svg id="Layer_1" data-name="Layer 1" xmlns="http://www.w3.org/2000/svg" xmlns:xlink="http://www.w3.org/1999/xlink" width="1050" height="990" viewBox="0 0 1050 990"><defs><style>.cls-1,.cls-6,.cls-7{fill:none;}.cls-2{clip-path:url(#clip-path);}.cls-3{opacity:0.51;}.cls-4{clip-path:url(#clip-path-2);}.cls-5{fill:#ccc;}.cls-6{stroke:#4d4d4d;stroke-width:8px;}.cls-6,.cls-7{stroke-miterlimit:10;}.cls-7{stroke:#42210b;stroke-width:7px;}.cls-8{fill:#a67c52;}.cls-9{fill:#8c6239;}.cls-10{fill:#c69c6d;}.cls-11{clip-path:url(#clip-path-3);}</style><clipPath id="clip-path"><rect class="cls-1" x="-2031" y="-35.5" width="359" height="341"/></clipPath><clipPath id="clip-path-2"><rect class="cls-1" x="-353" y="-35.5" width="370" height="299"/></clipPath><clipPath id="clip-path-3"><ellipse class="cls-1" cx="1618.5" cy="207.5" rx="285.5" ry="244"/></clipPath><image id="image" width="2898" height="2294" xlink:href="../dokumentation/tirsdag%20dokumentation/IMG_1692.JPG"/></defs><title>papir</title><g class="cls-2"><use class="cls-3" transform="translate(-2074.13 -1032.69) scale(0.73 0.64)" xlink:href="#image"/></g><g class="cls-4"><use class="cls-3" transform="translate(-1036.76 -704.35) scale(0.85 0.67)" xlink:href="#image"/></g><path class="cls-5" d="M992,573.5,817.71,769.4C792.44,813.25,431,892.5,555,892.5L434.18,855.08c-23.18-103.58-105-24.82-133.14-71L211,582.5c-38,69-49.92-129.6-1.87-213l96.68-167.8a148.11,148.11,0,0,1,121.74-74L689.33,116C743.35,113.63,849,194.5,945,197.5l1.76,194C974.85,437.66,936,544.5,992,573.5Z"/><path class="cls-5" d="M998.38,430.44,728.76,608.37,715.76,833c-2.34,40.35-49.71,60.73-80.61,34.67L471.85,730,167,824,289.4,521.9l-112-174.47c-24.23-37.76-122.21-100-77.39-97.93l333.54,22.18L662,66.5l43.08,258.63Z"/><polygon class="cls-5" points="866.36 526.44 833 853.5 489.25 793.97 220.83 415.61 275.17 92.66 597.93 148.08 866.36 526.44"/><polyline class="cls-6" points="447.13 662.63 399.13 547.63 325.02 513.11 385 390.5"/><line class="cls-6" x1="573.02" y1="494.11" x2="633" y2="371.5"/><line class="cls-6" x1="844" y1="326.5" x2="779.97" y2="484.8"/><line class="cls-6" x1="687.13" y1="561.63" x2="639.13" y2="446.63"/><line class="cls-6" x1="797.58" y1="303.77" x2="737.6" y2="181.17"/><polyline class="cls-7" points="495.42 590.52 474.03 392.14 738.5 302"/><polyline class="cls-7" points="523.67 592.91 712.87 656.24 862.33 524.05"/><polyline class="cls-7" points="325.5 302 397.09 337.61 464.5 302"/><line class="cls-1" x1="486" y1="212.5" x2="547" y2="242.5"/><line class="cls-8" x1="653" y1="181.5" x2="573" y2="348.5"/><line class="cls-1" x1="798" y1="280.5" x2="718" y2="447.5"/><line class="cls-1" x1="434" y1="271.5" x2="606" y2="263.5"/><line class="cls-1" x1="474" y1="687.5" x2="663" y2="549.5"/><line class="cls-1" x1="780" y1="701.5" x2="969" y2="563.5"/><line class="cls-1" x1="613" y1="687.5" x2="802" y2="549.5"/><line class="cls-1" x1="273" y1="422.5" x2="462" y2="284.5"/><line class="cls-9" x1="603" y1="722.5" x2="623" y2="549.5"/><line class="cls-1" x1="547" y1="561.5" x2="543" y2="712.5"/><line class="cls-1" x1="857" y1="618.5" x2="758" y2="526.5"/><line class="cls-10" x1="862" y1="405.5" x2="693" y2="390.5"/><line class="cls-1" x1="273" y1="422.5" x2="104" y2="407.5"/><line class="cls-10" x1="421" y1="398.5" x2="449" y2="524.5"/><g class="cls-11"><use class="cls-3" transform="translate(770.95 -1099.7) scale(1.03 0.72)" xlink:href="#image"/></g></svg>
