<svg id="Layer_1" data-name="Layer 1" xmlns="http://www.w3.org/2000/svg" xmlns:xlink="http://www.w3.org/1999/xlink" width="490" height="710" viewBox="0 0 490 710"><defs><style>.cls-1{fill:none;}.cls-2{clip-path:url(#clip-path);}.cls-3{opacity:0.51;}.cls-4{clip-path:url(#clip-path-2);}.cls-5{fill:#006837;}.cls-5,.cls-6{opacity:0.2;}.cls-6{fill:#3fa9f5;}.cls-7{fill:#fff;}.cls-8{clip-path:url(#clip-path-3);}</style><clipPath id="clip-path"><rect class="cls-1" x="977.5" y="-111.5" width="430" height="363"/></clipPath><clipPath id="clip-path-2"><rect class="cls-1" x="-749.5" y="-110.5" width="588" height="471"/></clipPath><clipPath id="clip-path-3"><ellipse class="cls-1" cx="1216" cy="1254" rx="302.5" ry="293.5"/></clipPath><image id="image" width="2898" height="2294" xlink:href="../dokumentation/tirsdag%20dokumentation/IMG_1692.JPG"/></defs><title>plastikpose</title><g class="cls-2"><use class="cls-3" transform="translate(-34.7 -473.25) scale(0.85 0.59)" xlink:href="#image"/><rect class="cls-1" x="-432.19" y="16.98" width="1953.47" height="89.81"/></g><g class="cls-4"><use class="cls-3" transform="translate(-1763.13 -768.3) scale(0.66 0.63)" xlink:href="#image"/></g><path class="cls-5" d="M354.48,501.77c8.26-1.47-41.82,23.79-94,3.73-45.4-17.46-42.27-6.57-50-3-96.47,44.5-18.49-49,55-4C306.44,523.57,308.49,509.92,354.48,501.77Z"/><path class="cls-6" d="M160.5,292.5c48,115-69.09,25.35-71,32-6.17,21.5-29-9.35-29-87.5S78.63,95.5,101,95.5,130.4,220.38,160.5,292.5Z"/><path class="cls-6" d="M355.5,228c0,78.15-4,151.5-25,147.5-22-4.19-147-7.09-66-50,68-36,28.13-239,50.5-239S355.5,149.85,355.5,228Z"/><path class="cls-6" d="M351.5,379.5c-3.5-20.32-149-1-223-39-95.36-49-33,22-33,104,0,134,107,133,242,174C464.46,657.06,361.5,437.5,351.5,379.5Z"/><path class="cls-7" d="M105.21,245.88c10.17,65.47-6.47,48-6.7,54.61-.46,13.44-12-7.45-12-54.61s4.19-85.38,9.36-85.38S98.43,202.18,105.21,245.88Z"/><path class="cls-7" d="M310.83,301.88c-13.4,65.47,8.53,48,8.83,54.61.62,13.44,15.84-7.45,15.84-54.61S330,216.5,323.17,216.5,319.78,258.18,310.83,301.88Z"/><path class="cls-5" d="M187.5,443.5c-96.47,44.5-11.49-28,62,17"/><g class="cls-8"><use class="cls-3" transform="translate(-1015.44 -110.74) scale(0.92 0.73)" xlink:href="#image"/></g></svg>
