<svg id="Layer_1" data-name="Layer 1" xmlns="http://www.w3.org/2000/svg" width="1064" height="658" viewBox="0 0 1064 658"><defs><style>.cls-1{fill:#1b7df7;}.cls-2{fill:#fff;}.cls-3{fill:#ffff0b;}</style></defs><title>setting_1</title><rect class="cls-1" x="140" y="56.55" width="784" height="512.21" rx="72.47"/><path class="cls-2" d="M203.55,195.26a1.73,1.73,0,0,0,1.78-1.56,13.35,13.35,0,0,0,.14-2.52V174.56a12.31,12.31,0,0,0-.14-2.46,1.73,1.73,0,0,0-1.78-1.56,9.67,9.67,0,0,0-1.67.21,10,10,0,0,1-1.75.21,3.65,3.65,0,0,1-2.74-1.14,3.88,3.88,0,0,1-1.1-2.82,4,4,0,0,1,1.38-3.21,5.64,5.64,0,0,1,3.74-1.17c.72,0,2.38.12,5,.36,1.76.16,3.46.24,5.13.24q2,0,5.73-.3t5-.3q5.21,0,5.2,4.38a3.88,3.88,0,0,1-1.11,2.82,3.65,3.65,0,0,1-2.74,1.14,10.38,10.38,0,0,1-1.71-.21,10.38,10.38,0,0,0-1.71-.21q-1.92,0-1.92,4v16.62q0,4.08,1.92,4.08a10.38,10.38,0,0,0,1.71-.21,10.38,10.38,0,0,1,1.71-.21A3.65,3.65,0,0,1,226.3,196a3.88,3.88,0,0,1,1.11,2.82A4.1,4.1,0,0,1,226,202a5.06,5.06,0,0,1-3.53,1.26,2.6,2.6,0,0,1-.64-.06l-4.48-.48a36.31,36.31,0,0,0-3.78-.18c-2.13,0-4.37.1-6.69.3q-4.2.36-5.49.36a5.54,5.54,0,0,1-3.7-1.2,4,4,0,0,1-1.42-3.18,3.85,3.85,0,0,1,1.1-2.85,3.78,3.78,0,0,1,2.81-1.11,9.88,9.88,0,0,1,1.68.21A9.67,9.67,0,0,0,203.55,195.26Z"/><path class="cls-2" d="M245.43,174.38v2.88a17.21,17.21,0,0,1,12.39-5.4q7.41,0,10.47,4.68,1.63,2.4,1.64,7.56v9c0,2,.47,3.06,1.42,3.06a4.86,4.86,0,0,0,1.07-.18,3.56,3.56,0,0,1,1.07-.12q3.13,0,3.13,3.12,0,4.14-4.27,4.14-1.14,0-3.42-.24t-3.42-.24a31.55,31.55,0,0,0-3.77.24,28.61,28.61,0,0,1-3.28.24q-4.2,0-4.2-3.66,0-3.18,2.92-3.36,1.92-.12,1.92-1.5v-8.4c0-2.32-.35-3.95-1.07-4.89a4.27,4.27,0,0,0-3.63-1.41,7,7,0,0,0-4.81,1.68,5.44,5.44,0,0,0-1.88,4.26v6.24a10.46,10.46,0,0,0,.28,3.27c.19.38.74.63,1.64.75,1.71.2,2.56,1.28,2.56,3.24q0,3.78-3.77,3.78a24,24,0,0,1-2.64-.18,38.09,38.09,0,0,0-3.91-.3q-1.29,0-3.81.24t-3.81.24c-3,0-4.49-1.34-4.49-4q0-3.36,3.42-3.36a4.6,4.6,0,0,1,1.28.21,4.15,4.15,0,0,0,1.07.21c.8,0,1.21-1.12,1.21-3.36v-9.72c0-2.28-.41-3.42-1.21-3.42a5.65,5.65,0,0,0-1.11.21,5.44,5.44,0,0,1-1.24.21q-3.42,0-3.42-3.3a3.92,3.92,0,0,1,1.17-2.94,4.28,4.28,0,0,1,3.1-1.14,19.62,19.62,0,0,1,2.42.3,11.44,11.44,0,0,0,1.85.18,29,29,0,0,0,2.92-.24q2.07-.24,2.28-.24C244.79,172.7,245.43,173.26,245.43,174.38Z"/><path class="cls-2" d="M293.71,172.28a15.88,15.88,0,0,1,10,3.54V171.5c0-1.44-.59-2.16-1.78-2.16-.28,0-.85,0-1.7.12a7.42,7.42,0,0,1-1.86.24,3.05,3.05,0,0,1-2.28-1,3.35,3.35,0,0,1-.92-2.4q0-3.84,4.84-3.84,1.57,0,2.28.06c1.9.16,3.18.24,3.85.24s1.51,0,2.7-.12,2.07-.12,2.64-.12a3.4,3.4,0,0,1,2.45.69,3.61,3.61,0,0,1,.68,2.55v27.3q0,3.06,1.35,3.06A4,4,0,0,0,317,196a4.41,4.41,0,0,1,1.14-.12c2,0,3.07,1,3.07,3.06a4.33,4.33,0,0,1-1.07,3,3.69,3.69,0,0,1-2.85,1.17h-.43l-2.49-.36a18.59,18.59,0,0,0-2.42-.12c-1.24,0-2.26,0-3.07.12l-1.92.18a1.93,1.93,0,0,1-2.21-2.16v-2.22q-3.71,5.34-11.11,5.34a14.13,14.13,0,0,1-10.79-4.53,16.09,16.09,0,0,1-4.23-11.43q0-7,4.16-11.34A14.5,14.5,0,0,1,293.71,172.28Zm2.5,7.56a5.25,5.25,0,0,0-4.31,2.1,9.83,9.83,0,0,0-1.89,5.7v.78a9,9,0,0,0,1.67,5.76,5.5,5.5,0,0,0,4.53,2.1A6.41,6.41,0,0,0,301.3,194a9,9,0,0,0,2-6.06,8.63,8.63,0,0,0-1.93-5.88A6.44,6.44,0,0,0,296.21,179.84Z"/><path class="cls-2" d="M338.15,171.86a16,16,0,0,1,9.26,2.58q.29-2.52,3.85-2.52t3.63,2.16a5.41,5.41,0,0,1-.28,1.62,10,10,0,0,0-.22,2c0,.12,0,.44.07,1v1.62c0,2.12-1.25,3.18-3.77,3.18a6.06,6.06,0,0,1-4.7-2.28,7.58,7.58,0,0,0-5.91-2.76c-2.76,0-4.13.8-4.13,2.4a1.81,1.81,0,0,0,1.35,1.77,48,48,0,0,0,7.12,1.35,33.86,33.86,0,0,1,6.95,1.62,9.21,9.21,0,0,1,3.66,2.58,7.67,7.67,0,0,1,1.78,5,9.14,9.14,0,0,1-4.16,7.62,17.17,17.17,0,0,1-10.44,3.06,20.35,20.35,0,0,1-11.39-3.36q0,2.94-3.56,2.94-3.86,0-3.85-2.64c0-.4,0-1,.14-1.86a17.48,17.48,0,0,0,.15-1.86c0-.36,0-.9-.11-1.62s-.11-1.26-.11-1.62q0-2.7,4-2.7a7,7,0,0,1,2.92.48,6.78,6.78,0,0,1,2.14,1.86,10,10,0,0,0,3.27,2.91,11,11,0,0,0,4.42.69q5.13,0,5.13-2.7,0-1.86-4.13-2.58l-4.13-.72a36.3,36.3,0,0,1-7.16-1.8,7.07,7.07,0,0,1-3.31-2.85,8.27,8.27,0,0,1-1.21-4.47,8.94,8.94,0,0,1,3.52-7.32A14.33,14.33,0,0,1,338.15,171.86Z"/><path class="cls-2" d="M375.47,180.92v2.46l-.07,3.72-.14,4c-.05,1.32-.07,1.86-.07,1.62q0,3.54,2.7,3.54c1.71,0,2.57-1.06,2.57-3.18a3.08,3.08,0,0,0-.07-.72v-.78a3.75,3.75,0,0,1-.07-.6q0-3.24,3.84-3.24,4.48,0,4.49,6.06a9,9,0,0,1-3.35,7.41Q382,203.9,376,203.9q-11.75,0-11.75-10.44,0-1.68.18-5t.18-5v-1.92a3.5,3.5,0,0,0-.32-1.89c-.22-.26-.73-.39-1.54-.39h-1.13a3,3,0,0,1-2.21-.87,3.08,3.08,0,0,1-.86-2.25,3.44,3.44,0,0,1,.89-2.37,2.76,2.76,0,0,1,2.1-1h1.36c1.14,0,1.8-.28,2-.84a4.38,4.38,0,0,0,.22-1.62V167.3a3.06,3.06,0,0,1,1.31-2.88,10.31,10.31,0,0,1,4.81-.78,6.57,6.57,0,0,1,3.38.6c.6.4.89,1.28.89,2.64v3.24a3.58,3.58,0,0,0,.4,2.16c.26.28.93.42,2,.42H383q4.2,0,4.2,3.3t-3.84,3.18h-5.84c-1,0-1.59.14-1.78.42A2.39,2.39,0,0,0,375.47,180.92Z"/><path class="cls-2" d="M406.67,172.7c1.33,0,2,.78,2,2.34V193.1c0,2,.45,3.06,1.36,3.06a6.31,6.31,0,0,0,1-.15,6.53,6.53,0,0,1,1.24-.15q3,0,3,3.12c0,2.76-1.41,4.14-4.21,4.14-.47,0-1.8-.1-4-.3q-2-.18-4.56-.18-1.29,0-3.78.24c-1.66.16-2.89.24-3.7.24a4.44,4.44,0,0,1-3.13-1.11,3.69,3.69,0,0,1-1.22-2.85q0-3.42,3.42-3.42l1.85.36a2.49,2.49,0,0,0,.5.06q1.29,0,1.29-3.36v-9.72c0-2.28-.41-3.42-1.22-3.42a7.88,7.88,0,0,0-1.28.3,7.12,7.12,0,0,1-1.14.12q-3.42,0-3.42-3.36a3.76,3.76,0,0,1,1.22-2.91,4.53,4.53,0,0,1,3.2-1.11,20.77,20.77,0,0,1,2.28.18,35.05,35.05,0,0,0,4,.3,26.25,26.25,0,0,0,3.13-.24C405.81,172.78,406.53,172.7,406.67,172.7Zm-4.06-2.28a6.84,6.84,0,0,1-4.56-1.62,4.86,4.86,0,0,1,0-7.71,7.43,7.43,0,0,1,9.19,0,4.91,4.91,0,0,1,0,7.74A6.89,6.89,0,0,1,402.61,170.42Z"/><path class="cls-2" d="M431.88,162.5c1.33,0,2,.74,2,2.22V193.1c0,2,.48,3,1.43,3a3.63,3.63,0,0,0,1-.12,4.41,4.41,0,0,1,1.14-.12q3.13,0,3.14,3.12,0,4.14-4.28,4.14l-5.41-.36c-1.09-.08-2.25-.12-3.49-.12a33.54,33.54,0,0,0-3.35.18c-2,.2-3.25.3-3.77.3a4.44,4.44,0,0,1-3.13-1.11,3.75,3.75,0,0,1-1.21-2.91q0-3.36,3.49-3.36a4.67,4.67,0,0,1,1.17.21,4.66,4.66,0,0,0,1.18.21c.8,0,1.21-1.12,1.21-3.36v-20c0-2.24-.41-3.36-1.21-3.36a4.64,4.64,0,0,0-1.29.24,4.31,4.31,0,0,1-1.14.12q-3.4,0-3.41-3.3a3.73,3.73,0,0,1,1.21-2.94,4.73,4.73,0,0,1,3.27-1.08c.38,0,1.19.06,2.42.18,1.62.16,2.83.24,3.64.24a14.87,14.87,0,0,0,2.85-.24A24.83,24.83,0,0,1,431.88,162.5Z"/><path class="cls-2" d="M457.8,162.5c1.33,0,2,.74,2,2.22V193.1c0,2,.47,3,1.42,3a3.75,3.75,0,0,0,1-.12,4.31,4.31,0,0,1,1.14-.12q3.13,0,3.13,3.12,0,4.14-4.27,4.14l-5.41-.36c-1.1-.08-2.26-.12-3.49-.12a33.39,33.39,0,0,0-3.35.18c-2,.2-3.25.3-3.78.3a4.45,4.45,0,0,1-3.13-1.11,3.75,3.75,0,0,1-1.21-2.91q0-3.36,3.49-3.36a4.73,4.73,0,0,1,1.18.21,4.6,4.6,0,0,0,1.17.21c.81,0,1.21-1.12,1.21-3.36v-20c0-2.24-.4-3.36-1.21-3.36a4.58,4.58,0,0,0-1.28.24,4.41,4.41,0,0,1-1.14.12q-3.42,0-3.42-3.3a3.73,3.73,0,0,1,1.21-2.94,4.75,4.75,0,0,1,3.28-1.08c.38,0,1.18.06,2.42.18q2.42.24,3.63.24a14.87,14.87,0,0,0,2.85-.24A25,25,0,0,1,457.8,162.5Z"/><path class="cls-2" d="M484.44,172.7c1.33,0,2,.78,2,2.34V193.1c0,2,.45,3.06,1.36,3.06a6.31,6.31,0,0,0,1-.15,6.53,6.53,0,0,1,1.25-.15q3,0,3,3.12,0,4.14-4.2,4.14-.72,0-4-.3-2-.18-4.56-.18c-.86,0-2.11.08-3.78.24s-2.89.24-3.7.24A4.44,4.44,0,0,1,469.7,202a3.68,3.68,0,0,1-1.21-2.85c0-2.28,1.13-3.42,3.41-3.42l1.86.36a2.41,2.41,0,0,0,.49.06q1.29,0,1.29-3.36v-9.72c0-2.28-.41-3.42-1.21-3.42a7.89,7.89,0,0,0-1.29.3,7.12,7.12,0,0,1-1.14.12c-2.28,0-3.41-1.12-3.41-3.36a3.75,3.75,0,0,1,1.21-2.91,4.53,4.53,0,0,1,3.2-1.11,20.77,20.77,0,0,1,2.28.18,35.05,35.05,0,0,0,4,.3,26.25,26.25,0,0,0,3.13-.24C483.58,172.78,484.3,172.7,484.44,172.7Zm-4.06-2.28a6.84,6.84,0,0,1-4.56-1.62,4.85,4.85,0,0,1,0-7.71,7.42,7.42,0,0,1,9.18,0,4.91,4.91,0,0,1,0,7.74A6.89,6.89,0,0,1,480.38,170.42Z"/><path class="cls-2" d="M509.94,174.38v2.88a17.21,17.21,0,0,1,12.39-5.4q7.41,0,10.47,4.68,1.63,2.4,1.64,7.56v9c0,2,.47,3.06,1.42,3.06a4.86,4.86,0,0,0,1.07-.18,3.56,3.56,0,0,1,1.07-.12q3.13,0,3.13,3.12,0,4.14-4.27,4.14-1.14,0-3.42-.24t-3.42-.24a31.42,31.42,0,0,0-3.77.24,28.61,28.61,0,0,1-3.28.24q-4.2,0-4.2-3.66,0-3.18,2.92-3.36,1.92-.12,1.92-1.5v-8.4c0-2.32-.36-3.95-1.07-4.89a4.27,4.27,0,0,0-3.63-1.41,7,7,0,0,0-4.81,1.68,5.45,5.45,0,0,0-1.89,4.26v6.24a10.32,10.32,0,0,0,.29,3.27c.19.38.74.63,1.64.75,1.71.2,2.56,1.28,2.56,3.24q0,3.78-3.77,3.78a23.79,23.79,0,0,1-2.64-.18,38.09,38.09,0,0,0-3.91-.3c-.86,0-2.13.08-3.82.24s-2.95.24-3.81.24q-4.49,0-4.48-4,0-3.36,3.42-3.36A4.6,4.6,0,0,1,499,196a4.15,4.15,0,0,0,1.07.21c.8,0,1.21-1.12,1.21-3.36v-9.72c0-2.28-.41-3.42-1.21-3.42a5.65,5.65,0,0,0-1.11.21,5.44,5.44,0,0,1-1.24.21q-3.42,0-3.42-3.3a3.92,3.92,0,0,1,1.17-2.94,4.28,4.28,0,0,1,3.1-1.14,19.62,19.62,0,0,1,2.42.3,11.34,11.34,0,0,0,1.85.18,29.17,29.17,0,0,0,2.92-.24q2.07-.24,2.28-.24C509.29,172.7,509.94,173.26,509.94,174.38Z"/><path class="cls-2" d="M561.78,171.86l2.71.12a5.74,5.74,0,0,1,2.42-4.77,10.84,10.84,0,0,1,6.48-1.71,10.14,10.14,0,0,1,5.59,1.44,4.25,4.25,0,0,1,2.25,3.66,3.22,3.22,0,0,1-1.18,2.52,4.34,4.34,0,0,1-2.95,1,3.37,3.37,0,0,1-2.92-1.26l-.72-1a1,1,0,0,0-.92-.42q-1.5,0-1.5,1.74a2,2,0,0,0,.07.6q6.84,2,6.84,8.16a8.57,8.57,0,0,1-4.24,7.44q-4.23,2.82-11.14,2.82a22.85,22.85,0,0,1-7.62-1.38l-.36-.12a2,2,0,0,0-1.07,1.56q0,2,3.42,2.52a44.41,44.41,0,0,0,5.2.18h.78l4.56-.06q6.84-.06,10.54,2.22a7.21,7.21,0,0,1,3.71,6.48q0,5.34-5.56,8.43t-15.1,3.09q-8.55,0-13.71-2.67t-5.16-7.11q0-4.8,7.19-6.66-5.7-1-5.7-5.46a5.23,5.23,0,0,1,1.25-3.69,11.73,11.73,0,0,1,4.45-2.55,7.13,7.13,0,0,1-2.56-5.28c0-2.8,1.43-5.15,4.31-7A18.87,18.87,0,0,1,561.78,171.86ZM560.93,202c-1.14,0-2.56-.08-4.27-.24q-3.21,1.08-3.21,2.76,0,3.18,8.41,3.18c5.64,0,8.47-1.06,8.47-3.18q0-2.58-5.55-2.58l-1.93.06Zm1.42-23.88a5,5,0,0,0-3.31,1.11,3.49,3.49,0,0,0-1.32,2.79,3.58,3.58,0,0,0,1.32,2.82,5.39,5.39,0,0,0,6.63,0,3.54,3.54,0,0,0,1.31-2.76,3.6,3.6,0,0,0-1.31-2.82A4.9,4.9,0,0,0,562.35,178.16Z"/><path class="cls-2" d="M618.05,185.3q0,2.52-.75,3.36a4,4,0,0,1-3,.84H597a3.69,3.69,0,0,0-1.61.21c-.21.14-.32.49-.32,1A5.33,5.33,0,0,0,597,195a7.08,7.08,0,0,0,4.84,1.68,9.41,9.41,0,0,0,6.12-2.76,6.91,6.91,0,0,1,4.7-1.92,5.5,5.5,0,0,1,3.46,1,3.13,3.13,0,0,1,1.32,2.58q0,3.48-4.53,5.91a23,23,0,0,1-11,2.43q-8.48,0-13.53-4.32a14.4,14.4,0,0,1-5.06-11.52,15,15,0,0,1,5-11.73q5-4.47,13.14-4.47,7.56,0,12.08,3.66A12,12,0,0,1,618.05,185.3Zm-22.65-3a.88.88,0,0,0,.21.6c.15.16.64.24,1.5.24h8a2.43,2.43,0,0,0,1.31-.21.93.93,0,0,0,.25-.75,3.32,3.32,0,0,0-1.64-2.73,6.43,6.43,0,0,0-3.84-1.17,6.11,6.11,0,0,0-4.63,1.86A3.37,3.37,0,0,0,595.4,182.3Z"/><path class="cls-2" d="M636.92,174.56v5.1a12,12,0,0,1,2.35-4.5q3.13-3.3,8.76-3.3a10.24,10.24,0,0,1,6.59,2.13,6.48,6.48,0,0,1,2.67,5.25,5.29,5.29,0,0,1-1.71,4,6.14,6.14,0,0,1-4.35,1.59,5.36,5.36,0,0,1-3.38-1.08,3.26,3.26,0,0,1-1.39-2.64,5,5,0,0,1,.93-2.34H647a6.27,6.27,0,0,0-6.41,4.26,22.42,22.42,0,0,0-1.28,7.86v2.28a5.51,5.51,0,0,0,.43,2.76,1.19,1.19,0,0,0,1,.36,9.22,9.22,0,0,0,1.78-.24,9.15,9.15,0,0,1,1.71-.24,4,4,0,0,1,2.68.93A2.86,2.86,0,0,1,648,199a3.64,3.64,0,0,1-1.39,2.91,5.07,5.07,0,0,1-3.38,1.17q-1.08,0-4-.3c-1.19-.12-2.68-.18-4.49-.18s-3.39.06-4.77.18q-3.42.3-4.2.3-4.43,0-4.42-4,0-3.36,3.42-3.36A4.54,4.54,0,0,1,626,196a4.22,4.22,0,0,0,1.07.21c.81,0,1.21-1.12,1.21-3.36v-9.72c0-2.28-.4-3.42-1.21-3.42a5.47,5.47,0,0,0-1.1.21,5.5,5.5,0,0,1-1.25.21q-3.42,0-3.42-3.3a3.9,3.9,0,0,1,4.06-4.08,11.67,11.67,0,0,1,2,.24,13.13,13.13,0,0,0,2.42.24,18.61,18.61,0,0,0,2.49-.24,18.55,18.55,0,0,1,2.42-.24C636.18,172.7,636.92,173.32,636.92,174.56Z"/><path class="cls-3" d="M265.87,329.07a7.34,7.34,0,0,1,5.91,2.55,2.58,2.58,0,0,1,.48-1.72,2.11,2.11,0,0,1,1.57-.47c1.54,0,2.3.65,2.3,1.94,0,.36,0,.89-.1,1.59a14.34,14.34,0,0,0-.11,1.58,8.1,8.1,0,0,0,.07.94,8,8,0,0,1,.07.93v.18c0,1.42-.81,2.12-2.45,2.12a2.18,2.18,0,0,1-2.44-1.72l-.18-.76c-.36-1.56-1.64-2.34-3.82-2.34s-3.1.72-3.1,2.16a1.61,1.61,0,0,0,.67,1.51,13.5,13.5,0,0,0,3.37.94c3,.6,5.22,1.5,6.58,2.7a6.18,6.18,0,0,1,2.06,4.9,7.76,7.76,0,0,1-2.49,5.95,8.9,8.9,0,0,1-6.33,2.33,9.87,9.87,0,0,1-6.16-2.31,1.91,1.91,0,0,1-2.16,2,2.06,2.06,0,0,1-2.34-2.31,13.63,13.63,0,0,1,.11-1.62,16.4,16.4,0,0,0,.14-1.76c0-.26,0-.67-.09-1.22s-.09-1-.09-1.23a1.85,1.85,0,0,1,.78-1.53,3.2,3.2,0,0,1,2-.59,2.74,2.74,0,0,1,2,.59,4.17,4.17,0,0,1,.84,2.22c.27,1.8,1.63,2.7,4.11,2.7a3.76,3.76,0,0,0,2.41-.72,2.3,2.3,0,0,0,.9-1.88,2,2,0,0,0-.79-1.78,14.83,14.83,0,0,0-3.78-1.24l-2.38-.58a8,8,0,0,1-2.88-1.4,6.2,6.2,0,0,1-2.59-5.22,7,7,0,0,1,2.21-5.38A8.07,8.07,0,0,1,265.87,329.07Z"/><path class="cls-3" d="M288.45,354.34a9.14,9.14,0,0,1-6.9-2.52,9.79,9.79,0,0,1-2.43-7.09,9.91,9.91,0,0,1,2.41-7.08,8.91,8.91,0,0,1,6.77-2.53,9,9,0,0,1,6.75,2.52,9.43,9.43,0,0,1,2.47,6.91,10.2,10.2,0,0,1-2.4,7.2A8.61,8.61,0,0,1,288.45,354.34Zm-.15-14.8a2.87,2.87,0,0,0-2.5,1.39,8.33,8.33,0,0,0,0,7.61,2.91,2.91,0,0,0,2.57,1.37c2.24,0,3.35-1.73,3.35-5.18S290.58,339.54,288.3,339.54Z"/><path class="cls-3" d="M313.36,352.72v-1.4a7.64,7.64,0,0,1-6.3,3,6.42,6.42,0,0,1-3-.72,4.36,4.36,0,0,1-2-1.93,11.38,11.38,0,0,1-.59-4.44v-5.58a3.8,3.8,0,0,0-.16-1.48.64.64,0,0,0-.53-.21h-.36a1.48,1.48,0,0,1-.36,0q-1.62,0-1.62-2c0-1.61.74-2.41,2.2-2.41a10.13,10.13,0,0,1,1.33.14,9.1,9.1,0,0,0,1.33.15,8.39,8.39,0,0,0,1.3-.15,9.48,9.48,0,0,1,1.3-.14c.71,0,1.08.5,1.08,1.51l.07,9.58c.07,1.87.81,2.81,2.23,2.81q3.24,0,3.24-4.5v-3.35c0-1.23-.28-1.84-.83-1.84a2.35,2.35,0,0,0-.56.09,2.21,2.21,0,0,1-.55.09c-.89,0-1.34-.63-1.34-1.91,0-1.65.68-2.48,2-2.48a11.9,11.9,0,0,1,1.48.14,10.24,10.24,0,0,0,1.44.15c.09,0,.61-.06,1.54-.18a11.34,11.34,0,0,1,1.19-.11c.77,0,1.15.43,1.15,1.3v10.94q0,1.8.69,1.8a1.51,1.51,0,0,0,.5-.07,2,2,0,0,1,.61-.07c1,0,1.55.62,1.55,1.87,0,1.65-.71,2.48-2.12,2.48a9,9,0,0,1-1.28-.14,8,8,0,0,0-1.28-.15,6.82,6.82,0,0,0-1.17.15,7.56,7.56,0,0,1-1.17.14C313.71,353.87,313.36,353.49,313.36,352.72Z"/><path class="cls-3" d="M329.85,336.63v1.73a8.1,8.1,0,0,1,6.26-3.24q3.75,0,5.29,2.8a9.51,9.51,0,0,1,.83,4.54v5.4c0,1.22.24,1.84.72,1.84a2.2,2.2,0,0,0,.54-.11,1.5,1.5,0,0,1,.54-.07c1.05,0,1.58.62,1.58,1.87,0,1.65-.72,2.48-2.16,2.48a16.75,16.75,0,0,1-1.73-.14,14.51,14.51,0,0,0-1.72-.15,13,13,0,0,0-1.91.15,13,13,0,0,1-1.66.14,1.91,1.91,0,0,1-2.12-2.19c0-1.28.49-1.95,1.48-2,.64-.05,1-.35,1-.9v-5a5.76,5.76,0,0,0-.54-2.93,2,2,0,0,0-1.84-.85,3.22,3.22,0,0,0-2.43,1,3.54,3.54,0,0,0-.95,2.55v3.75a7.24,7.24,0,0,0,.14,2c.1.23.37.38.83.45.86.12,1.3.77,1.3,1.94,0,1.52-.64,2.27-1.91,2.27a8.86,8.86,0,0,1-1.33-.11,16.37,16.37,0,0,0-2-.18,18,18,0,0,0-1.92.15c-.85.09-1.5.14-1.93.14-1.51,0-2.26-.8-2.26-2.41,0-1.34.57-2,1.72-2a2.08,2.08,0,0,1,.65.13,2,2,0,0,0,.54.13c.41,0,.61-.68.61-2v-5.83c0-1.37-.2-2.06-.61-2.06a2.94,2.94,0,0,0-.56.13,2.12,2.12,0,0,1-.63.13c-1.15,0-1.72-.66-1.72-2a2.59,2.59,0,0,1,.59-1.77,2,2,0,0,1,1.57-.68,8.41,8.41,0,0,1,1.22.18,5,5,0,0,0,.94.11,12,12,0,0,0,1.47-.15l1.15-.14A.88.88,0,0,1,329.85,336.63Z"/><path class="cls-3" d="M354.25,335.37a7.29,7.29,0,0,1,5,2.12V334.9c0-.86-.3-1.3-.9-1.3-.14,0-.43,0-.86.08a3.4,3.4,0,0,1-.94.14,1.42,1.42,0,0,1-1.15-.58,2.21,2.21,0,0,1-.47-1.44c0-1.53.82-2.3,2.45-2.3a10.63,10.63,0,0,1,1.15,0c1,.09,1.61.14,1.95.14s.77,0,1.36-.07,1.05-.07,1.34-.07a1.53,1.53,0,0,1,1.24.41,2.5,2.5,0,0,1,.34,1.53v16.38c0,1.22.23,1.84.68,1.84a1.9,1.9,0,0,0,.55-.11,1.76,1.76,0,0,1,.57-.07c1,0,1.55.61,1.55,1.83a2.9,2.9,0,0,1-.54,1.82,1.72,1.72,0,0,1-1.44.7H366l-1.26-.21a7.45,7.45,0,0,0-1.22-.08,13,13,0,0,0-1.55.08l-1,.1c-.74,0-1.12-.43-1.12-1.29v-1.33a6.1,6.1,0,0,1-5.61,3.2,6.67,6.67,0,0,1-5.46-2.72,10.73,10.73,0,0,1-2.14-6.86,10.43,10.43,0,0,1,2.11-6.8A6.75,6.75,0,0,1,354.25,335.37Zm1.26,4.53a2.54,2.54,0,0,0-2.18,1.26,6.7,6.7,0,0,0-.95,3.42v.47a6.09,6.09,0,0,0,.85,3.46,2.61,2.61,0,0,0,2.28,1.26,3.05,3.05,0,0,0,2.58-1.37,6.06,6.06,0,0,0,1-3.64,5.87,5.87,0,0,0-1-3.52A3.07,3.07,0,0,0,355.51,339.9Z"/><path class="cls-3" d="M396.12,343.18a3.7,3.7,0,0,1-.38,2,1.8,1.8,0,0,1-1.49.5h-8.79a1.52,1.52,0,0,0-.81.13c-.1.08-.16.29-.16.63a3.54,3.54,0,0,0,1,2.52,3.27,3.27,0,0,0,2.45,1,4.46,4.46,0,0,0,3.1-1.65,3.2,3.2,0,0,1,2.37-1.15,2.47,2.47,0,0,1,1.75.61,2,2,0,0,1,.67,1.55,4.2,4.2,0,0,1-2.29,3.54,10.14,10.14,0,0,1-5.56,1.46,9.15,9.15,0,0,1-6.84-2.59,9.41,9.41,0,0,1-2.56-6.91,9.83,9.83,0,0,1,2.54-7,8.72,8.72,0,0,1,6.64-2.68,8.43,8.43,0,0,1,6.1,2.19A7.75,7.75,0,0,1,396.12,343.18Zm-11.45-1.8a.61.61,0,0,0,.11.36c.07.1.32.14.76.14h4a1.09,1.09,0,0,0,.66-.12.62.62,0,0,0,.13-.45,2.1,2.1,0,0,0-.83-1.64,3,3,0,0,0-4.28.41A2.17,2.17,0,0,0,384.67,341.38Z"/><path class="cls-3" d="M409.12,333.6a2.06,2.06,0,0,1,.28-.93,1.66,1.66,0,0,0-.72-.15c-1.17,0-1.76.57-1.76,1.69v.73c0,.45.26.68.79.68h1.08c1.39,0,2.09.65,2.09,1.94a1.77,1.77,0,0,1-2,2h-1.19c-.53,0-.79.31-.79.94v7.23a8.41,8.41,0,0,0,0,1.26c.07.51.32.76.75.76.1,0,.31,0,.65-.07a2.82,2.82,0,0,1,.83-.11c1.13,0,1.69.66,1.69,2a2.29,2.29,0,0,1-.61,1.65,2,2,0,0,1-1.55.65l-2.2-.21c-.48-.05-1.17-.08-2.08-.08a22.63,22.63,0,0,0-2.45.11c-1,.12-1.67.18-1.91.18a2.11,2.11,0,0,1-1.62-.66,2.49,2.49,0,0,1-.61-1.75c0-1.34.59-2,1.76-2a2.14,2.14,0,0,1,.65.13,2.12,2.12,0,0,0,.5.13c.44,0,.65-.68.65-2v-7.16c0-.51-.11-.8-.32-.87a1.1,1.1,0,0,0-.47-.07h-.86a1.67,1.67,0,0,1-1.91-1.87c0-1.39.66-2.09,2-2.09h.65a1.12,1.12,0,0,0,.79-.2,1.69,1.69,0,0,0,.21-.95,5,5,0,0,1,2-3.93,7.83,7.83,0,0,1,4.95-1.44,7.33,7.33,0,0,1,4.15,1,3.18,3.18,0,0,1,1.57,2.77,2.32,2.32,0,0,1-.79,1.8,2.84,2.84,0,0,1-2,.72,2.41,2.41,0,0,1-1.6-.52A1.65,1.65,0,0,1,409.12,333.6Z"/><path class="cls-3" d="M424.09,333.6a2.09,2.09,0,0,1,.29-.93,1.72,1.72,0,0,0-.72-.15c-1.18,0-1.76.57-1.76,1.69v.73c0,.45.26.68.79.68h1.08c1.39,0,2.09.65,2.09,1.94a1.77,1.77,0,0,1-2,2h-1.19c-.53,0-.79.31-.79.94v7.23a12,12,0,0,0,0,1.26c.07.51.33.76.76.76l.65-.07a2.8,2.8,0,0,1,.82-.11c1.13,0,1.7.66,1.7,2a2.3,2.3,0,0,1-.62,1.65,2,2,0,0,1-1.54.65l-2.2-.21c-.48-.05-1.18-.08-2.09-.08a22.76,22.76,0,0,0-2.45.11c-1,.12-1.67.18-1.9.18a2.08,2.08,0,0,1-1.62-.66,2.49,2.49,0,0,1-.62-1.75c0-1.34.59-2,1.77-2a2.14,2.14,0,0,1,.65.13,2,2,0,0,0,.5.13c.43,0,.65-.68.65-2v-7.16q0-.76-.33-.87a1,1,0,0,0-.46-.07h-.87a1.67,1.67,0,0,1-1.91-1.87c0-1.39.66-2.09,2-2.09h.65a1.1,1.1,0,0,0,.79-.2,1.67,1.67,0,0,0,.22-.95,5,5,0,0,1,2-3.93,7.87,7.87,0,0,1,4.95-1.44,7.35,7.35,0,0,1,4.16,1,3.2,3.2,0,0,1,1.57,2.77,2.33,2.33,0,0,1-.8,1.8,2.81,2.81,0,0,1-2,.72,2.42,2.42,0,0,1-1.6-.52A1.65,1.65,0,0,1,424.09,333.6Z"/><path class="cls-3" d="M444.58,343.18a3.7,3.7,0,0,1-.38,2,1.81,1.81,0,0,1-1.5.5h-8.78a1.52,1.52,0,0,0-.81.13c-.11.08-.16.29-.16.63a3.5,3.5,0,0,0,1,2.52,3.26,3.26,0,0,0,2.45,1,4.42,4.42,0,0,0,3.09-1.65,3.22,3.22,0,0,1,2.38-1.15,2.49,2.49,0,0,1,1.75.61,2,2,0,0,1,.66,1.55,4.18,4.18,0,0,1-2.28,3.54,10.18,10.18,0,0,1-5.57,1.46,9.18,9.18,0,0,1-6.84-2.59,9.44,9.44,0,0,1-2.55-6.91,9.82,9.82,0,0,1,2.53-7,8.74,8.74,0,0,1,6.65-2.68,8.45,8.45,0,0,1,6.1,2.19A7.79,7.79,0,0,1,444.58,343.18Zm-11.45-1.8a.55.55,0,0,0,.11.36c.07.1.32.14.75.14h4a1.13,1.13,0,0,0,.67-.12.67.67,0,0,0,.13-.45,2.1,2.1,0,0,0-.83-1.64A2.9,2.9,0,0,0,436,339a2.87,2.87,0,0,0-2.34,1.11A2.2,2.2,0,0,0,433.13,341.38Z"/><path class="cls-3" d="M455,330.87v12.24l1.69-1.48.83-.72c.64-.55,1-1,1-1.29a.78.78,0,0,0-.33-.58l-.57-.54a1.56,1.56,0,0,1-.47-1.22c0-1.11.62-1.66,1.87-1.66.43,0,1.09.05,2,.14a19.63,19.63,0,0,0,2,.15c.69,0,1.56-.05,2.59-.15l1.62-.14a1.89,1.89,0,0,1,2.12,2.16c0,1.39-.55,2.09-1.65,2.09a3.7,3.7,0,0,1-.79-.11,3.82,3.82,0,0,0-.72-.11,3.4,3.4,0,0,0-1.59.79l-1.51,1.12c-.62.46-.94.82-.94,1.08a.74.74,0,0,0,.15.4l.32.46,2.81,4.43c.77,1.23,1.38,1.84,1.84,1.84a2.22,2.22,0,0,0,.57-.11l.76-.11c1.08,0,1.62.69,1.62,2.05,0,1.52-.71,2.27-2.13,2.27a16.4,16.4,0,0,1-1.72-.14,14.81,14.81,0,0,0-1.73-.15,12,12,0,0,0-1.91.15,10.92,10.92,0,0,1-1.37.14,1.66,1.66,0,0,1-1.26-.58,1.9,1.9,0,0,1-.54-1.36,3.18,3.18,0,0,1,.43-1.26,1.21,1.21,0,0,0,.26-.69,3.63,3.63,0,0,0-.8-1.54l-1.18-1.66c-.46-.62-.74-.94-.83-.94-.24,0-.61.23-1.12.69L455,347.71v.73c0,.91.19,1.36.57,1.36a2.44,2.44,0,0,0,.61-.1,2.3,2.3,0,0,1,.65-.11c1,0,1.48.57,1.48,1.73,0,1.7-.69,2.55-2.05,2.55a13.49,13.49,0,0,1-1.55-.14,23.29,23.29,0,0,0-3.06-.15,14,14,0,0,0-1.88.11,13.78,13.78,0,0,1-1.65.18,2.07,2.07,0,0,1-1.59-.66,2.48,2.48,0,0,1-.61-1.71c0-1.37.59-2.06,1.77-2.06,0,0,.27.08.9.22a1.29,1.29,0,0,0,.25,0c.43,0,.65-.68.65-2v-12c0-1.34-.21-2-.61-2a1.86,1.86,0,0,0-.65.14,1.87,1.87,0,0,1-.58.07c-1.15,0-1.73-.66-1.73-2,0-1.61.77-2.41,2.31-2.41a6.63,6.63,0,0,1,1,.07,12.49,12.49,0,0,0,1.8.18,14.59,14.59,0,0,0,1.59-.14,11,11,0,0,1,1.18-.11C454.63,329.5,455,330,455,330.87Z"/><path class="cls-3" d="M478.6,340.55V342l0,2.23-.07,2.41c0,.79,0,1.12,0,1,0,1.42.46,2.13,1.37,2.13s1.3-.64,1.3-1.91a2.08,2.08,0,0,0,0-.43V347a2.23,2.23,0,0,1,0-.36,1.72,1.72,0,0,1,1.95-1.94c1.51,0,2.26,1.21,2.26,3.63a5.83,5.83,0,0,1-1.69,4.45,6.62,6.62,0,0,1-4.71,1.6q-5.94,0-5.94-6.26c0-.68,0-1.68.09-3s.09-2.35.09-3v-1.15a2.58,2.58,0,0,0-.16-1.14c-.11-.15-.37-.23-.78-.23h-.57a1.41,1.41,0,0,1-1.12-.52,2,2,0,0,1-.43-1.35,2.3,2.3,0,0,1,.45-1.43,1.31,1.31,0,0,1,1.06-.59h.68c.58,0,.91-.17,1-.5a3.19,3.19,0,0,0,.11-1v-1.76a2,2,0,0,1,.66-1.73,4.56,4.56,0,0,1,2.44-.47,2.85,2.85,0,0,1,1.7.36c.31.24.46.77.46,1.59v1.94a2.61,2.61,0,0,0,.19,1.3c.13.17.48.25,1,.25h2.59q2.13,0,2.13,2a1.71,1.71,0,0,1-2,1.91h-2.95c-.51,0-.81.08-.9.25A1.62,1.62,0,0,0,478.6,340.55Z"/><path class="cls-3" d="M276.28,407.71l3,13.14,3.13-12.6a6.11,6.11,0,0,1,.88-2.18,1.69,1.69,0,0,1,1.39-.59,24,24,0,0,1,2.41.18,24.23,24.23,0,0,0,2.45.18c.58,0,2-.1,4.28-.29.65-.05,1.13-.07,1.44-.07a2.6,2.6,0,0,1,1.91.7,2.89,2.89,0,0,1,.16,3.62,1.72,1.72,0,0,1-1.38.68,4.09,4.09,0,0,1-.9-.13,4.72,4.72,0,0,0-.83-.12c-.65,0-1,.8-1,2.41v10c0,1.63.31,2.45.93,2.45a4.12,4.12,0,0,0,.87-.13,4.61,4.61,0,0,1,.86-.12,1.81,1.81,0,0,1,1.41.68,2.87,2.87,0,0,1-.15,3.62,2.6,2.6,0,0,1-1.91.7,20.73,20.73,0,0,1-2.3-.21,15.68,15.68,0,0,0-2.16-.15,16.42,16.42,0,0,0-2,.18,16.3,16.3,0,0,1-2,.18,2.28,2.28,0,0,1-1.75-.72,2.7,2.7,0,0,1-.66-1.91c0-1.48.49-2.23,1.47-2.23a1,1,0,0,1,.33,0h.25l.18,0c.38,0,.61-.26.68-.79a11.69,11.69,0,0,0,0-1.22V409.44l-5,17.71c-.43,1.53-1.14,2.3-2.12,2.3h-2.3c-1,0-1.62-.68-2-2.05l-4.79-18V423c0,1.13.11,1.76.32,1.91a.58.58,0,0,0,.4.1l.21,0h.22a.89.89,0,0,1,.32,0c1,0,1.44.73,1.44,2.2a2.8,2.8,0,0,1-.64,1.94,2.23,2.23,0,0,1-1.73.72,8.81,8.81,0,0,1-1.3-.11l-1.26-.18c-.5,0-1.08-.07-1.73-.07a16.63,16.63,0,0,0-2.05.11l-2.23.29a2.42,2.42,0,0,1-1.84-.76,2.65,2.65,0,0,1-.72-1.91,2.61,2.61,0,0,1,.56-1.71,1.78,1.78,0,0,1,1.42-.66,4.33,4.33,0,0,1,.85.12,3.81,3.81,0,0,0,.85.13c.48,0,.78-.31.9-.94a11,11,0,0,0,.07-1.51v-10a10.26,10.26,0,0,0-.07-1.48q-.18-.93-.9-.93a4.33,4.33,0,0,0-.85.12,4,4,0,0,1-.88.13,1.74,1.74,0,0,1-1.39-.68,2.62,2.62,0,0,1-.56-1.7,2.34,2.34,0,0,1,2.67-2.62q.85,0,2.88.18c1.34.12,2.35.18,3,.18a28.88,28.88,0,0,0,3.39-.22,15.34,15.34,0,0,1,1.87-.14,1.56,1.56,0,0,1,1.26.43A4.8,4.8,0,0,1,276.28,407.71Z"/><path class="cls-3" d="M313.43,428.62v-1.4a7.59,7.59,0,0,1-6.3,3,6.38,6.38,0,0,1-3-.72,4.34,4.34,0,0,1-2-1.92,11.23,11.23,0,0,1-.6-4.45v-5.58a3.51,3.51,0,0,0-.16-1.47.59.59,0,0,0-.52-.22h-.36a1.36,1.36,0,0,1-.36,0q-1.62,0-1.62-2c0-1.61.73-2.42,2.2-2.42a9.1,9.1,0,0,1,1.33.15,10.13,10.13,0,0,0,1.33.14,9.48,9.48,0,0,0,1.3-.14,8.17,8.17,0,0,1,1.29-.15c.72,0,1.08.51,1.08,1.52l.07,9.57c.08,1.87.82,2.81,2.24,2.81q3.24,0,3.24-4.5v-3.35c0-1.22-.28-1.83-.83-1.83a2.28,2.28,0,0,0-.56.09,2.28,2.28,0,0,1-.56.09c-.89,0-1.33-.64-1.33-1.91,0-1.66.67-2.49,2-2.49a10.57,10.57,0,0,1,1.47.15,11.92,11.92,0,0,0,1.44.14c.1,0,.61-.06,1.55-.18a11.12,11.12,0,0,1,1.19-.11c.77,0,1.15.44,1.15,1.3v10.94c0,1.2.23,1.8.68,1.8a1.57,1.57,0,0,0,.51-.07,2,2,0,0,1,.61-.07c1,0,1.55.62,1.55,1.87q0,2.49-2.13,2.49a8,8,0,0,1-1.27-.15,9.11,9.11,0,0,0-1.28-.14,7.43,7.43,0,0,0-1.17.14,6.82,6.82,0,0,1-1.17.15C313.78,429.78,313.43,429.39,313.43,428.62Z"/><path class="cls-3" d="M329.6,411a7.21,7.21,0,0,1,4.68,1.55c.09-1,.74-1.51,1.94-1.51s1.84.43,1.84,1.29a3.65,3.65,0,0,1-.15,1,7.73,7.73,0,0,0-.1,1.23q0,.1,0,.57v1a1.68,1.68,0,0,1-1.91,1.9,2.9,2.9,0,0,1-2.37-1.36,3.61,3.61,0,0,0-3-1.66c-1.39,0-2.09.48-2.09,1.44a1.07,1.07,0,0,0,.69,1.06,19.48,19.48,0,0,0,3.6.81,15.13,15.13,0,0,1,3.51,1,4.8,4.8,0,0,1,1.85,1.55,5.18,5.18,0,0,1,.9,3,5.82,5.82,0,0,1-2.11,4.57,7.74,7.74,0,0,1-5.27,1.83,9.18,9.18,0,0,1-5.76-2,1.57,1.57,0,0,1-1.8,1.76c-1.3,0-1.94-.53-1.94-1.58,0-.24,0-.61.07-1.12s.07-.87.07-1.11,0-.54-.05-1-.06-.75-.06-1c0-1.08.67-1.62,2-1.62a3,3,0,0,1,1.47.29,3.51,3.51,0,0,1,1.08,1.12,5.46,5.46,0,0,0,1.66,1.74,4.7,4.7,0,0,0,2.23.42c1.73,0,2.59-.54,2.59-1.62,0-.75-.69-1.26-2.08-1.55l-2.09-.43a16.09,16.09,0,0,1-3.62-1.08,3.79,3.79,0,0,1-1.67-1.71,5.71,5.71,0,0,1-.62-2.69,5.78,5.78,0,0,1,1.79-4.39A6.46,6.46,0,0,1,329.6,411Z"/><path class="cls-3" d="M348.5,411.52c.67,0,1,.47,1,1.41v10.83c0,1.23.22,1.84.68,1.84a2.64,2.64,0,0,0,.52-.09,2.79,2.79,0,0,1,.63-.09c1,0,1.51.62,1.51,1.87,0,1.66-.71,2.49-2.12,2.49-.24,0-.91-.06-2-.18a19.81,19.81,0,0,0-2.3-.11c-.43,0-1.07.05-1.91.14a17.43,17.43,0,0,1-1.87.15,2.08,2.08,0,0,1-1.59-.67,2.45,2.45,0,0,1-.61-1.71c0-1.37.58-2,1.73-2l.94.21a.81.81,0,0,0,.25,0c.43,0,.65-.67.65-2v-5.83c0-1.37-.21-2.05-.62-2.05a3.5,3.5,0,0,0-.64.18,3,3,0,0,1-.58.07c-1.15,0-1.73-.67-1.73-2a2.52,2.52,0,0,1,.61-1.75,2.12,2.12,0,0,1,1.63-.67,9.44,9.44,0,0,1,1.15.11,15,15,0,0,0,2,.18,12.23,12.23,0,0,0,1.59-.14Zm-2.05-1.36a3.16,3.16,0,0,1-2.31-1,3.11,3.11,0,0,1-1-2.3,3.28,3.28,0,1,1,3.28,3.28Z"/><path class="cls-3" d="M364.7,417.25a1.94,1.94,0,0,1,.36-1.08,3.14,3.14,0,0,0-1.84-.58,3.08,3.08,0,0,0-2.57,1.32,5.67,5.67,0,0,0-1,3.51,5.8,5.8,0,0,0,1,3.63,3.33,3.33,0,0,0,2.77,1.37,2.75,2.75,0,0,0,2.6-1.91,4.71,4.71,0,0,1,.86-1.51,2.39,2.39,0,0,1,1.58-.43,2.67,2.67,0,0,1,2,.74,2.5,2.5,0,0,1,.76,1.89,5.22,5.22,0,0,1-2.38,4.24,9.13,9.13,0,0,1-5.68,1.8,9,9,0,0,1-6.77-2.61,9.65,9.65,0,0,1-2.52-7,8.93,8.93,0,0,1,9.57-9.61,8.78,8.78,0,0,1,5.24,1.49,4.53,4.53,0,0,1,2.07,3.8,3,3,0,0,1-.93,2.32,3.39,3.39,0,0,1-2.42.89,3,3,0,0,1-2-.63A2,2,0,0,1,364.7,417.25Z"/></svg>
