<svg id="Layer_1" data-name="Layer 1" xmlns="http://www.w3.org/2000/svg" width="2999" height="504" viewBox="0 0 2999 504"><defs><style>.cls-1{fill:#ccc;}.cls-2{fill:#f2f2f2;}.cls-3{fill:gray;}.cls-4{fill:#4d4d4d;}.cls-5,.cls-6,.cls-7{fill:#b3b3b3;}.cls-5{opacity:0.5;}.cls-7{opacity:0.6;}.cls-8{fill:#666;}.cls-9{fill:#999;}.cls-10{fill:#fff;}.cls-11{fill:#ff7bac;}.cls-12{fill:#c69c6d;}.cls-13{fill:#738a00;}.cls-14{fill:#968a00;}.cls-15{fill:#3b7500;}.cls-16{fill:none;}</style></defs><title>skraldespand_sprite</title><path class="cls-1" d="M499.21,139.68l-4.89,242.65C494,395.91,361.54,423.26,267,385.6h.24c-5.16-.11-6-1-5.92-2.05l5.75-258.23a1.86,1.86,0,0,1,1.84-1.88h-.24C401,100.83,499.54,124.93,499.21,139.68Z"/><path class="cls-2" d="M281,202.59,278.7,304.2c-1,45-11.77,83.62-15.1,81.89l-19.55-.44c-3.53,6.27-7.71-5.11-7.57-11.21l5.41-243c.11-4.72,4-15.13,10.09-8.32l20.32.45C280.12,123.69,281,202.38,281,202.59Z"/><path class="cls-3" d="M247.32,121.85c6.69,6.5,17.28,89.82,10.08,132.44-12.15,71.87-8.78,132-16,131.85s-1.84-57.81-10.08-132.44C223.34,181.23,242,116.7,247.32,121.85Z"/><path class="cls-4" d="M273.34,123.64c-.41,0,1.05-.23,1.32.09,6.1,7.2,5,66.49,6.67,132.56,2.22,87.46-12.24,133.61-16.4,128.15,4.49-5.68,12.26-60.85,14.3-127.41C281.13,195.28,276.47,123.71,273.34,123.64Z"/><path class="cls-1" d="M497.42,130.2c17.89,3.23,17,51,15.27,129.53S501.06,387.57,492.3,391.45C454.66,408.11,476,337.53,477.79,259S455.28,122.59,497.42,130.2Z"/><path class="cls-5" d="M507.9,334.3l-3.37,25.76c-2.12,1.73,6.28,7.64-60.31,1.71l-15.63-.35c-5.15-.11-73,0-69.07-11.48l.33-14.74c2.88-12.46-1.89-8.68,24.4-9.73l38.53,2C475.16,330.24,509.11,327.11,507.9,334.3Z"/><path class="cls-6" d="M365,177.5l3.28-25.77c2.12-1.74-6.3-7.61,60.31-2l15.63.29c5.15.09,67.79.46,66,10.42L513,176.1c.67,14.55,2,8.57-29.83,9.11l-38.53-1.82C397.76,181.43,363.82,184.7,365,177.5Z"/><path class="cls-6" d="M362.41,293.54l3.28-25.77c2.12-1.74-6.31-7.61,60.3-1.95l15.63.28c5.15.1,64.19-1.84,69.12,11.2L510.46,292c.67,14.56,1.92,8.68-29.88,9.21L442,299.44C395.17,297.47,361.23,300.74,362.41,293.54Z"/><path class="cls-5" d="M512.77,209.42l-.29,28.05c-2.13,1.73,6.27,7.64-60.32,1.71l-15.63-.35c-5.14-.11-73,0-69.07-11.47l.33-14.75c2.88-12.46-1.89-8.68,29.91-9.08l38.53,2C483.1,207.65,512.77,209.42,512.77,209.42Z"/><path class="cls-7" d="M465.56,395.38l-58.75,9.43-12.55.29-3.5-.64c-.09,0,16.09.31,16,.36-3.87,2.71-53.86-1-61.83-2.89a.46.46,0,0,1,.05-.9l60.33-1.24s12,.26,12,.27l-12-.27,12,.27c.69,0,35.34-5.76,48.21-5.58A.45.45,0,0,1,465.56,395.38Z"/><path class="cls-6" d="M417.64,199.52l-12.56.28-3.49-.63"/><path class="cls-7" d="M420,115.7l48.85,6.64,22.25,7.16-1.1,2.76-29.05-6.21c-.22,0,12.85,3,12.64,3l-12.64-3-14.54-2.54-71.76-7.71.56-1.66,39.58,1.44A37.7,37.7,0,0,1,420,115.7Z"/><path class="cls-8" d="M460.35,152.52c-.12,0-60.47.11-60.59.1l-16.9-1.81"/><path class="cls-8" d="M507.37,334.66c-.11,0-60.46.11-60.58.1L429.89,333"/><path class="cls-8" d="M429.85,164.62l-60.59.1-16.9-1.81"/><path class="cls-8" d="M429.85,164.62l-60.59.1-16.9-1.81"/><path class="cls-8" d="M429.85,164.62l-60.59.1-16.9-1.81"/><path class="cls-9" d="M449.66,398.37c-.12,0-60.47.11-60.58.1l-16.91-1.81"/><path class="cls-3" d="M460.26,343.89c-.08,0-37.76,2.41-37.83,2.41l-10.49-3.45"/><path class="cls-10" d="M355.18,240.35c25.87-6.13,47.45,22.7,46.86,49.38A48.13,48.13,0,0,1,353,337c-26.47-.59-41.82-18.15-46.85-49.37C301.93,261.31,329.51,246.45,355.18,240.35Z"/><path class="cls-10" d="M343.76,214.82c-2.66-13.65,11.18-25,24.27-24.73s18.8,10.42,23.14,25.79c3.78,13.35-11.17,25-24.26,24.73S346.1,226.82,343.76,214.82Z"/><path d="M325,260.24c10.36.23,18.51,11.58,18.26,22.62s-8.93,18.08-19.2,19.57c-9.94,1.45-18.56-9.36-18.31-20.4S314.67,260,325,260.24Z"/><path class="cls-10" d="M311.39,276c1.87,0-.3,1.74-.35,3.88s2,3.94.17,3.89a3.92,3.92,0,0,1,.18-7.77Z"/><path d="M346.14,201.82c3.45.08,9.36,1,9.28,4.65s-1.7,9-6.44,8.19c-5.8-1-5.63-4.57-5.64-4C343.25,214.33,342.69,201.75,346.14,201.82Z"/><path class="cls-10" d="M346,206.26c.86,0,.51.61.48,1.68s.3,2.23-.57,2.21a2,2,0,0,1,.09-3.89Z"/><ellipse cx="404.73" cy="252.38" rx="2.59" ry="1.33" transform="translate(143.4 651.39) rotate(-88.72)"/><ellipse cx="405.05" cy="240.03" rx="1.9" ry="0.99" transform="matrix(0.02, -1, 1, 0.02, 156.06, 639.64)"/><path class="cls-10" d="M425.21,214.69c14.8,6,37.79,22.51,44,53.65,5.32,26.8-14.9,43.84-29.83,49.85-38.28,15.4-28.21-23.25-27.59-51.13S397.7,203.53,425.21,214.69Z"/><path class="cls-11" d="M444.44,229.56c5.85-2.81,23.74,16.93,27.21,27,5.78,16.81,6,29.28.18,32.09s-6.15-13.47-13.71-29.79S438.59,232.36,444.44,229.56Z"/><polygon class="cls-12" points="198.94 365.31 193.45 367.01 206.73 409.81 223.53 404.6 198.94 365.31"/><polygon class="cls-12" points="80.67 402.01 85.12 400.63 98.4 443.42 81.6 448.63 80.67 402.01"/><path class="cls-4" d="M99.1,370.59l11.07-9.15C121.58,351,241.53,323.34,244,331.39l5.87,18.92L25.36,420l-5.44-17.53C17.19,393.64,87.89,369.58,99.1,370.59Z"/><path class="cls-1" d="M249.73,349.76c2.58,8.32-43.79,37.6-107.59,49.9-59,11.39-114.37,28.09-116.95,19.77s45.59-30.67,107.59-49.91S247.15,341.43,249.73,349.76Z"/><path class="cls-12" d="M81.6,448.63l141.93-44,5.24,16.91a3.58,3.58,0,0,1-2.17,4.57L92,467.85a4.43,4.43,0,0,1-5.4-3.13Z"/><polygon class="cls-12" points="215.37 391.63 207.83 393.97 207.83 393.97 215.37 391.63 215.37 391.63"/><rect class="cls-12" x="161.77" y="426.61" width="7.9" transform="translate(450.42 784.95) rotate(162.76)"/><path class="cls-13" d="M238.15,184.13c-17.54-23.49-44.32-24.48-45-38.77-.48-9.56,11.3-12.87,9-20.48-3.47-11.3-30.83-8.35-36.24-21.64-2.85-7,1.36-16,5.57-16.64,5.29-.78,6.83,12.33,20.53,20.94,13.41,8.42,25.63,4.48,28.42,10.94,1.56,3.6-2.2,4.89-9,20.48-4.19,9.64-1.18,8.94.76,15.8.71,2.51,4.92,5.38,5.2,5.88,3.18,5.51,13.06,8.11,19,9.4,11.6,2.49,5.68-.08,14,2.93"/><path class="cls-14" d="M85.29,313.82c-58.24,9.45,12.31,27.47,39.86,2.73,22.83-20.5,110.71,7.77,108.58-23.41-2.95-43-21.1,15.71-63.67,5.29C154.26,294.57,124.65,307.44,85.29,313.82Z"/><path class="cls-15" d="M248.33,231.14c-32.43-9.22-29.65-35-51-30.88-14.25,2.74-21.1,15.32-32.13,15.6-16.39.41-7.62-27.23-26.69-28.05-10-.43-24.25,6.7-25.84,11-2,5.42,17.4,2.53,28.13,13,10.51,10.23,2.66,23.46,11.9,24,5.14.31,7.67-3.78,32.13-15.6,15.12-7.3,13.59-4.14,23.58-4.55,3.64-.15,7.28,3,8,3.1,7.76,1.25,10.09,10,11.07,15.4,1.89,10.47-1,5.56,2.16,12.61"/><ellipse cx="150.5" cy="253.63" rx="10.5" ry="2.78"/><ellipse cx="144.5" cy="250.58" rx="0.75" ry="3.06"/><ellipse cx="147.5" cy="251.13" rx="2.25" ry="3.61"/><ellipse cx="162.5" cy="150.63" rx="6.5" ry="2.78"/><ellipse cx="166.21" cy="147.58" rx="0.46" ry="3.06"/><ellipse cx="164.36" cy="148.13" rx="1.39" ry="3.61"/><ellipse cx="202" cy="323.19" rx="9" ry="2.81"/><ellipse cx="207.14" cy="320.09" rx="0.64" ry="3.09"/><ellipse cx="204.57" cy="320.66" rx="1.93" ry="3.66"/><line class="cls-16" x1="1200" y1="-1" x2="1199" y2="503"/><line class="cls-16" x1="1801" y1="1" x2="1800" y2="505"/><rect class="cls-16" x="1" y="1" width="598" height="504"/><rect class="cls-16" x="600" y="3" width="598" height="504"/><rect class="cls-16" x="1201" width="598" height="504"/><rect class="cls-16" x="1802" y="3" width="598" height="504"/><path class="cls-1" d="M1101.21,139.68l-4.89,242.65c-.3,13.58-132.78,40.93-227.34,3.27h.24c-5.16-.11-6-1-5.92-2.05l5.75-258.23a1.86,1.86,0,0,1,1.84-1.88h-.24C1003,100.83,1101.54,124.93,1101.21,139.68Z"/><path class="cls-2" d="M883,202.59,880.7,304.2c-1,45-11.77,83.62-15.1,81.89l-19.55-.44c-3.53,6.27-7.71-5.11-7.57-11.21l5.41-243c.11-4.72,4-15.13,10.09-8.32l20.32.45C882.12,123.69,883,202.38,883,202.59Z"/><path class="cls-3" d="M849.32,121.85c6.69,6.5,17.28,89.82,10.08,132.44-12.15,71.87-8.78,132-16,131.85s-1.84-57.81-10.08-132.44C825.34,181.23,844,116.7,849.32,121.85Z"/><path class="cls-4" d="M875.34,123.64c-.41,0,1-.23,1.32.09,6.1,7.2,5,66.49,6.67,132.56,2.22,87.46-12.24,133.61-16.4,128.15,4.49-5.68,12.26-60.85,14.3-127.41C883.13,195.28,878.47,123.71,875.34,123.64Z"/><path class="cls-1" d="M1099.42,130.2c17.89,3.23,17,51,15.27,129.53s-11.63,127.84-20.39,131.72c-37.64,16.66-16.26-53.92-14.51-132.5S1057.28,122.59,1099.42,130.2Z"/><path class="cls-5" d="M1109.9,334.3l-3.37,25.76c-2.12,1.73,6.28,7.64-60.31,1.71l-15.63-.35c-5.15-.11-73,0-69.07-11.48l.33-14.74c2.88-12.46-1.89-8.68,24.4-9.73l38.53,2C1077.16,330.24,1111.11,327.11,1109.9,334.3Z"/><path class="cls-6" d="M967,177.5l3.28-25.77c2.12-1.74-6.3-7.61,60.31-2l15.63.29c5.15.09,67.79.46,66,10.42L1115,176.1c.67,14.55,2,8.57-29.83,9.11l-38.53-1.82C999.76,181.43,965.82,184.7,967,177.5Z"/><path class="cls-6" d="M964.41,293.54l3.28-25.77c2.12-1.74-6.31-7.61,60.3-1.95l15.63.28c5.15.1,64.19-1.84,69.12,11.2l-.28,14.74c.67,14.56,1.92,8.68-29.88,9.21L1044,299.44C997.17,297.47,963.23,300.74,964.41,293.54Z"/><path class="cls-5" d="M1114.77,209.42l-.29,28.05c-2.13,1.73,6.27,7.64-60.32,1.71l-15.63-.35c-5.14-.11-73,0-69.07-11.47l.33-14.75c2.88-12.46-1.89-8.68,29.91-9.08l38.53,2C1085.1,207.65,1114.77,209.42,1114.77,209.42Z"/><path class="cls-7" d="M1067.56,395.38l-58.75,9.43-12.55.29-3.5-.64c-.09,0,16.09.31,16,.36-3.87,2.71-53.86-1-61.83-2.89a.46.46,0,0,1,0-.9l60.33-1.24s12,.26,12,.27l-12-.27,12,.27c.69,0,35.34-5.76,48.21-5.58A.45.45,0,0,1,1067.56,395.38Z"/><path class="cls-6" d="M1019.64,199.52l-12.56.28-3.49-.63"/><path class="cls-7" d="M1022,115.7l48.85,6.64,22.25,7.16-1.1,2.76-29-6.21c-.22,0,12.85,3,12.64,3l-12.64-3-14.54-2.54-71.76-7.71.56-1.66,39.58,1.44A37.7,37.7,0,0,1,1022,115.7Z"/><path class="cls-8" d="M1062.35,152.52c-.12,0-60.47.11-60.59.1l-16.9-1.81"/><path class="cls-8" d="M1109.37,334.66c-.11,0-60.46.11-60.58.1l-16.9-1.81"/><path class="cls-8" d="M1031.85,164.62l-60.59.1-16.9-1.81"/><path class="cls-8" d="M1031.85,164.62l-60.59.1-16.9-1.81"/><path class="cls-8" d="M1031.85,164.62l-60.59.1-16.9-1.81"/><path class="cls-9" d="M1051.66,398.37c-.12,0-60.47.11-60.58.1l-16.91-1.81"/><path class="cls-3" d="M1062.26,343.89c-.08,0-37.76,2.41-37.83,2.41l-10.49-3.45"/><path class="cls-10" d="M957.18,240.35c25.87-6.13,47.45,22.7,46.86,49.38A48.13,48.13,0,0,1,955,337c-26.47-.59-41.82-18.15-46.85-49.37C903.93,261.31,931.51,246.45,957.18,240.35Z"/><path class="cls-10" d="M945.76,214.82c-2.66-13.65,11.18-25,24.27-24.73s18.8,10.42,23.14,25.79c3.78,13.35-11.17,25-24.26,24.73S948.1,226.82,945.76,214.82Z"/><path d="M959,240.24c10.36.23,18.51,11.58,18.26,22.62s-8.93,18.08-19.2,19.57c-9.94,1.45-18.56-9.36-18.31-20.4S948.67,240,959,240.24Z"/><path class="cls-10" d="M945.39,256c1.87,0-.3,1.74-.35,3.88s2,3.94.17,3.89a3.92,3.92,0,0,1,.18-7.77Z"/><path d="M963.14,189.82c3.45.08,9.36,1,9.28,4.65s-1.7,9-6.44,8.19c-5.8-1-5.63-4.57-5.64-4C960.25,202.33,959.69,189.75,963.14,189.82Z"/><path class="cls-10" d="M963,194.26c.86,0,.51.61.48,1.68s.3,2.23-.57,2.21a2,2,0,0,1,.09-3.89Z"/><ellipse cx="1006.73" cy="252.38" rx="2.59" ry="1.33" transform="translate(731.99 1253.24) rotate(-88.72)"/><ellipse cx="1007.05" cy="240.03" rx="1.9" ry="0.99" transform="matrix(0.02, -1, 1, 0.02, 744.66, 1241.49)"/><path class="cls-10" d="M1027.21,214.69c14.8,6,37.79,22.51,44,53.65,5.32,26.8-14.9,43.84-29.83,49.85-38.28,15.4-28.21-23.25-27.59-51.13S999.7,203.53,1027.21,214.69Z"/><path class="cls-11" d="M1046.44,229.56c5.85-2.81,23.74,16.93,27.21,27,5.78,16.81,6,29.28.18,32.09s-6.15-13.47-13.71-29.79S1040.59,232.36,1046.44,229.56Z"/><polygon class="cls-12" points="800.94 365.31 795.45 367.01 808.73 409.81 825.53 404.6 800.94 365.31"/><polygon class="cls-12" points="682.67 402.01 687.12 400.63 700.4 443.42 683.6 448.63 682.67 402.01"/><path class="cls-4" d="M701.1,370.59l11.07-9.15C723.58,351,843.53,323.34,846,331.39l5.87,18.92L627.36,420l-5.44-17.53C619.19,393.64,689.89,369.58,701.1,370.59Z"/><path class="cls-1" d="M851.73,349.76c2.58,8.32-43.79,37.6-107.59,49.9-59,11.39-114.37,28.09-116.95,19.77s45.59-30.67,107.59-49.91S849.15,341.43,851.73,349.76Z"/><path class="cls-12" d="M683.6,448.63l141.93-44,5.24,16.91a3.58,3.58,0,0,1-2.17,4.57L694,467.85a4.43,4.43,0,0,1-5.4-3.13Z"/><polygon class="cls-12" points="817.37 391.63 809.83 393.97 809.83 393.97 817.37 391.63 817.37 391.63"/><rect class="cls-12" x="763.77" y="426.61" width="7.9" transform="translate(1627.38 606.55) rotate(162.76)"/><path class="cls-13" d="M840.15,184.13c-17.54-23.49-44.32-24.48-45-38.77-.48-9.56,11.3-12.87,9-20.48-3.47-11.3-30.83-8.35-36.24-21.64-2.85-7,1.36-16,5.57-16.64,5.29-.78,6.83,12.33,20.53,20.94,13.41,8.42,25.63,4.48,28.42,10.94,1.56,3.6-2.2,4.89-9,20.48-4.19,9.64-1.18,8.94.76,15.8.71,2.51,4.92,5.38,5.2,5.88,3.18,5.51,13.06,8.11,19,9.4,11.6,2.49,5.68-.08,14,2.93"/><path class="cls-14" d="M687.29,313.82c-58.24,9.45,12.31,27.47,39.86,2.73,22.83-20.5,110.71,7.77,108.58-23.41-3-43-21.1,15.71-63.67,5.29C756.26,294.57,726.65,307.44,687.29,313.82Z"/><path class="cls-15" d="M850.33,231.14c-32.43-9.22-29.65-35-51-30.88-14.25,2.74-21.1,15.32-32.13,15.6-16.39.41-7.62-27.23-26.69-28.05-10-.43-24.25,6.7-25.84,11-2,5.42,17.4,2.53,28.13,13,10.51,10.23,2.66,23.46,11.9,24,5.14.31,7.67-3.78,32.13-15.6,15.12-7.3,13.59-4.14,23.58-4.55,3.64-.15,7.28,3,8,3.1,7.76,1.25,10.09,10,11.07,15.4,1.89,10.47-1,5.56,2.16,12.61"/><ellipse cx="752.5" cy="253.63" rx="10.5" ry="2.78"/><ellipse cx="746.5" cy="250.58" rx="0.75" ry="3.06"/><ellipse cx="749.5" cy="251.13" rx="2.25" ry="3.61"/><ellipse cx="764.5" cy="150.63" rx="6.5" ry="2.78"/><ellipse cx="768.21" cy="147.58" rx="0.46" ry="3.06"/><ellipse cx="766.36" cy="148.13" rx="1.39" ry="3.61"/><ellipse cx="804" cy="323.19" rx="9" ry="2.81"/><ellipse cx="809.14" cy="320.09" rx="0.64" ry="3.09"/><ellipse cx="806.57" cy="320.66" rx="1.93" ry="3.66"/><rect class="cls-16" x="1201" width="598" height="504"/><path class="cls-1" d="M1699.21,139.68l-4.89,242.65c-.3,13.58-132.78,40.93-227.34,3.27h.24c-5.16-.11-6-1-5.92-2.05l5.75-258.23a1.86,1.86,0,0,1,1.84-1.88h-.24C1601,100.83,1699.54,124.93,1699.21,139.68Z"/><path class="cls-2" d="M1481,202.59,1478.7,304.2c-1,45-11.77,83.62-15.1,81.89l-19.55-.44c-3.53,6.27-7.71-5.11-7.57-11.21l5.41-243c.11-4.72,4-15.13,10.09-8.32l20.32.45C1480.12,123.69,1481,202.38,1481,202.59Z"/><path class="cls-3" d="M1447.32,121.85c6.69,6.5,17.28,89.82,10.08,132.44-12.15,71.87-8.78,132-16,131.85s-1.84-57.81-10.08-132.44C1423.34,181.23,1442,116.7,1447.32,121.85Z"/><path class="cls-4" d="M1473.34,123.64c-.41,0,1.05-.23,1.32.09,6.1,7.2,5,66.49,6.67,132.56,2.22,87.46-12.24,133.61-16.4,128.15,4.49-5.68,12.26-60.85,14.3-127.41C1481.13,195.28,1476.47,123.71,1473.34,123.64Z"/><path class="cls-1" d="M1697.42,130.2c17.89,3.23,17,51,15.27,129.53s-11.63,127.84-20.39,131.72c-37.64,16.66-16.26-53.92-14.51-132.5S1655.28,122.59,1697.42,130.2Z"/><path class="cls-5" d="M1707.9,334.3l-3.37,25.76c-2.12,1.73,6.28,7.64-60.31,1.71l-15.63-.35c-5.15-.11-73,0-69.07-11.48l.33-14.74c2.88-12.46-1.89-8.68,24.4-9.73l38.53,2C1675.16,330.24,1709.11,327.11,1707.9,334.3Z"/><path class="cls-6" d="M1565,177.5l3.28-25.77c2.12-1.74-6.3-7.61,60.31-2l15.63.29c5.15.09,67.79.46,66,10.42L1713,176.1c.67,14.55,2,8.57-29.83,9.11l-38.53-1.82C1597.76,181.43,1563.82,184.7,1565,177.5Z"/><path class="cls-6" d="M1562.41,293.54l3.28-25.77c2.12-1.74-6.31-7.61,60.3-1.95l15.63.28c5.15.1,64.19-1.84,69.12,11.2l-.28,14.74c.67,14.56,1.92,8.68-29.88,9.21L1642,299.44C1595.17,297.47,1561.23,300.74,1562.41,293.54Z"/><path class="cls-5" d="M1712.77,209.42l-.29,28.05c-2.13,1.73,6.27,7.64-60.32,1.71l-15.63-.35c-5.14-.11-73,0-69.07-11.47l.33-14.75c2.88-12.46-1.89-8.68,29.91-9.08l38.53,2C1683.1,207.65,1712.77,209.42,1712.77,209.42Z"/><path class="cls-7" d="M1665.56,395.38l-58.75,9.43-12.55.29-3.5-.64c-.09,0,16.09.31,16,.36-3.87,2.71-53.86-1-61.83-2.89a.46.46,0,0,1,0-.9l60.33-1.24s12,.26,12,.27l-12-.27,12,.27c.69,0,35.34-5.76,48.21-5.58A.45.45,0,0,1,1665.56,395.38Z"/><path class="cls-6" d="M1617.64,199.52l-12.56.28-3.49-.63"/><path class="cls-7" d="M1620,115.7l48.85,6.64,22.25,7.16-1.1,2.76-29-6.21c-.22,0,12.85,3,12.64,3l-12.64-3-14.54-2.54-71.76-7.71.56-1.66,39.58,1.44A37.7,37.7,0,0,1,1620,115.7Z"/><path class="cls-8" d="M1660.35,152.52c-.12,0-60.47.11-60.59.1l-16.9-1.81"/><path class="cls-8" d="M1707.37,334.66c-.11,0-60.46.11-60.58.1l-16.9-1.81"/><path class="cls-8" d="M1629.85,164.62l-60.59.1-16.9-1.81"/><path class="cls-8" d="M1629.85,164.62l-60.59.1-16.9-1.81"/><path class="cls-8" d="M1629.85,164.62l-60.59.1-16.9-1.81"/><path class="cls-9" d="M1649.66,398.37c-.12,0-60.47.11-60.58.1l-16.91-1.81"/><path class="cls-3" d="M1660.26,343.89c-.08,0-37.76,2.41-37.83,2.41l-10.49-3.45"/><path class="cls-10" d="M1555.18,240.35c25.87-6.13,47.45,22.7,46.86,49.38A48.13,48.13,0,0,1,1553,337c-26.47-.59-41.82-18.15-46.85-49.37C1501.93,261.31,1529.51,246.45,1555.18,240.35Z"/><path class="cls-10" d="M1543.76,214.82c-2.66-13.65,11.18-25,24.27-24.73s18.8,10.42,23.14,25.79c3.78,13.35-11.17,25-24.26,24.73S1546.1,226.82,1543.76,214.82Z"/><path d="M1584,260.24c10.36.23,18.51,11.58,18.26,22.62s-8.93,18.08-19.2,19.57c-9.94,1.45-18.56-9.36-18.31-20.4S1573.67,260,1584,260.24Z"/><path class="cls-10" d="M1570.39,276c1.87,0-.3,1.74-.35,3.88s2,3.94.17,3.89a3.92,3.92,0,0,1,.18-7.77Z"/><path d="M1578.14,203.82c3.45.08,9.36,1,9.28,4.65s-1.7,9-6.44,8.19c-5.8-1-5.63-4.57-5.64-4C1575.25,216.33,1574.69,203.75,1578.14,203.82Z"/><path class="cls-10" d="M1578,208.26c.86,0,.51.61.48,1.68s.3,2.23-.57,2.21a2,2,0,0,1,.09-3.89Z"/><ellipse cx="1604.73" cy="252.38" rx="2.59" ry="1.33" transform="translate(1316.68 1851.09) rotate(-88.72)"/><ellipse cx="1605.05" cy="240.03" rx="1.9" ry="0.99" transform="matrix(0.02, -1, 1, 0.02, 1329.34, 1839.35)"/><path class="cls-10" d="M1625.21,214.69c14.8,6,37.79,22.51,44,53.65,5.32,26.8-14.9,43.84-29.83,49.85-38.28,15.4-28.21-23.25-27.59-51.13S1597.7,203.53,1625.21,214.69Z"/><path class="cls-11" d="M1644.44,229.56c5.85-2.81,23.74,16.93,27.21,27,5.78,16.81,6,29.28.18,32.09s-6.15-13.47-13.71-29.79S1638.59,232.36,1644.44,229.56Z"/><polygon class="cls-12" points="1398.94 365.31 1393.45 367.01 1406.73 409.81 1423.53 404.6 1398.94 365.31"/><polygon class="cls-12" points="1280.67 402.01 1285.12 400.63 1298.4 443.42 1281.6 448.63 1280.67 402.01"/><path class="cls-4" d="M1299.1,370.59l11.07-9.15c11.41-10.47,131.36-38.1,133.86-30.05l5.87,18.92L1225.36,420l-5.44-17.53C1217.19,393.64,1287.89,369.58,1299.1,370.59Z"/><path class="cls-1" d="M1449.73,349.76c2.58,8.32-43.79,37.6-107.59,49.9-59.05,11.39-114.37,28.09-117,19.77s45.59-30.67,107.59-49.91S1447.15,341.43,1449.73,349.76Z"/><path class="cls-12" d="M1281.6,448.63l141.93-44,5.24,16.91a3.58,3.58,0,0,1-2.17,4.57L1292,467.85a4.43,4.43,0,0,1-5.4-3.13Z"/><polygon class="cls-12" points="1415.37 391.63 1407.83 393.97 1407.83 393.97 1415.37 391.63 1415.37 391.63"/><rect class="cls-12" x="1361.77" y="426.61" width="7.9" transform="translate(2796.51 429.34) rotate(162.76)"/><path class="cls-13" d="M1438.15,184.13c-17.54-23.49-44.32-24.48-45-38.77-.48-9.56,11.3-12.87,9-20.48-3.47-11.3-30.83-8.35-36.24-21.64-2.85-7,1.36-16,5.57-16.64,5.29-.78,6.83,12.33,20.53,20.94,13.41,8.42,25.63,4.48,28.42,10.94,1.56,3.6-2.2,4.89-9,20.48-4.19,9.64-1.18,8.94.76,15.8.71,2.51,4.92,5.38,5.2,5.88,3.18,5.51,13.06,8.11,19.05,9.4,11.6,2.49,5.68-.08,13.95,2.93"/><path class="cls-14" d="M1285.29,313.82c-58.24,9.45,12.31,27.47,39.86,2.73,22.83-20.5,110.71,7.77,108.58-23.41-3-43-21.1,15.71-63.67,5.29C1354.26,294.57,1324.65,307.44,1285.29,313.82Z"/><path class="cls-15" d="M1448.33,231.14c-32.43-9.22-29.65-35-51-30.88-14.25,2.74-21.1,15.32-32.13,15.6-16.39.41-7.62-27.23-26.69-28.05-10-.43-24.25,6.7-25.84,11-2,5.42,17.4,2.53,28.13,13,10.51,10.23,2.66,23.46,11.9,24,5.14.31,7.67-3.78,32.13-15.6,15.12-7.3,13.59-4.14,23.58-4.55,3.64-.15,7.28,3,8,3.1,7.76,1.25,10.09,10,11.07,15.4,1.89,10.47-1,5.56,2.16,12.61"/><ellipse cx="1350.5" cy="253.63" rx="10.5" ry="2.78"/><ellipse cx="1344.5" cy="250.58" rx="0.75" ry="3.06"/><ellipse cx="1347.5" cy="251.13" rx="2.25" ry="3.61"/><ellipse cx="1362.5" cy="150.63" rx="6.5" ry="2.78"/><ellipse cx="1366.21" cy="147.58" rx="0.46" ry="3.06"/><ellipse cx="1364.36" cy="148.13" rx="1.39" ry="3.61"/><ellipse cx="1402" cy="323.19" rx="9" ry="2.81"/><ellipse cx="1407.14" cy="320.09" rx="0.64" ry="3.09"/><ellipse cx="1404.57" cy="320.66" rx="1.93" ry="3.66"/><rect class="cls-16" x="1802" y="3" width="598" height="504"/><path class="cls-1" d="M2303.21,139.68l-4.89,242.65c-.3,13.58-132.78,40.93-227.34,3.27h.24c-5.16-.11-5.95-1-5.92-2.05l5.75-258.23a1.86,1.86,0,0,1,1.84-1.88h-.24C2205,100.83,2303.54,124.93,2303.21,139.68Z"/><path class="cls-2" d="M2085,202.59,2082.7,304.2c-1,45-11.77,83.62-15.1,81.89l-19.55-.44c-3.53,6.27-7.71-5.11-7.57-11.21l5.41-243c.11-4.72,4-15.13,10.09-8.32l20.32.45C2084.12,123.69,2085,202.38,2085,202.59Z"/><path class="cls-3" d="M2051.32,121.85c6.69,6.5,17.28,89.82,10.08,132.44-12.15,71.87-8.78,132-16,131.85s-1.84-57.81-10.08-132.44C2027.34,181.23,2046,116.7,2051.32,121.85Z"/><path class="cls-4" d="M2077.34,123.64c-.41,0,1-.23,1.32.09,6.1,7.2,5,66.49,6.67,132.56,2.22,87.46-12.24,133.61-16.4,128.15,4.49-5.68,12.26-60.85,14.3-127.41C2085.13,195.28,2080.47,123.71,2077.34,123.64Z"/><path class="cls-1" d="M2301.42,130.2c17.89,3.23,17,51,15.27,129.53s-11.63,127.84-20.39,131.72c-37.64,16.66-16.26-53.92-14.51-132.5S2259.28,122.59,2301.42,130.2Z"/><path class="cls-5" d="M2311.9,334.3l-3.37,25.76c-2.12,1.73,6.28,7.64-60.31,1.71l-15.63-.35c-5.15-.11-73,0-69.07-11.48l.33-14.74c2.88-12.46-1.89-8.68,24.4-9.73l38.53,2C2279.16,330.24,2313.11,327.11,2311.9,334.3Z"/><path class="cls-6" d="M2169,177.5l3.28-25.77c2.12-1.74-6.3-7.61,60.31-2l15.63.29c5.15.09,67.79.46,66,10.42L2317,176.1c.67,14.55,2,8.57-29.83,9.11l-38.53-1.82C2201.76,181.43,2167.82,184.7,2169,177.5Z"/><path class="cls-6" d="M2166.41,293.54l3.28-25.77c2.12-1.74-6.31-7.61,60.3-1.95l15.63.28c5.15.1,64.19-1.84,69.12,11.2l-.28,14.74c.67,14.56,1.92,8.68-29.88,9.21L2246,299.44C2199.17,297.47,2165.23,300.74,2166.41,293.54Z"/><path class="cls-5" d="M2316.77,209.42l-.29,28.05c-2.13,1.73,6.27,7.64-60.32,1.71l-15.63-.35c-5.14-.11-73,0-69.07-11.47l.33-14.75c2.88-12.46-1.89-8.68,29.91-9.08l38.53,2C2287.1,207.65,2316.77,209.42,2316.77,209.42Z"/><path class="cls-7" d="M2269.56,395.38l-58.75,9.43-12.55.29-3.5-.64c-.09,0,16.09.31,16,.36-3.87,2.71-53.86-1-61.83-2.89a.46.46,0,0,1,0-.9l60.33-1.24s12,.26,12,.27l-12-.27,12,.27c.69,0,35.34-5.76,48.21-5.58A.45.45,0,0,1,2269.56,395.38Z"/><path class="cls-6" d="M2221.64,199.52l-12.56.28-3.49-.63"/><path class="cls-7" d="M2224,115.7l48.85,6.64,22.25,7.16-1.1,2.76-29-6.21c-.22,0,12.85,3,12.64,3l-12.64-3-14.54-2.54-71.76-7.71.56-1.66,39.58,1.44A37.7,37.7,0,0,1,2224,115.7Z"/><path class="cls-8" d="M2264.35,152.52c-.12,0-60.47.11-60.59.1l-16.9-1.81"/><path class="cls-8" d="M2311.37,334.66c-.11,0-60.46.11-60.58.1l-16.9-1.81"/><path class="cls-8" d="M2233.85,164.62l-60.59.1-16.9-1.81"/><path class="cls-8" d="M2233.85,164.62l-60.59.1-16.9-1.81"/><path class="cls-8" d="M2233.85,164.62l-60.59.1-16.9-1.81"/><path class="cls-9" d="M2253.66,398.37c-.12,0-60.47.11-60.58.1l-16.91-1.81"/><path class="cls-3" d="M2264.26,343.89c-.08,0-37.76,2.41-37.83,2.41l-10.49-3.45"/><path class="cls-10" d="M2159.18,240.35c25.87-6.13,47.45,22.7,46.86,49.38A48.13,48.13,0,0,1,2157,337c-26.47-.59-41.82-18.15-46.85-49.37C2105.93,261.31,2133.51,246.45,2159.18,240.35Z"/><path class="cls-10" d="M2147.76,214.82c-2.66-13.65,11.18-25,24.27-24.73s18.8,10.42,23.14,25.79c3.78,13.35-11.17,25-24.26,24.73S2150.1,226.82,2147.76,214.82Z"/><path d="M2158,293.24c10.36.23,18.51,13.58,18.26,24.62s-8.93,18.08-19.2,19.57c-9.94,1.45-18.56-9.36-18.31-20.4S2147.67,293,2158,293.24Z"/><path class="cls-10" d="M2144.39,306c1.87,0-.3,1.74-.35,3.88s2,3.94.17,3.89a3.92,3.92,0,0,1,.18-7.77Z"/><path d="M2165.14,226.82c3.45.08,9.36,1,9.28,4.65s-1.7,9-6.44,8.19c-5.8-1-5.63-4.57-5.64-4C2162.25,239.33,2161.69,226.75,2165.14,226.82Z"/><path class="cls-10" d="M2165,231.26c.86,0,.51.61.48,1.68s.3,2.23-.57,2.21a2,2,0,0,1,.09-3.89Z"/><ellipse cx="2208.73" cy="252.38" rx="2.59" ry="1.33" transform="translate(1907.23 2454.94) rotate(-88.72)"/><ellipse cx="2209.05" cy="240.03" rx="1.9" ry="0.99" transform="matrix(0.02, -1, 1, 0.02, 1919.89, 2443.2)"/><path class="cls-10" d="M2229.21,214.69c14.8,6,37.79,22.51,44,53.65,5.32,26.8-14.9,43.84-29.83,49.85-38.28,15.4-28.21-23.25-27.59-51.13S2201.7,203.53,2229.21,214.69Z"/><path class="cls-11" d="M2248.44,229.56c5.85-2.81,23.74,16.93,27.21,27,5.78,16.81,6,29.28.18,32.09s-6.15-13.47-13.71-29.79S2242.59,232.36,2248.44,229.56Z"/><polygon class="cls-12" points="2002.94 365.31 1997.45 367.01 2010.73 409.81 2027.53 404.6 2002.94 365.31"/><polygon class="cls-12" points="1884.67 402.01 1889.12 400.63 1902.4 443.42 1885.6 448.63 1884.67 402.01"/><path class="cls-4" d="M1903.1,370.59l11.07-9.15c11.41-10.47,131.36-38.1,133.86-30.05l5.87,18.92L1829.36,420l-5.44-17.53C1821.19,393.64,1891.89,369.58,1903.1,370.59Z"/><path class="cls-1" d="M2053.73,349.76c2.58,8.32-43.79,37.6-107.59,49.9-59.05,11.39-114.37,28.09-117,19.77s45.59-30.67,107.59-49.91S2051.15,341.43,2053.73,349.76Z"/><path class="cls-12" d="M1885.6,448.63l141.93-44,5.24,16.91a3.58,3.58,0,0,1-2.17,4.57L1896,467.85a4.43,4.43,0,0,1-5.4-3.13Z"/><polygon class="cls-12" points="2019.37 391.63 2011.83 393.97 2011.83 393.97 2019.37 391.63 2019.37 391.63"/><rect class="cls-12" x="1965.77" y="426.61" width="7.9" transform="translate(3977.38 250.35) rotate(162.76)"/><path class="cls-13" d="M2042.15,184.13c-17.54-23.49-44.32-24.48-45-38.77-.48-9.56,11.3-12.87,9-20.48-3.47-11.3-30.83-8.35-36.24-21.64-2.85-7,1.36-16,5.57-16.64,5.29-.78,6.83,12.33,20.53,20.94,13.41,8.42,25.63,4.48,28.42,10.94,1.56,3.6-2.2,4.89-9,20.48-4.19,9.64-1.18,8.94.76,15.8.71,2.51,4.92,5.38,5.2,5.88,3.18,5.51,13.06,8.11,19.05,9.4,11.6,2.49,5.68-.08,14,2.93"/><path class="cls-14" d="M1889.29,313.82c-58.24,9.45,12.31,27.47,39.86,2.73,22.83-20.5,110.71,7.77,108.58-23.41-3-43-21.1,15.71-63.67,5.29C1958.26,294.57,1928.65,307.44,1889.29,313.82Z"/><path class="cls-15" d="M2052.33,231.14c-32.43-9.22-29.65-35-51-30.88-14.25,2.74-21.1,15.32-32.13,15.6-16.39.41-7.62-27.23-26.69-28.05-10-.43-24.25,6.7-25.84,11-2,5.42,17.4,2.53,28.13,13,10.51,10.23,2.66,23.46,11.9,24,5.14.31,7.67-3.78,32.13-15.6,15.12-7.3,13.59-4.14,23.58-4.55,3.64-.15,7.28,3,8,3.1,7.76,1.25,10.09,10,11.07,15.4,1.89,10.47-1,5.56,2.16,12.61"/><ellipse cx="1954.5" cy="253.63" rx="10.5" ry="2.78"/><ellipse cx="1948.5" cy="250.58" rx="0.75" ry="3.06"/><ellipse cx="1951.5" cy="251.13" rx="2.25" ry="3.61"/><ellipse cx="1966.5" cy="150.63" rx="6.5" ry="2.78"/><ellipse cx="1970.21" cy="147.58" rx="0.46" ry="3.06"/><ellipse cx="1968.36" cy="148.13" rx="1.39" ry="3.61"/><ellipse cx="2006" cy="323.19" rx="9" ry="2.81"/><ellipse cx="2011.14" cy="320.09" rx="0.64" ry="3.09"/><ellipse cx="2008.57" cy="320.66" rx="1.93" ry="3.66"/><rect class="cls-16" x="2396" y="-1" width="598" height="504"/><path class="cls-1" d="M2897.21,135.68l-4.89,242.65c-.3,13.58-132.78,40.93-227.34,3.27h.24c-5.16-.11-5.95-1-5.92-2.05l5.75-258.23a1.86,1.86,0,0,1,1.84-1.88h-.24C2799,96.83,2897.54,120.93,2897.21,135.68Z"/><path class="cls-2" d="M2679,198.59,2676.7,300.2c-1,45-11.77,83.62-15.1,81.89l-19.55-.44c-3.53,6.27-7.71-5.11-7.57-11.21l5.41-243c.11-4.72,4-15.13,10.09-8.32l20.32.45C2678.12,119.69,2679,198.38,2679,198.59Z"/><path class="cls-3" d="M2645.32,117.85c6.69,6.5,17.28,89.82,10.08,132.44-12.15,71.87-8.78,132-16,131.85s-1.84-57.81-10.08-132.44C2621.34,177.23,2640,112.7,2645.32,117.85Z"/><path class="cls-4" d="M2671.34,119.64c-.41,0,1-.23,1.32.09,6.1,7.2,5,66.49,6.67,132.56,2.22,87.46-12.24,133.61-16.4,128.15,4.49-5.68,12.26-60.85,14.3-127.41C2679.13,191.28,2674.47,119.71,2671.34,119.64Z"/><path class="cls-1" d="M2895.42,126.2c17.89,3.23,17,51,15.27,129.53s-11.63,127.84-20.39,131.72c-37.64,16.66-16.26-53.92-14.51-132.5S2853.28,118.59,2895.42,126.2Z"/><path class="cls-5" d="M2905.9,330.3l-3.37,25.76c-2.12,1.73,6.28,7.64-60.31,1.71l-15.63-.35c-5.15-.11-73,0-69.07-11.48l.33-14.74c2.88-12.46-1.89-8.68,24.4-9.73l38.53,2C2873.16,326.24,2907.11,323.11,2905.9,330.3Z"/><path class="cls-6" d="M2763,173.5l3.28-25.77c2.12-1.74-6.3-7.61,60.31-2l15.63.29c5.15.09,67.79.46,66,10.42L2911,172.1c.67,14.55,2,8.57-29.83,9.11l-38.53-1.82C2795.76,177.43,2761.82,180.7,2763,173.5Z"/><path class="cls-6" d="M2760.41,289.54l3.28-25.77c2.12-1.74-6.31-7.61,60.3-1.95l15.63.28c5.15.1,64.19-1.84,69.12,11.2l-.28,14.74c.67,14.56,1.92,8.68-29.88,9.21L2840,295.44C2793.17,293.47,2759.23,296.74,2760.41,289.54Z"/><path class="cls-5" d="M2910.77,205.42l-.29,28.05c-2.13,1.73,6.27,7.64-60.32,1.71l-15.63-.35c-5.14-.11-73,0-69.07-11.47l.33-14.75c2.88-12.46-1.89-8.68,29.91-9.08l38.53,2C2881.1,203.65,2910.77,205.42,2910.77,205.42Z"/><path class="cls-7" d="M2863.56,391.38l-58.75,9.43-12.55.29-3.5-.64c-.09,0,16.09.31,16,.36-3.87,2.71-53.86-1-61.83-2.89a.46.46,0,0,1,0-.9l60.33-1.24s12,.26,12,.27l-12-.27,12,.27c.69,0,35.34-5.76,48.21-5.58A.45.45,0,0,1,2863.56,391.38Z"/><path class="cls-6" d="M2815.64,195.52l-12.56.28-3.49-.63"/><path class="cls-7" d="M2818,111.7l48.85,6.64,22.25,7.16-1.1,2.76-29-6.21c-.22,0,12.85,3,12.64,3l-12.64-3-14.54-2.54-71.76-7.71.56-1.66,39.58,1.44A37.7,37.7,0,0,1,2818,111.7Z"/><path class="cls-8" d="M2858.35,148.52c-.12,0-60.47.11-60.59.1l-16.9-1.81"/><path class="cls-8" d="M2905.37,330.66c-.11,0-60.46.11-60.58.1l-16.9-1.81"/><path class="cls-8" d="M2827.85,160.62l-60.59.1-16.9-1.81"/><path class="cls-8" d="M2827.85,160.62l-60.59.1-16.9-1.81"/><path class="cls-8" d="M2827.85,160.62l-60.59.1-16.9-1.81"/><path class="cls-9" d="M2847.66,394.37c-.12,0-60.47.11-60.58.1l-16.91-1.81"/><path class="cls-3" d="M2858.26,339.89c-.08,0-37.76,2.41-37.83,2.41l-10.49-3.45"/><path class="cls-10" d="M2753.18,236.35c25.87-6.13,47.45,22.7,46.86,49.38A48.13,48.13,0,0,1,2751,333c-26.47-.59-41.82-18.15-46.85-49.37C2699.93,257.31,2727.51,242.45,2753.18,236.35Z"/><path class="cls-10" d="M2741.76,210.82c-2.66-13.65,11.18-25,24.27-24.73s18.8,10.42,23.14,25.79c3.78,13.35-11.17,25-24.26,24.73S2744.1,222.82,2741.76,210.82Z"/><path d="M2723,256.24c10.36.23,18.51,11.58,18.26,22.62s-8.93,18.08-19.2,19.57c-9.94,1.45-18.56-9.36-18.31-20.4S2712.67,256,2723,256.24Z"/><path class="cls-10" d="M2709.39,272c1.87,0-.3,1.74-.35,3.88s2,3.94.17,3.89a3.92,3.92,0,0,1,.18-7.77Z"/><path d="M2744.14,197.82c3.45.08,9.36,1,9.28,4.65s-1.7,9-6.44,8.19c-5.8-1-5.63-4.57-5.64-4C2741.25,210.33,2740.69,197.75,2744.14,197.82Z"/><path class="cls-10" d="M2744,202.26c.86,0,.51.61.48,1.68s.3,2.23-.57,2.21a2,2,0,0,1,.09-3.89Z"/><ellipse cx="2802.73" cy="248.38" rx="2.59" ry="1.33" transform="translate(2492 3044.88) rotate(-88.72)"/><ellipse cx="2803.05" cy="236.03" rx="1.9" ry="0.99" transform="matrix(0.02, -1, 1, 0.02, 2504.67, 3033.14)"/><path class="cls-10" d="M2823.21,210.69c14.8,6,37.79,22.51,44,53.65,5.32,26.8-14.9,43.84-29.83,49.85-38.28,15.4-28.21-23.25-27.59-51.13S2795.7,199.53,2823.21,210.69Z"/><path class="cls-11" d="M2842.44,225.56c5.85-2.81,23.74,16.93,27.21,27,5.78,16.81,6,29.28.18,32.09s-6.15-13.47-13.71-29.79S2836.59,228.36,2842.44,225.56Z"/><polygon class="cls-12" points="2596.94 361.31 2591.45 363.01 2604.73 405.81 2621.53 400.6 2596.94 361.31"/><polygon class="cls-12" points="2478.67 398.01 2483.12 396.63 2496.4 439.42 2479.6 444.63 2478.67 398.01"/><path class="cls-4" d="M2497.1,366.59l11.07-9.15c11.41-10.47,131.36-38.1,133.86-30.05l5.87,18.92L2423.36,416l-5.44-17.53C2415.19,389.64,2485.89,365.58,2497.1,366.59Z"/><path class="cls-1" d="M2647.73,345.76c2.58,8.32-43.79,37.6-107.59,49.9-59,11.39-114.37,28.09-116.95,19.77s45.59-30.67,107.59-49.91S2645.15,337.43,2647.73,345.76Z"/><path class="cls-12" d="M2479.6,444.63l141.93-44,5.24,16.91a3.58,3.58,0,0,1-2.17,4.57L2490,463.85a4.43,4.43,0,0,1-5.4-3.13Z"/><polygon class="cls-12" points="2613.37 387.63 2605.83 389.97 2605.83 389.97 2613.37 387.63 2613.37 387.63"/><rect class="cls-12" x="2559.77" y="422.61" width="7.9" transform="translate(5137.52 66.5) rotate(162.76)"/><path class="cls-13" d="M2636.15,180.13c-17.54-23.49-44.32-24.48-45-38.77-.48-9.56,11.3-12.87,9-20.48-3.47-11.3-30.83-8.35-36.24-21.64-2.85-7,1.36-16,5.57-16.64,5.29-.78,6.83,12.33,20.53,20.94,13.41,8.42,25.63,4.48,28.42,10.94,1.56,3.6-2.2,4.89-9,20.48-4.19,9.64-1.18,8.94.76,15.8.71,2.51,4.92,5.38,5.2,5.88,3.18,5.51,13.06,8.11,19,9.4,11.6,2.49,5.68-.08,14,2.93"/><path class="cls-14" d="M2483.29,309.82c-58.24,9.45,12.31,27.47,39.86,2.73,22.83-20.5,110.71,7.77,108.58-23.41-2.95-43-21.1,15.71-63.67,5.29C2552.26,290.57,2522.65,303.44,2483.29,309.82Z"/><path class="cls-15" d="M2646.33,227.14c-32.43-9.22-29.65-35-51-30.88-14.25,2.74-21.1,15.32-32.13,15.6-16.39.41-7.62-27.23-26.69-28.05-10-.43-24.25,6.7-25.84,11-2,5.42,17.4,2.53,28.13,13,10.51,10.23,2.66,23.46,11.9,24,5.14.31,7.67-3.78,32.13-15.6,15.12-7.3,13.59-4.14,23.58-4.55,3.64-.15,7.28,3,8,3.1,7.76,1.25,10.09,10,11.07,15.4,1.89,10.47-1,5.56,2.16,12.61"/><ellipse cx="2548.5" cy="249.63" rx="10.5" ry="2.78"/><ellipse cx="2542.5" cy="246.58" rx="0.75" ry="3.06"/><ellipse cx="2545.5" cy="247.13" rx="2.25" ry="3.61"/><ellipse cx="2560.5" cy="146.63" rx="6.5" ry="2.78"/><ellipse cx="2564.21" cy="143.58" rx="0.46" ry="3.06"/><ellipse cx="2562.36" cy="144.13" rx="1.39" ry="3.61"/><ellipse cx="2600" cy="319.19" rx="9" ry="2.81"/><ellipse cx="2605.14" cy="316.09" rx="0.64" ry="3.09"/><ellipse cx="2602.57" cy="316.66" rx="1.93" ry="3.66"/></svg>
