<svg xmlns="http://www.w3.org/2000/svg" xmlns:xlink="http://www.w3.org/1999/xlink" width="1600" height="900" viewBox="0 0 1600 900"><defs><style>.cls-1{fill:url(#linear-gradient);}.cls-2{fill:url(#linear-gradient-2);}.cls-3{fill:#61bd3c;}.cls-4,.cls-5,.cls-6,.cls-7,.cls-8{fill:none;stroke-linecap:round;stroke-linejoin:round;}.cls-4{stroke:#007427;stroke-width:3px;}.cls-5{stroke:#17aa00;}.cls-5,.cls-6,.cls-7,.cls-8{stroke-width:4px;}.cls-6{stroke:#179e00;}.cls-7{stroke:#6dc900;}.cls-8{stroke:#4aaa00;}.cls-9{fill:#fff;}.cls-10{fill:#fe0;}.cls-11{fill:#009245;}.cls-12{fill:#dfca00;}.cls-13{fill:#dfe000;}.cls-14{fill:#fcee21;}.cls-15{fill:#ff4;}.cls-16{fill:#f6ff00;}.cls-17{fill:#3fc7f5;}.cls-18{fill:#74ddff;}.cls-19{fill:#70c6ff;}.cls-20{fill:#6bc5e9;}.cls-21{fill:#00a6f4;}.cls-22{fill:#ccc;}.cls-23{fill:#f2f2f2;}.cls-24{fill:gray;}.cls-25{fill:#4d4d4d;}.cls-26,.cls-27,.cls-28{fill:#b3b3b3;}.cls-26{opacity:0.5;}.cls-28{opacity:0.6;}.cls-29{fill:#666;}.cls-30{fill:#999;}.cls-31{fill:#ff7bac;}.cls-32{fill:#c69c6d;}.cls-33{fill:#738a00;}.cls-34{fill:#968a00;}.cls-35{fill:#3b7500;}</style><linearGradient id="linear-gradient" x1="-22" y1="269.5" x2="1608" y2="269.5" gradientUnits="userSpaceOnUse"><stop offset="0" stop-color="#fcee21"/><stop offset="1" stop-color="#f7931e"/></linearGradient><linearGradient id="linear-gradient-2" x1="793" y1="2" x2="793" y2="533.22" gradientUnits="userSpaceOnUse"><stop offset="0" stop-color="#fff" stop-opacity="0"/><stop offset="1" stop-color="#fff" stop-opacity="0.8"/></linearGradient></defs><title>startskærm</title><g id="Layer_2" data-name="Layer 2"><path class="cls-1" d="M-22,2H1608a0,0,0,0,1,0,0V501.17A35.83,35.83,0,0,1,1572.17,537H-22a0,0,0,0,1,0,0V2A0,0,0,0,1-22,2Z"/><path class="cls-2" d="M-22,2H1608a0,0,0,0,1,0,0V501.17A35.83,35.83,0,0,1,1572.17,537H-22a0,0,0,0,1,0,0V2A0,0,0,0,1-22,2Z"/></g><g id="Layer_1" data-name="Layer 1"><path class="cls-3" d="M1598,916-4,915l1-435c0-26.93,64.58-97.47,92.21-77.62C204.8,485.44,477.26,504.79,477.26,504.79c194-122.89,713.15-163.86,759.19-96.61.77,1.11,31.1,57.26,69.55,40.85,32-13.65,47.48,104.68,170.29,33L1597,444c1,17-3.22-17.54,0,0Z"/><polyline class="cls-4" points="25.9 671.95 22.81 652.55 22.37 638.87 17.91 659.75 14.61 648.08 11.01 664.08 11.01 664.08"/><path class="cls-5" d="M492.4,706.11l-.63-19.82a1.37,1.37,0,0,0,0-.19l-.2-1.21c-.29-1.83,2.36-1.82,3.08,0l1.44,3.62c.64,1.61,2.93,1.89,3.09.38h0c.15-1.51,2.43-1.24,3.08.36l4.68,11.51h0"/><polyline class="cls-5" points="125.78 918.65 118.55 875.06 109.09 842.99 136.41 895.8 135.66 870.66 157.03 911.24 157.03 911.24"/><polyline class="cls-6" points="900.03 590.66 898.84 573.72 896.37 561.4 904.96 581.25 905.59 571.35 912.33 586.6 912.33 586.6"/><polyline class="cls-7" points="1325.58 570.73 1328.81 540.13 1328.37 518.4 1337.1 551.99 1341.3 533.7 1348.27 559.44 1348.27 559.44"/><polyline class="cls-8" points="1151.03 689.66 1149.84 672.72 1147.37 660.4 1155.95 680.25 1156.59 670.35 1163.33 685.6 1163.33 685.6"/><path class="cls-5" d="M957,881.63l7.34-26.79a2.21,2.21,0,0,0,0-.25l.25-1.58c.38-2.37,3.69-3.44,3.85-1.25l.32,4.36c.14,1.93,2.9,1.37,3.71-.75h0c.81-2.12,3.55-2.69,3.71-.77l1.15,13.79h0"/><polyline class="cls-6" points="608.03 756.66 606.84 739.72 604.37 727.4 612.96 747.25 613.59 737.35 620.33 752.6 620.33 752.6"/><path class="cls-7" d="M984.58,745.73l3.23-30.6,0-2a2.32,2.32,0,0,1,4.57-.63L996.1,727l4.2-18.29,7,25.74h0"/><path class="cls-8" d="M607.08,614.71l-.19-17.85a1,1,0,0,0,0-.17l-.15-1.09c-.23-1.64,2.14-1.68,2.75-.05l1.22,3.24c.54,1.44,2.59,1.65,2.76.28h0c.16-1.36,2.2-1.16,2.75.27l4,10.28h0"/><polyline class="cls-4" points="805.98 750.58 802.13 727.6 801.48 711.4 796.38 736.07 792.36 722.23 788.25 741.13 788.25 741.13"/><polyline class="cls-4" points="314.99 637.06 309.17 616.23 306.95 601.76 304.74 623.2 299.67 610.48 297.79 626.88 297.79 626.88"/><polyline class="cls-4" points="435.59 836.18 434.34 824.61 434.48 816.4 431.21 829.08 429.61 822.17 427 831.89 427 831.89"/><path class="cls-9" d="M221.74,599.06c0,3.35,4.66-.55,9.44-.55s7.86,3.9,7.86.55-3.87-6.06-8.65-6.06S221.74,595.72,221.74,599.06Z"/><path class="cls-10" d="M215.45,604.72c0,2.36,4.59.61,10.24.61s13.06,1.44,10.25-.61c-5.86-4.28,0,0-10.25-4.28C221.69,598.77,215.45,604.72,215.45,604.72Z"/><path class="cls-10" d="M237.44,608.54a43.76,43.76,0,0,1-7.36-2.61c5.27-1.73,11-8.32,13-7,2.75,1.8,1.22,1.53.56,4.07C243,605.85,240,609,237.44,608.54Z"/><path class="cls-10" d="M217.6,595.84c5.23.61,7.88,6.65,7.28,10.13s-2.11-2.62-6.91-.66-9.24-4.33-9.21-8.15C208.8,592.53,212.37,595.23,217.6,595.84Z"/><path class="cls-10" d="M242.05,594.49c.82-.3,5.33-1.51,6.15,1.56.6,2.27-13.74,11.73-13.56,9.35.25-3.38,0,0,2.63-7.36C238.52,594.54,240.52,595.05,242.05,594.49Z"/><path class="cls-10" d="M223,605.12a17.07,17.07,0,0,1,6.58,1.78s.94,2.66,4.43.51c8.41-5.16,2.69-11.41-2.68-10C209.17,603.27,224.21,603.73,223,605.12Z"/><path class="cls-10" d="M242.43,605.32c-.16,3-5.68,5.21-13.68,3.71-7-1.31-13.39-1.71-13.23-4.69s6.32-5.18,13.75-4.91S242.59,602.34,242.43,605.32Z"/><path class="cls-11" d="M231.18,643.51c2.16,18.15,3.14,28.49-1.58,28.49-1.3,0-1.57-10.9-1.57-29.14s1.85-32,2.36-33C231.07,608.53,228.24,618.91,231.18,643.51Z"/><path class="cls-9" d="M669.47,743.76c0,2.63,3.68-.43,7.46-.43s6.22,3.06,6.22.43-3.07-4.76-6.84-4.76S669.47,741.13,669.47,743.76Z"/><path class="cls-10" d="M664.49,748.19c0,1.86,3.63.48,8.1.48s10.33,1.13,8.11-.48c-4.63-3.35,0,0-8.11-3.35C669.43,743.53,664.49,748.19,664.49,748.19Z"/><path class="cls-10" d="M681.88,751.2a35.41,35.41,0,0,1-5.82-2.05c4.17-1.36,8.71-6.53,10.33-5.48,2.17,1.41,1,1.2.44,3.19C686.25,749.08,683.9,751.55,681.88,751.2Z"/><path class="cls-10" d="M666.19,741.23c4.14.48,6.23,5.22,5.76,7.95s-1.67-2.06-5.46-.52-7.31-3.4-7.29-6.39C659.23,738.63,662.06,740.75,666.19,741.23Z"/><path class="cls-10" d="M685.53,740.17c.64-.24,4.22-1.19,4.86,1.23.48,1.77-10.86,9.2-10.73,7.33.2-2.65,0,0,2.09-5.77C682.74,740.21,684.32,740.61,685.53,740.17Z"/><path class="cls-10" d="M670.46,748.51a13.47,13.47,0,0,1,5.21,1.4s.74,2.09,3.5.4c6.65-4,2.13-9-2.12-7.84C659.53,747.06,671.42,747.42,670.46,748.51Z"/><path class="cls-10" d="M685.83,748.67c-.13,2.34-4.49,4.08-10.82,2.91-5.53-1-10.59-1.34-10.46-3.68s5-4.07,10.87-3.86S686,746.33,685.83,748.67Z"/><path class="cls-11" d="M676.93,778.64c1.71,14.25,2.49,22.36-1.25,22.36-1,0-1.24-8.55-1.24-22.87s1.46-25.14,1.87-25.92C676.84,751.19,674.61,759.33,676.93,778.64Z"/><path class="cls-9" d="M793,685.68c0,2.59,3-.42,6-.42s5,3,5,.42-2.46-4.68-5.5-4.68S793,683.1,793,685.68Z"/><path class="cls-10" d="M789,690.05c0,1.82,2.92.47,6.51.47s8.3,1.11,6.52-.47c-3.72-3.31,0,0-6.52-3.31C793,685.45,789,690.05,789,690.05Z"/><path class="cls-10" d="M803,693a24.83,24.83,0,0,1-4.68-2c3.35-1.33,7-6.42,8.3-5.39,1.75,1.4.77,1.19.36,3.14C806.49,690.92,804.61,693.35,803,693Z"/><path class="cls-10" d="M790.37,683.19c3.32.47,5,5.14,4.63,7.83s-1.34-2-4.4-.51-5.87-3.35-5.85-6.3C784.77,680.63,787,682.73,790.37,683.19Z"/><path class="cls-10" d="M805.92,682.15c.51-.23,3.39-1.17,3.9,1.21.39,1.75-8.73,9-8.62,7.21.16-2.6,0,0,1.67-5.68C803.67,682.19,804.94,682.58,805.92,682.15Z"/><path class="cls-10" d="M793.8,690.36a9.37,9.37,0,0,1,4.19,1.37s.59,2.06,2.81.4c5.35-4,1.72-8.81-1.7-7.72C785,688.93,794.57,689.29,793.8,690.36Z"/><path class="cls-10" d="M806.15,690.51c-.1,2.31-3.6,4-8.69,2.87-4.45-1-8.52-1.32-8.41-3.63s4-4,8.74-3.79S806.26,688.21,806.15,690.51Z"/><path class="cls-11" d="M799,720c1.38,14,2,22-1,22-.83,0-1-8.42-1-22.5s1.17-24.74,1.5-25.5C798.93,693,797.14,701,799,720Z"/><path class="cls-9" d="M440.44,775.44c0,4.67,6.94-.76,14.05-.76s11.7,5.43,11.7.76S460.43,767,453.32,767,440.44,770.78,440.44,775.44Z"/><path class="cls-10" d="M431.08,783.31c0,3.29,6.83.85,15.25.85s19.43,2,15.25-.85c-8.71-5.95,0,0-15.25-5.95C440.37,775,431.08,783.31,431.08,783.31Z"/><path class="cls-10" d="M463.82,788.64c-3.8-.62-11-3.64-11-3.64,7.85-2.4,16.41-11.58,19.44-9.72,4.09,2.52,1.8,2.14.83,5.67C472,784.89,467.61,789.26,463.82,788.64Z"/><path class="cls-10" d="M434.28,771c7.79.84,11.73,9.25,10.84,14.1s-3.14-3.65-10.29-.92-13.76-6-13.71-11.34C421.18,766.34,426.5,770.11,434.28,771Z"/><path class="cls-10" d="M470.68,769.07c1.21-.42,7.93-2.1,9.15,2.18.89,3.15-20.45,16.33-20.19,13,.37-4.7,0,0,3.92-10.24C465.42,769.14,468.4,769.86,470.68,769.07Z"/><path class="cls-10" d="M442.32,783.88s5.82.28,9.8,2.48c0,0,1.39,3.7,6.59.71,12.52-7.2,4-15.89-4-13.92C421.73,781.3,444.12,781.94,442.32,783.88Z"/><path class="cls-10" d="M471.24,784.16c-.24,4.15-8.45,7.24-20.37,5.16-10.4-1.82-19.92-2.38-19.68-6.53s9.39-7.22,20.45-6.84S471.48,780,471.24,784.16Z"/><path class="cls-11" d="M454.49,837.33c3.22,25.27,4.68,39.67-2.34,39.67-1.94,0-2.34-15.18-2.34-40.57s2.75-44.61,3.51-46C454.32,788.63,450.12,803.07,454.49,837.33Z"/><path class="cls-9" d="M121.69,783.82c0,6,8.49-1,17.19-1s14.33,7,14.33,1S146.15,773,137.45,773,121.69,777.85,121.69,783.82Z"/><path class="cls-10" d="M110.23,793.91c0,4.22,8.36,1.09,18.67,1.09s23.78,2.57,18.66-1.09c-10.66-7.63,0,0-18.66-7.63C121.61,783.3,110.23,793.91,110.23,793.91Z"/><path class="cls-10" d="M150.3,800.74c-4.64-.8-13.42-4.66-13.42-4.66,9.6-3.08,20.08-14.85,23.79-12.46,5,3.22,2.21,2.74,1,7.26C160.35,795.93,154.94,801.54,150.3,800.74Z"/><path class="cls-10" d="M114.16,778.07c9.52,1.08,14.34,11.87,13.26,18.08s-3.84-4.68-12.59-1.17S98,787.24,98.05,780.43C98.12,772.15,104.63,777,114.16,778.07Z"/><path class="cls-10" d="M158.7,775.65c1.48-.53,9.71-2.69,11.2,2.8,1.09,4-25,20.93-24.71,16.67.45-6,0,0,4.79-13.12C152.27,775.75,155.91,776.66,158.7,775.65Z"/><path class="cls-10" d="M124,794.64s7.13.36,12,3.17c0,0,1.71,4.74,8.07.91,15.32-9.22,4.91-20.37-4.88-17.83C98.8,791.33,126.2,792.16,124,794.64Z"/><path class="cls-10" d="M159.38,795c-.29,5.32-10.33,9.29-24.92,6.62-12.74-2.33-24.39-3.05-24.09-8.37s11.5-9.25,25-8.77S159.67,789.67,159.38,795Z"/><path class="cls-11" d="M138.88,863.15c4,32.4,5.73,50.85-2.86,50.85-2.37,0-2.87-19.46-2.87-52s3.37-57.18,4.3-58.94C138.68,800.73,133.54,819.24,138.88,863.15Z"/><path class="cls-9" d="M609.87,560c0,1.66,2.1-.27,4.26-.27s3.56,1.93,3.56.27-1.75-3-3.91-3S609.87,558.34,609.87,560Z"/><path class="cls-10" d="M607,562.78c0,1.17,2.08.31,4.64.31s5.9.71,4.63-.31c-2.65-2.11,0,0-4.63-2.11C609.85,559.85,607,562.78,607,562.78Z"/><path class="cls-10" d="M617,564.67a18.74,18.74,0,0,1-3.33-1.29c2.38-.85,5-4.1,5.9-3.44,1.24.89.55.75.25,2S618.12,564.89,617,564.67Z"/><path class="cls-10" d="M608,558.4c2.36.3,3.56,3.29,3.29,5s-1-1.29-3.13-.32-4.17-2.14-4.16-4C604,556.77,605.63,558.1,608,558.4Z"/><path class="cls-10" d="M619.05,557.73c.37-.14,2.41-.74,2.78.78.27,1.11-6.21,5.79-6.13,4.61.11-1.67,0,0,1.19-3.63C617.45,557.76,618.36,558,619.05,557.73Z"/><path class="cls-10" d="M610.44,563a7.26,7.26,0,0,1,3,.88s.43,1.31,2,.26c3.8-2.56,1.21-5.64-1.22-4.94C604.19,562.07,611,562.3,610.44,563Z"/><path class="cls-10" d="M619.22,563.08c-.07,1.48-2.56,2.57-6.18,1.83-3.16-.64-6.06-.84-6-2.31s2.85-2.56,6.21-2.43S619.29,561.61,619.22,563.08Z"/><path class="cls-11" d="M614.13,581.93c1,9,1.42,14.07-.71,14.07-.59,0-.71-5.38-.71-14.39s.84-15.81,1.07-16.3A82.07,82.07,0,0,0,614.13,581.93Z"/><path class="cls-9" d="M908,824.68c0,2.59,3-.42,6-.42s5,3,5,.42-2.46-4.68-5.5-4.68S908,822.1,908,824.68Z"/><path class="cls-10" d="M904,829.05c0,1.82,2.92.47,6.51.47s8.3,1.11,6.52-.47c-3.72-3.31,0,0-6.52-3.31C908,824.45,904,829.05,904,829.05Z"/><path class="cls-10" d="M918,832a24.83,24.83,0,0,1-4.68-2c3.35-1.33,7-6.42,8.3-5.39,1.75,1.4.77,1.19.36,3.14C921.49,829.92,919.61,832.35,918,832Z"/><path class="cls-10" d="M905.37,822.19c3.32.47,5,5.14,4.63,7.83s-1.34-2-4.4-.51-5.87-3.35-5.85-6.3C899.77,819.63,902,821.73,905.37,822.19Z"/><path class="cls-10" d="M920.92,821.15c.51-.23,3.39-1.17,3.9,1.21.39,1.75-8.73,9-8.62,7.21.16-2.6,0,0,1.67-5.68C918.67,821.19,919.94,821.58,920.92,821.15Z"/><path class="cls-10" d="M908.8,829.36a9.37,9.37,0,0,1,4.19,1.37s.59,2.06,2.81.4c5.35-4,1.72-8.81-1.7-7.72C900,827.93,909.57,828.29,908.8,829.36Z"/><path class="cls-10" d="M921.15,829.51c-.1,2.31-3.6,4-8.69,2.87-4.45-1-8.52-1.32-8.41-3.63s4-4,8.74-3.79S921.26,827.21,921.15,829.51Z"/><path class="cls-11" d="M914,859c1.38,14,2,22-1,22-.83,0-1-8.42-1-22.5s1.17-24.74,1.5-25.5C913.93,832,912.14,840,914,859Z"/><path class="cls-9" d="M973,603.68c0,2.59,3-.42,6-.42s5,3,5,.42-2.46-4.68-5.5-4.68S973,601.1,973,603.68Z"/><path class="cls-10" d="M969,608.05c0,1.82,2.92.47,6.51.47s8.3,1.11,6.52-.47c-3.72-3.31,0,0-6.52-3.31C973,603.45,969,608.05,969,608.05Z"/><path class="cls-10" d="M983,611a24.83,24.83,0,0,1-4.68-2c3.35-1.33,7-6.42,8.3-5.39,1.75,1.4.77,1.19.36,3.14C986.49,608.92,984.61,611.35,983,611Z"/><path class="cls-10" d="M970.37,601.19c3.32.47,5,5.14,4.63,7.83s-1.34-2-4.4-.51-5.87-3.35-5.85-6.3C964.77,598.63,967,600.73,970.37,601.19Z"/><path class="cls-10" d="M985.92,600.15c.51-.23,3.39-1.17,3.9,1.21.39,1.75-8.73,9-8.62,7.21.16-2.6,0,0,1.67-5.68C983.67,600.19,984.94,600.58,985.92,600.15Z"/><path class="cls-10" d="M973.8,608.36a9.37,9.37,0,0,1,4.19,1.37s.59,2.06,2.81.4c5.35-4,1.72-8.81-1.7-7.72C965,606.93,974.57,607.29,973.8,608.36Z"/><path class="cls-10" d="M986.15,608.51c-.1,2.31-3.6,4-8.69,2.87-4.45-1-8.52-1.32-8.41-3.63s4-4,8.74-3.79S986.26,606.21,986.15,608.51Z"/><path class="cls-11" d="M979,638c1.38,14,2,22-1,22-.83,0-1-8.42-1-22.5s1.17-24.74,1.5-25.5C978.93,611,977.14,619,979,638Z"/><path class="cls-9" d="M67.81,569.23c0,1.23,1.6-.21,3.24-.21s2.7,1.44,2.7.21-1.33-2.23-3-2.23S67.81,568,67.81,569.23Z"/><path class="cls-10" d="M65.65,571.3c0,.87,1.57.22,3.51.22s4.49.53,3.52-.22c-2-1.57,0,0-3.52-1.57C67.79,569.12,65.65,571.3,65.65,571.3Z"/><path class="cls-10" d="M73.2,572.71a15,15,0,0,1-2.53-1c1.81-.64,3.78-3.06,4.48-2.57.95.67.42.57.19,1.5S74.07,572.87,73.2,572.71Z"/><path class="cls-10" d="M66.39,568c1.79.23,2.7,2.44,2.5,3.72s-.73-1-2.38-.24-3.17-1.59-3.16-3C63.36,566.83,64.59,567.82,66.39,568Z"/><path class="cls-10" d="M74.78,567.55c.28-.11,1.83-.56,2.11.57.21.83-4.72,4.31-4.66,3.43.09-1.24,0,0,.91-2.7C73.57,567.57,74.26,567.75,74.78,567.55Z"/><path class="cls-10" d="M68.24,571.45a5.66,5.66,0,0,1,2.26.65s.32,1,1.52.19c2.89-1.9.92-4.19-.92-3.67C63.49,570.77,68.66,570.94,68.24,571.45Z"/><path class="cls-10" d="M74.91,571.52c-.06,1.1-2,1.91-4.7,1.36-2.4-.47-4.59-.62-4.54-1.72s2.17-1.9,4.72-1.8S75,570.43,74.91,571.52Z"/><path class="cls-11" d="M71.05,585.54c.74,6.66,1.08,10.46-.54,10.46-.45,0-.54-4-.54-10.7a69.51,69.51,0,0,1,.81-12.12A59.53,59.53,0,0,0,71.05,585.54Z"/><path class="cls-12" d="M216.12,53.25C156.56-9.5,124.07-8,76.13,21.06S20.56,81.63,42.52,158.47"/><path class="cls-12" d="M205.48,40.53c39.77,116,24,102.49-36.24,139-47.94,29.06-79.41,21.24-137.36-33.78"/><path class="cls-13" d="M196.39,61.61C147.76,10,112.47,1,73.83,24.45s-44.62,49.1-26.36,112"/><path class="cls-13" d="M196.39,61.61c23.24,67,1.17,79.82-37.47,103.24S94.75,181.69,47.47,136.41"/><path class="cls-14" d="M186,67.89c-38.91-39.8-69.85-48.16-102.76-28.22s-38.7,40.7-25.43,90.46"/><path class="cls-14" d="M57.84,130.13c64.2,65.68,59.54,39,93.75,18.21,32.92-19.94,47.7-30.69,34.44-80.45"/><path class="cls-15" d="M177.66,73c-28.29-25.6-46.28-22.56-74.74-5.31S59,90.43,65.61,125.42"/><path class="cls-15" d="M178.25,72.6c9.6,36.93-1.41,51.47-29.87,68.72S94.16,147.1,66.2,125.06"/><path class="cls-16" d="M166.07,81.73c-19.65-17.57-32.26-15.35-52.29-3.21s-24.66,23-20.26,47.18"/><path class="cls-16" d="M166.07,81.73c6.49,25.55-1.32,35.7-21.35,47.84S113,140.8,93.52,125.7"/><polyline class="cls-4" points="835.29 516.87 833.28 501.66 833.23 490.89 829.3 507.43 826.97 498.31 823.81 510.98 823.81 510.98"/><ellipse class="cls-17" cx="389" cy="94" rx="91" ry="50"/><ellipse class="cls-17" cx="499" cy="83" rx="91" ry="50"/><ellipse class="cls-17" cx="476" cy="125.5" rx="102" ry="31.5"/><ellipse class="cls-17" cx="611.5" cy="120" rx="88.5" ry="37"/><ellipse class="cls-17" cx="972.5" cy="120" rx="88.5" ry="37"/><ellipse class="cls-17" cx="1061" cy="93" rx="86" ry="40"/><ellipse class="cls-17" cx="1103" cy="156" rx="92" ry="31"/><ellipse class="cls-17" cx="1152.5" cy="112.5" rx="23.5" ry="29.5"/><ellipse class="cls-17" cx="1145.5" cy="119" rx="62.5" ry="14"/><ellipse class="cls-17" cx="1424.5" cy="113" rx="62.5" ry="14"/><ellipse class="cls-17" cx="1472.5" cy="101" rx="55.5" ry="18"/><ellipse class="cls-17" cx="1422" cy="93" rx="33" ry="19"/><ellipse class="cls-17" cx="1384" cy="86" rx="58" ry="26"/><ellipse class="cls-17" cx="1468.5" cy="69" rx="70.5" ry="25"/><ellipse class="cls-18" cx="1379.5" cy="263" rx="42.5" ry="19"/><ellipse class="cls-18" cx="1426.5" cy="253.5" rx="46.5" ry="9.5"/><ellipse class="cls-18" cx="1402" cy="242" rx="40" ry="21"/><ellipse class="cls-18" cx="1437.5" cy="233.5" rx="35.5" ry="19.5"/><ellipse class="cls-17" cx="1109.5" cy="116" rx="26.5" ry="11"/><ellipse class="cls-17" cx="1075" cy="119.5" rx="35" ry="7.5"/><ellipse class="cls-19" cx="1225" cy="62" rx="48" ry="20"/><ellipse class="cls-19" cx="1208.5" cy="43.5" rx="37.5" ry="18.5"/><ellipse class="cls-19" cx="1257" cy="44" rx="33" ry="10"/><ellipse class="cls-19" cx="1246.5" cy="30" rx="37.5" ry="13"/><ellipse class="cls-20" cx="368.5" cy="273.5" rx="101.5" ry="29.5"/><ellipse class="cls-20" cx="425" cy="253.5" rx="74" ry="19.5"/><ellipse class="cls-20" cx="377.5" cy="247" rx="62.5" ry="26"/><ellipse class="cls-20" cx="493" cy="286.5" rx="85" ry="16.5"/><ellipse class="cls-21" cx="162.5" cy="179" rx="85.5" ry="35"/><ellipse class="cls-21" cx="185.5" cy="144" rx="51.5" ry="18"/><ellipse class="cls-21" cx="253" cy="175.5" rx="83" ry="3.5"/><ellipse class="cls-21" cx="226" cy="210.5" rx="56" ry="23.5"/><ellipse class="cls-21" cx="226" cy="156.5" rx="56" ry="0.5"/><ellipse class="cls-21" cx="276.5" cy="165.5" rx="91.5" ry="21.5"/><ellipse class="cls-21" cx="277.5" cy="194.5" rx="58.5" ry="15.5"/><ellipse class="cls-21" cx="751" cy="142.5" rx="21" ry="3.5"/><ellipse class="cls-21" cx="755.5" cy="136.5" rx="11.5" ry="3.5"/><ellipse class="cls-21" cx="745.5" cy="138.5" rx="5.5" ry="1.5"/><ellipse class="cls-21" cx="747" cy="146" rx="4" ry="3"/><ellipse class="cls-21" cx="772" cy="140" rx="12" ry="3"/><ellipse class="cls-18" cx="855.5" cy="179.5" rx="12.5" ry="3.5"/><ellipse class="cls-18" cx="865.5" cy="178.5" rx="13.5" ry="4.5"/><ellipse class="cls-18" cx="863" cy="182.5" rx="11" ry="4.5"/><ellipse class="cls-18" cx="880.5" cy="183" rx="17.5" ry="4"/><path class="cls-22" d="M1609.21,618.68l-4.89,242.65c-.3,13.58-132.78,40.93-227.34,3.27h.24c-5.16-.11-6-1-5.92-2.05l5.75-258.23a1.86,1.86,0,0,1,1.84-1.88h-.24C1511,579.83,1609.54,603.93,1609.21,618.68Z"/><path class="cls-23" d="M1391,681.59,1388.7,783.2c-1,45-11.77,83.62-15.1,81.89l-19.55-.44c-3.53,6.27-7.71-5.11-7.57-11.21l5.41-243.05c.11-4.72,4-15.13,10.09-8.32l20.32.45C1390.12,602.69,1391,681.38,1391,681.59Z"/><path class="cls-24" d="M1357.32,600.85c6.69,6.5,17.28,89.82,10.08,132.44-12.15,71.87-8.78,132-16,131.85s-1.84-57.81-10.08-132.44C1333.34,660.23,1352,595.7,1357.32,600.85Z"/><path class="cls-25" d="M1383.34,602.64c-.41,0,1.05-.23,1.32.09,6.1,7.2,5,66.49,6.67,132.56,2.22,87.46-12.24,133.61-16.4,128.15,4.49-5.68,12.26-60.85,14.3-127.41C1391.13,674.28,1386.47,602.71,1383.34,602.64Z"/><path class="cls-22" d="M1607.42,609.2c17.89,3.23,17,50.95,15.27,129.53s-11.63,127.84-20.39,131.72c-37.64,16.66-16.26-53.92-14.51-132.5S1565.28,601.59,1607.42,609.2Z"/><path class="cls-26" d="M1617.9,813.3l-3.37,25.76c-2.12,1.73,6.28,7.64-60.31,1.71l-15.63-.35c-5.15-.11-73,0-69.07-11.48l.33-14.74c2.88-12.46-1.89-8.68,24.4-9.73l38.53,2C1585.16,809.24,1619.11,806.11,1617.9,813.3Z"/><path class="cls-27" d="M1475,656.5l3.28-25.77c2.12-1.74-6.3-7.61,60.31-2l15.63.29c5.15.09,67.79.46,66,10.42L1623,655.1c.67,14.55,2,8.57-29.83,9.11l-38.53-1.82C1507.76,660.43,1473.82,663.7,1475,656.5Z"/><path class="cls-27" d="M1472.41,772.54l3.28-25.77c2.12-1.74-6.31-7.61,60.3-1.95l15.63.28c5.15.1,64.19-1.84,69.12,11.2l-.28,14.74c.67,14.56,1.92,8.68-29.88,9.21L1552,778.44C1505.17,776.47,1471.23,779.74,1472.41,772.54Z"/><path class="cls-26" d="M1622.77,688.42l-.29,28.05c-2.13,1.73,6.27,7.64-60.32,1.71l-15.63-.35c-5.14-.11-73,0-69.07-11.47l.33-14.75c2.88-12.46-1.89-8.68,29.91-9.08l38.53,2C1593.1,686.65,1622.77,688.42,1622.77,688.42Z"/><path class="cls-28" d="M1575.56,874.38l-58.75,9.43-12.55.29-3.5-.64c-.09,0,16.09.31,16,.36-3.87,2.71-53.86-1-61.83-2.89a.46.46,0,0,1,0-.9l60.33-1.24s12,.26,12,.27l-12-.27,12,.27c.69,0,35.34-5.76,48.21-5.58A.45.45,0,0,1,1575.56,874.38Z"/><path class="cls-27" d="M1527.64,678.52l-12.56.28-3.49-.63"/><path class="cls-28" d="M1530,594.7l48.85,6.64,22.25,7.16-1.1,2.76-29-6.21c-.22,0,12.85,3,12.64,3l-12.64-3-14.54-2.54-71.76-7.71.56-1.66,39.58,1.44A37.7,37.7,0,0,1,1530,594.7Z"/><path class="cls-29" d="M1570.35,631.52c-.12,0-60.47.11-60.59.1l-16.9-1.81"/><path class="cls-29" d="M1617.37,813.66c-.11,0-60.46.11-60.58.1l-16.9-1.81"/><path class="cls-29" d="M1539.85,643.62l-60.59.1-16.9-1.81"/><path class="cls-29" d="M1539.85,643.62l-60.59.1-16.9-1.81"/><path class="cls-29" d="M1539.85,643.62l-60.59.1-16.9-1.81"/><path class="cls-30" d="M1559.66,877.37c-.12,0-60.47.11-60.58.1l-16.91-1.81"/><path class="cls-24" d="M1570.26,822.89c-.08,0-37.76,2.41-37.83,2.41l-10.49-3.45"/><path class="cls-9" d="M1465.18,719.35c25.87-6.13,47.45,22.7,46.86,49.38A48.13,48.13,0,0,1,1463,816c-26.47-.59-41.82-18.15-46.85-49.37C1411.93,740.31,1439.51,725.45,1465.18,719.35Z"/><path class="cls-9" d="M1453.76,693.82c-2.66-13.65,11.18-25,24.27-24.73s18.8,10.42,23.14,25.79c3.78,13.35-11.17,25-24.26,24.73S1456.1,705.82,1453.76,693.82Z"/><path d="M1435,739.24c10.36.23,18.51,11.58,18.26,22.62s-8.93,18.08-19.2,19.57c-9.94,1.45-18.56-9.36-18.31-20.4S1424.67,739,1435,739.24Z"/><path class="cls-9" d="M1421.39,755c1.87,0-.3,1.74-.35,3.88s2,3.94.17,3.89a3.92,3.92,0,0,1,.18-7.77Z"/><path d="M1456.14,680.82c3.45.08,9.36,1,9.28,4.65s-1.7,9-6.44,8.19c-5.8-1-5.63-4.57-5.64-4C1453.25,693.33,1452.69,680.75,1456.14,680.82Z"/><path class="cls-9" d="M1456,685.26c.86,0,.51.61.48,1.68s.3,2.23-.57,2.21a2,2,0,0,1,.09-3.89Z"/><ellipse cx="1514.73" cy="731.38" rx="2.59" ry="1.33" transform="translate(749.8 2229.44) rotate(-88.72)"/><ellipse cx="1515.05" cy="719.03" rx="1.9" ry="0.99" transform="matrix(0.02, -1, 1, 0.02, 762.47, 2217.7)"/><path class="cls-9" d="M1535.21,693.69c14.8,6,37.79,22.51,44,53.65,5.32,26.8-14.9,43.84-29.83,49.85-38.28,15.4-28.21-23.25-27.59-51.13S1507.7,682.53,1535.21,693.69Z"/><path class="cls-31" d="M1554.44,708.56c5.85-2.81,23.74,16.93,27.21,27,5.78,16.81,6,29.28.18,32.09s-6.15-13.47-13.71-29.79S1548.59,711.36,1554.44,708.56Z"/><polygon class="cls-32" points="1308.94 844.31 1303.45 846.01 1316.73 888.81 1333.53 883.6 1308.94 844.31"/><polygon class="cls-32" points="1190.67 881.01 1195.12 879.63 1208.4 922.42 1191.6 927.63 1190.67 881.01"/><path class="cls-25" d="M1209.1,849.59l11.07-9.15c11.41-10.47,131.36-38.1,133.86-30.05l5.87,18.92L1135.36,899l-5.44-17.53C1127.19,872.64,1197.89,848.58,1209.1,849.59Z"/><path class="cls-22" d="M1359.73,828.76c2.58,8.32-43.79,37.6-107.59,49.9-59.05,11.39-114.37,28.09-117,19.77s45.59-30.67,107.59-49.91S1357.15,820.43,1359.73,828.76Z"/><path class="cls-32" d="M1191.6,927.63l141.93-44,5.24,16.91a3.58,3.58,0,0,1-2.17,4.57L1202,946.85a4.43,4.43,0,0,1-5.4-3.13Z"/><polygon class="cls-32" points="1325.37 870.63 1317.83 872.97 1317.83 872.97 1325.37 870.63 1325.37 870.63"/><path class="cls-33" d="M1348.15,663.13c-17.54-23.49-44.32-24.48-45-38.77-.48-9.56,11.3-12.87,9-20.48-3.47-11.3-30.83-8.35-36.24-21.64-2.85-7,1.36-16,5.57-16.64,5.29-.78,6.83,12.33,20.53,20.94,13.41,8.42,25.63,4.48,28.42,10.94,1.56,3.6-2.2,4.89-9,20.48-4.19,9.64-1.18,8.94.76,15.8.71,2.51,4.92,5.38,5.2,5.88,3.18,5.51,13.06,8.11,19.05,9.4,11.6,2.49,5.68-.08,13.95,2.93"/><path class="cls-34" d="M1195.29,792.82c-58.24,9.45,12.31,27.47,39.86,2.73,22.83-20.5,110.71,7.77,108.58-23.41-3-43-21.1,15.71-63.67,5.29C1264.26,773.57,1234.65,786.44,1195.29,792.82Z"/><path class="cls-35" d="M1358.33,710.14c-32.43-9.22-29.65-35-51-30.88-14.25,2.74-21.1,15.32-32.13,15.6-16.39.41-7.62-27.23-26.69-28.05-10-.43-24.25,6.7-25.84,11-2,5.42,17.4,2.53,28.13,13,10.51,10.23,2.66,23.46,11.9,24,5.14.31,7.67-3.78,32.13-15.6,15.12-7.3,13.59-4.14,23.58-4.55,3.64-.15,7.28,3,8,3.1,7.76,1.25,10.09,10,11.07,15.4,1.89,10.47-1,5.56,2.16,12.61"/><ellipse cx="1260.5" cy="732.63" rx="10.5" ry="2.78"/><ellipse cx="1254.5" cy="729.58" rx="0.75" ry="3.06"/><ellipse cx="1257.5" cy="730.13" rx="2.25" ry="3.61"/><ellipse cx="1272.5" cy="629.63" rx="6.5" ry="2.78"/><ellipse cx="1276.21" cy="626.58" rx="0.46" ry="3.06"/><ellipse cx="1274.36" cy="627.13" rx="1.39" ry="3.61"/><ellipse cx="1312" cy="802.19" rx="9" ry="2.81"/><ellipse cx="1317.14" cy="799.09" rx="0.64" ry="3.09"/><ellipse cx="1314.57" cy="799.66" rx="1.93" ry="3.66"/><path class="cls-9" d="M1079,508.68c0,2.59,3-.42,6-.42s5,3,5,.42-2.46-4.68-5.5-4.68S1079,506.1,1079,508.68Z"/><path class="cls-10" d="M1075,513.05c0,1.82,2.92.47,6.51.47s8.3,1.11,6.52-.47c-3.72-3.31,0,0-6.52-3.31C1079,508.45,1075,513.05,1075,513.05Z"/><path class="cls-10" d="M1089,516a24.83,24.83,0,0,1-4.68-2c3.35-1.33,7-6.42,8.3-5.39,1.75,1.4.77,1.19.36,3.14C1092.49,513.92,1090.61,516.35,1089,516Z"/><path class="cls-10" d="M1076.37,506.19c3.32.47,5,5.14,4.63,7.83s-1.34-2-4.4-.51-5.87-3.35-5.85-6.3C1070.77,503.63,1073,505.73,1076.37,506.19Z"/><path class="cls-10" d="M1091.92,505.15c.51-.23,3.39-1.17,3.9,1.21.39,1.75-8.73,9-8.62,7.21.16-2.6,0,0,1.67-5.68C1089.67,505.19,1090.94,505.58,1091.92,505.15Z"/><path class="cls-10" d="M1079.8,513.36a9.37,9.37,0,0,1,4.19,1.37s.59,2.06,2.81.4c5.35-4,1.72-8.81-1.7-7.72C1071,511.93,1080.57,512.29,1079.8,513.36Z"/><path class="cls-10" d="M1092.15,513.51c-.1,2.31-3.6,4-8.69,2.87-4.45-1-8.52-1.32-8.41-3.63s4-4,8.74-3.79S1092.26,511.21,1092.15,513.51Z"/><path class="cls-11" d="M1085,543c1.38,14,2,22-1,22-.83,0-1-8.42-1-22.5s1.17-24.74,1.5-25.5C1084.93,516,1083.14,524,1085,543Z"/></g></svg>
