<svg id="Layer_1" data-name="Layer 1" xmlns="http://www.w3.org/2000/svg" xmlns:xlink="http://www.w3.org/1999/xlink" width="610" height="1090" viewBox="0 0 610 1090"><defs><style>.cls-1{fill:none;}.cls-2{clip-path:url(#clip-path);}.cls-3{opacity:0.51;}.cls-4{fill:#fb5f27;}.cls-5{fill:#f2e3b0;}.cls-6{fill:#fbdc68;}.cls-7{fill:#fb7a20;}.cls-8{fill:#fb7726;}.cls-9{fill:#fb6068;}.cls-10{fill:#fb893e;}.cls-11{fill:#fb6c29;}</style><clipPath id="clip-path"><rect class="cls-1" x="-732" y="55.5" width="396" height="454"/></clipPath></defs><title>sugrør</title><g class="cls-2"><image class="cls-3" width="2898" height="2294" transform="translate(-1973.41 -774.95) scale(1.05 0.66)" xlink:href="../dokumentation/tirsdag%20dokumentation/IMG_1692.JPG"/></g><ellipse class="cls-4" cx="546" cy="161.5" rx="5" ry="16"/><path class="cls-5" d="M218.52,993.5h-27A20.53,20.53,0,0,1,171,973V351.5c-1,9,0-34,8.48-42H224c4.68,0,1,58.32,1,63L227,985A8.48,8.48,0,0,1,218.52,993.5Z"/><ellipse class="cls-5" cx="215.28" cy="271.34" rx="16" ry="32" transform="translate(-109.51 391.67) rotate(-71.9)"/><ellipse class="cls-5" cx="209.84" cy="287.98" rx="17.5" ry="32" transform="translate(-129.07 397.97) rotate(-71.9)"/><ellipse class="cls-5" cx="203.17" cy="308.41" rx="12" ry="32" transform="translate(-153.1 405.71) rotate(-71.9)"/><ellipse class="cls-5" cx="203.4" cy="322.17" rx="5" ry="27.5" transform="translate(-166.01 415.42) rotate(-71.9)"/><circle class="cls-5" cx="203.51" cy="259.08" r="8"/><ellipse class="cls-5" cx="220.57" cy="256.76" rx="7.5" ry="23.5" transform="translate(-92.01 386.65) rotate(-71.9)"/><path class="cls-5" d="M538.34,186.17,229.69,266.52A24.35,24.35,0,0,1,200,249.09l-1.08-4.16C195.52,231.91,237,204.5,335,190.5l188-49c13-3.39,28.3-2.2,31.69,10.81l1.08,4.16A24.34,24.34,0,0,1,538.34,186.17Z"/><path class="cls-6" d="M204.32,263.6l20.58,9c4.87,2.14,9.77,5.18,15.24,4.37,1.9-.28,1.1-3.17-.8-2.89-5.62.83-13.24-4.21-18.29-6.42L205.83,261c-1.75-.77-3.28,1.81-1.51,2.59Z"/><path class="cls-7" d="M189.79,291.32c11.67-.39,24.13,12,35,2.74,1.47-1.26-.66-3.37-2.12-2.12-9.25,7.88-22.64-4-32.89-3.62-1.92.06-1.93,3.06,0,3Z"/><path class="cls-8" d="M185.1,316.06a91.11,91.11,0,0,0,33.76-1.43c1.88-.44,1.09-3.33-.79-2.9a87.09,87.09,0,0,1-32.17,1.44c-1.89-.27-2.7,2.62-.8,2.89Z"/><path class="cls-9" d="M200.67,261.09a47.54,47.54,0,0,0,27.94,12.16c1.92.17,1.91-2.83,0-3A44.11,44.11,0,0,1,202.79,259c-1.43-1.28-3.56.83-2.12,2.13Z"/><path class="cls-10" d="M196.06,271.62a47.7,47.7,0,0,0,37,15.13c1.92-.08,1.93-3.08,0-3a44.8,44.8,0,0,1-34.89-14.25c-1.32-1.42-3.44.71-2.12,2.12Z"/><path class="cls-11" d="M185.37,305.22a196.38,196.38,0,0,0,32.8.73c1.92-.12,1.94-3.12,0-3a196.38,196.38,0,0,1-32.8-.73c-1.92-.2-1.9,2.8,0,3Z"/></svg>
