<svg id="Layer_1" data-name="Layer 1" xmlns="http://www.w3.org/2000/svg" width="1920" height="1080" viewBox="0 0 1920 1080"><defs><style>.cls-1{fill:#ff9d1f;}.cls-2{fill:#ccc;}.cls-21,.cls-22,.cls-23,.cls-24,.cls-3,.cls-4,.cls-5{fill:none;}.cls-3{stroke:#4d4d4d;}.cls-3,.cls-4{stroke-miterlimit:10;}.cls-21,.cls-22,.cls-23,.cls-24,.cls-3{stroke-width:8px;}.cls-4{stroke:#42210b;stroke-width:7px;}.cls-6{fill:#a67c52;}.cls-7{fill:#8c6239;}.cls-8{fill:#c69c6d;}.cls-9{fill:#f2f2f2;}.cls-10{fill:gray;}.cls-11{fill:#4d4d4d;}.cls-12,.cls-13,.cls-14,.cls-57{fill:#b3b3b3;}.cls-12,.cls-26,.cls-29,.cls-36,.cls-43{opacity:0.5;}.cls-14,.cls-34,.cls-37,.cls-59{opacity:0.6;}.cls-15{fill:#666;}.cls-16{fill:#999;}.cls-17{fill:#fff;}.cls-18{fill:#ffed00;}.cls-19{fill:#35a3ff;}.cls-20{fill:#000068;}.cls-21{stroke:#1935a0;}.cls-21,.cls-22,.cls-23,.cls-24{stroke-linecap:round;stroke-linejoin:round;}.cls-22{stroke:#3d64ad;}.cls-23{stroke:#2d509e;}.cls-24{stroke:#0000ad;}.cls-25{fill:#1fb0ff;}.cls-26,.cls-28{fill:#0071bc;}.cls-27{fill:#3fb4f5;}.cls-27,.cls-28,.cls-48,.cls-49{opacity:0.8;}.cls-29{fill:#00a99d;}.cls-30{fill:#eadc12;}.cls-31{fill:#f8e800;}.cls-32{fill:#44370c;}.cls-33,.cls-37{fill:#fbb03b;}.cls-33,.cls-38,.cls-39,.cls-45,.cls-57,.cls-58{opacity:0.2;}.cls-34,.cls-35,.cls-36{fill:#e8422d;}.cls-38{fill:#006837;}.cls-39{fill:#3fa9f5;}.cls-40{fill:#5f4300;}.cls-41{fill:#310000;}.cls-42{fill:#4c2300;}.cls-43{fill:#fff0c9;}.cls-44{fill:#d42300;}.cls-45{fill:#ffae5c;}.cls-46{fill:#072409;opacity:0.7;}.cls-47{fill:#001d06;}.cls-48{fill:#19210c;}.cls-49{fill:#001802;}.cls-50{fill:#f2e3b0;}.cls-51{fill:#fbdc68;}.cls-52{fill:#fb7a20;}.cls-53{fill:#fb7726;}.cls-54{fill:#fb6068;}.cls-55{fill:#fb893e;}.cls-56{fill:#fb6c29;}.cls-58,.cls-59{fill:#ff7bac;}.cls-60{fill:#9e005d;opacity:0.4;}.cls-61{fill:#74791d;opacity:0.9;}.cls-62{fill:#968a00;}.cls-63{fill:#738a00;}.cls-64{fill:#3b7500;}</style></defs><title>titelskærm</title><rect class="cls-1" x="-13" y="3" width="1940" height="1080"/><path class="cls-2" d="M773.54,522.13l-24.26,26.33c-3.52,5.89-53.83,16.54-36.57,16.54l-16.82-5c-3.23-13.92-14.62-3.33-18.53-9.54l-12.54-27.09c-5.29,9.27-7-17.41-.26-28.62L678,472.17a20.76,20.76,0,0,1,17-9.95l36.44-1.56c7.52-.33,22.23,10.54,35.59,10.94l.24,26.07C771.16,503.88,765.75,518.23,773.54,522.13Z"/><path class="cls-2" d="M774.43,502.91,736.9,526.82,735.09,557c-.33,5.42-6.92,8.16-11.22,4.66l-22.74-18.51L658.7,555.79l17-40.59-15.59-23.45c-3.37-5.07-17-13.43-10.77-13.16l46.43,3L727.6,454l6,34.75Z"/><polygon class="cls-2" points="756.05 515.81 751.41 559.76 703.56 551.76 666.19 500.91 673.75 457.51 718.69 464.96 756.05 515.81"/><polyline class="cls-3" points="697.69 534.11 691.01 518.66 680.69 514.02 689.04 497.54"/><line class="cls-3" x1="715.22" y1="511.46" x2="723.57" y2="494.99"/><line class="cls-3" x1="752.94" y1="488.94" x2="744.03" y2="510.21"/><line class="cls-3" x1="731.1" y1="520.54" x2="724.42" y2="505.08"/><line class="cls-3" x1="746.48" y1="485.89" x2="738.13" y2="469.41"/><polyline class="cls-4" points="704.41 524.42 701.44 497.76 738.25 485.65"/><polyline class="cls-4" points="708.35 524.74 734.69 533.25 755.49 515.49"/><polyline class="cls-4" points="680.76 485.65 690.73 490.43 700.11 485.65"/><line class="cls-5" x1="703.1" y1="473.62" x2="711.6" y2="477.65"/><line class="cls-6" x1="726.35" y1="469.45" x2="715.21" y2="491.9"/><line class="cls-5" x1="746.54" y1="482.76" x2="735.4" y2="505.2"/><line class="cls-5" x1="695.86" y1="481.55" x2="719.81" y2="480.47"/><line class="cls-5" x1="701.43" y1="537.45" x2="727.74" y2="518.91"/><line class="cls-5" x1="744.03" y1="539.33" x2="770.34" y2="520.79"/><line class="cls-5" x1="720.78" y1="537.45" x2="747.09" y2="518.91"/><line class="cls-5" x1="673.45" y1="501.84" x2="699.76" y2="483.3"/><line class="cls-7" x1="719.39" y1="542.15" x2="722.17" y2="518.91"/><line class="cls-5" x1="711.6" y1="520.52" x2="711.04" y2="540.81"/><line class="cls-5" x1="754.75" y1="528.18" x2="740.97" y2="515.82"/><line class="cls-8" x1="755.45" y1="499.56" x2="731.92" y2="497.54"/><line class="cls-5" x1="673.45" y1="501.84" x2="649.93" y2="499.82"/><line class="cls-8" x1="694.05" y1="498.62" x2="697.95" y2="515.55"/><path class="cls-2" d="M1234.39,1243l-516,1.1c-28.89,0-93.29-278.81-17.72-480.47v.49c0-10.91,1.83-12.61,4.08-12.61h549.22a4,4,0,0,1,4.07,3.8v-.5C1312.33,1033.6,1265.77,1243,1234.39,1243Z"/><path class="cls-9" d="M1090.33,784.55H874.23c-95.65,0-178.31-20.94-174.79-28.08V715.12c-13.5-7.16,10.51-16.53,23.47-16.53h516.93c10,0,32.34,7.71,18.17,20.94v43C1258,779,1090.78,784.55,1090.33,784.55Z"/><path class="cls-10" d="M1260.37,709.61c-13.5,14.47-190.12,40.77-281,27.55C826,714.86,698.28,724.83,698.28,709.61S821.09,703,979.33,682.06C1133,661.73,1271.08,698.14,1260.37,709.61Z"/><path class="cls-11" d="M1257.79,764.71c0-.86.55,2.2-.11,2.79-15,13.24-141.11,13.69-281.47,20.35C790.39,796.67,691.6,768.27,703,759.2c12.29,9.24,129.94,23.06,271.52,24.24C1105.89,784.55,1257.79,771.32,1257.79,764.71Z"/><path class="cls-12" d="M821.09,1270.53l-54.92-5.92c-3.78-4.41-15.93,13.63-6.48-127.42v-33.06c0-10.89-3.55-154.28,21.12-146.57h31.36c26.63,5.51,18.37-4.41,21.83,51.13l-2.36,81.55C828.18,1201.1,836.44,1272.73,821.09,1270.53Z"/><path class="cls-13" d="M1147.64,961l54.95,5.72c3.79,4.4,15.87-13.68,7,127.4l.14,33.06c0,10.89,2.22,143.34-19,140l-33.07,6.61c-30.91,2.1-18.13,4.59-20.77-62.62l2-81.56C1140.84,1030.46,1132.28,958.86,1147.64,961Z"/><path class="cls-13" d="M900.84,961l54.95,5.72c3.79,4.4,15.87-13.68,7,127.4l.14,33.06c0,10.89,7,135.62-20.53,146.64l-31.35.12c-30.92,2.09-18.35,4.47-21-62.74l2-81.56C894,1030.46,885.48,958.86,900.84,961Z"/><path class="cls-12" d="M1086.78,1274.94l-59.64.69c-3.78-4.41-15.93,13.63-6.48-127.42v-33.06c0-10.89-3.55-154.28,21.12-146.57h31.36c26.63,5.51,18.37-4.41,20.73,62.81l-2.36,81.55C1089.15,1212.12,1086.78,1274.94,1086.78,1274.94Z"/><path class="cls-14" d="M689.24,1183.89l-22.83-123.77s-1.19-26.47-1.19-26.52l1.18-7.42c0-.19.12,34,0,33.87-5.94-8.06-.39-113.92,3.22-130.86a1,1,0,0,1,1.9,0l5.51,127.5s0,25.29,0,25.35v0c.05,1.45,13.9,74.42,14.13,101.65A1,1,0,0,1,689.24,1183.89Z"/><path class="cls-13" d="M1103.33,1073.35s-1.2-26.48-1.2-26.53l1.19-7.42"/><path class="cls-14" d="M1281.62,1074.37,1269.82,1178l-14.17,47.39-5.91-2.21,11.81-61.71c.08-.47-5.85,27.32-5.73,26.86l5.73-26.86,4.72-30.86,13-152.07,3.55,1.1-1.19,83.75C1281.77,1065.46,1282,1072.29,1281.62,1074.37Z"/><path class="cls-15" d="M1205.26,1161.43c0-.24-3.09-127.83-3.09-128.08l3.06-35.82"/><path class="cls-15" d="M1178.1,1097.51c0-.24-3.09-127.83-3.09-128.08l3.06-35.82"/><path class="cls-15" d="M1178.1,1097.51c0-.24-3.09-127.83-3.09-128.08l3.06-35.82"/><path class="cls-15" d="M1178.1,1097.51c0-.24-3.09-127.83-3.09-128.08l3.06-35.82"/><path class="cls-16" d="M682.15,1150.41c0-.24-3.1-127.83-3.1-128.08l3.06-35.82"/><path class="cls-10" d="M798.45,1170.25c-.05-.16-6.91-79.71-6.91-79.86l6.83-22.33"/><path class="cls-17" d="M1013.57,943.23c14.27,54.39-46,101.39-102.73,101.39S808.1,999.23,808.1,943.23,844.71,854,910.84,841.85C966.51,831.64,999.4,889.24,1013.57,943.23Z"/><path class="cls-17" d="M1067.3,917.89c28.9-6.27,53.73,22.45,53.73,50.14s-21.26,40.22-53.73,50.14c-28.2,8.61-53.73-22.45-53.73-50.14S1041.91,923.4,1067.3,917.89Z"/><path d="M956.89,933.32c0,21.91-23.76,39.67-47.23,39.67s-38.85-18-42.51-39.67c-3.55-20.94,19-39.68,42.51-39.68S956.89,911.41,956.89,933.32Z"/><path class="cls-17" d="M920.28,926.15c0,4-3.7,5-8.26,5s-8.27-1-8.27-5S907.45,919,912,919,920.28,922.2,920.28,926.15Z"/><path d="M1062,954.25c0,7.31-1.63,19.84-9.45,19.84s-19.16-3.15-17.71-13.22c1.77-12.31,9.44-12.13,8.26-12.13C1035.27,948.74,1062,947,1062,954.25Z"/><path class="cls-17" d="M1051.36,957.56a3.24,3.24,0,0,1-3.54,3.31c-2.29,0-4.73-1.48-4.73-3.31s1.85-3.31,4.14-3.31S1051.36,955.73,1051.36,957.56Z"/><ellipse cx="991.21" cy="1031.36" rx="4.79" ry="2.64"/><ellipse cx="1014.1" cy="1031.91" rx="4.9" ry="3.09"/><path class="cls-17" d="M1071.43,1083.06c-12.08,31.59-46,81-112,95.48-56.73,12.5-93.9-29.45-107.38-60.73-34.55-80.19,48.08-60.73,107.38-60.73S1093.87,1024.39,1071.43,1083.06Z"/><path class="cls-2" d="M674,1100c-14,80.25,56.37,17-3,17s-39,11-77-46c-78.21-117.32-138-156-17-231C627.46,808.72,693,991,674,1100Z"/><path class="cls-18" d="M568,801,461,855l36,85.37A17.64,17.64,0,0,0,514.63,958l62.47-41C665,865,639,870,621,848Z"/><path class="cls-18" d="M610,768.73C610,729,592,761,575,761s-34-2-34,14-2,69,15,69S610,784.75,610,768.73Z"/><path class="cls-18" d="M565.82,768.65c-9.63,32.26-14.24,59-29.3,54.51s-29.9-44.24-20.27-76.5S516.54,717.23,530,711C546.05,703.57,575.45,736.4,565.82,768.65Z"/><path class="cls-18" d="M527.71,786.12c2.25,32,8.12,57.27-11.58,58.66s-54.11-28.24-56.36-60.2-17-43.58-3.72-53.88C471.88,718.41,525.46,754.16,527.71,786.12Z"/><path class="cls-18" d="M487.83,813.24c28.36,30.77,53.53,53.11,41.52,64.18s-60.07-1.82-88.43-32.59-63.53-46.39-47.57-51.62C394,793,459.48,782.47,487.83,813.24Z"/><path class="cls-2" d="M1333.72,1111c78.21-117.32,138-156,17-231-50.46-31.28-116,151-97,260"/><path class="cls-18" d="M1359.72,841l107,54-36,85.37A17.64,17.64,0,0,1,1413.08,998l-62.46-41c-87.9-52-61.9-47-43.9-69Z"/><path class="cls-18" d="M1317.72,808.73c0-39.73,18-7.73,35-7.73s34-2,34,14,2,69-15,69S1317.72,824.75,1317.72,808.73Z"/><path class="cls-18" d="M1361.9,808.65c9.63,32.26,14.24,59,29.29,54.51s29.91-44.24,20.28-76.5-.3-29.43-13.75-35.66C1381.67,743.57,1352.27,776.4,1361.9,808.65Z"/><path class="cls-18" d="M1400,826.12c-2.25,32-8.11,57.27,11.59,58.66s54.11-28.24,56.36-60.2,17-43.58,3.72-53.88C1455.84,758.41,1402.25,794.16,1400,826.12Z"/><path class="cls-18" d="M1439.89,853.24c-28.36,30.77-53.53,53.11-41.52,64.18s60.07-1.82,88.43-32.59,63.53-46.39,47.57-51.62C1533.72,833,1468.24,822.47,1439.89,853.24Z"/><path class="cls-19" d="M725.55,733.72c10.38,50.07-103,10.59-103-2.24a9.24,9.24,0,0,1,.25-2.29c5-18,39.2-53.82,71.35-42.48,4.34,1.53,15.18,6.23,24.27,21.07"/><path d="M698.27,719a46.1,46.1,0,0,1-15.84-13.84c-2.08-3-2.88-2.51-2.88-2.51Z"/><path d="M698.17,702.38a54,54,0,0,1-15.69,17.75"/><path class="cls-20" d="M722.62,711.27c.06-1.93,35.38-3.85,75.86,4.14,45.65,9,78.56,26.79,96,36.4s35.9,21.65,35.1,23.13c-.73,1.33-18.38-9-49.14-20.36-35.65-13.21-41.51-27.61-54.28-23.27-6.3,2.14-5.33-10.61-45.86-9.14C731.63,723.93,722.59,712.25,722.62,711.27Z"/><path class="cls-21" d="M781.75,768.56c-18.8-18-28.36-32.24-27.31-53.72s60-50.15,41-39.8"/><path class="cls-22" d="M875,757.75c-29.87-23.19-18.13-21-3.14-36.73"/><path class="cls-23" d="M822.51,768.4c-17.66-19.23-49.11-53.61-11.4-75.29"/><path class="cls-24" d="M851.52,752.89c-41.53-22.51-21-36.69-12.38-43.47"/><path class="cls-25" d="M929.59,774.94c2-7.34-4.1-13.06-1.59-15.6,1.93-1.94,5.26,2.43,7,4.59,5.85,7.48,11.6,7.74,11.58,11.26,0,1.65,11,10.58-3.56,9.08-7.39-.76-15.83,1.93-17.17-1.56C925,780.52,928.31,779.61,929.59,774.94Z"/><polygon class="cls-8" points="1169.63 497.29 1176.62 505.96 1242.96 452.41 1221.54 425.88 1169.63 497.29"/><polygon class="cls-8" points="1320.42 684.1 1314.74 677.06 1381.07 623.51 1402.49 650.04 1320.42 684.1"/><path class="cls-11" d="M1251.3,672.82l-24.25-13.51c-26.85-13.2-162.76-209.34-150.3-219.4l29.34-23.68,286.29,354.65-27.16,21.93C1351.55,803.85,1257.63,693.65,1251.3,672.82Z"/><path class="cls-2" d="M1105.23,416.92c12.9-10.41,98.45,52.49,166.5,158.47,63,98.07,132.69,185.78,119.79,196.19S1304.07,711.05,1225,613.11,1092.33,427.34,1105.23,416.92Z"/><path class="cls-8" d="M1402.49,650l-181-224.16,26.21-21.16a6.88,6.88,0,0,1,9.69.72l171.63,212.62a8.47,8.47,0,0,1-1.64,11.85Z"/><polygon class="cls-8" points="1204.43 449.53 1214.04 461.44 1214.04 461.44 1204.43 449.53 1204.43 449.53"/><rect class="cls-8" x="1294.83" y="514.35" width="15.31" transform="translate(884.6 -822.21) rotate(51.09)"/><path class="cls-26" d="M1216.29,695.37l5,20.1a8.05,8.05,0,0,0,5.67,5.66c34.29,10.79,7.31,24.42,1.88,26.91l-50,23.26c-5.72,2.61-12,1.77-15-2l-32.5-39.38c-2-.61-22.24-43.22-20.5-48.06l4-40.69a11.8,11.8,0,0,1,3.89-7.34,17.14,17.14,0,0,1,3.62-2.54l31.2-16.39.53-.27c5.08-2.46,10.77-1.87,13.88,1.22l20.71,20.61c5.45,5.42,7.54,13,5.68,21.06-5,21.66,3.8,28.87,15.68,32A8.21,8.21,0,0,1,1216.29,695.37Z"/><path class="cls-27" d="M1113.71,605.49h40.67a4.3,4.3,0,0,1,4.3,4.3v0a16.36,16.36,0,0,1-16.36,16.36h-19.59a13.33,13.33,0,0,1-13.33-13.33v-3a4.3,4.3,0,0,1,4.3-4.3Z" transform="translate(-155.59 569.68) rotate(-26.45)"/><path class="cls-28" d="M1107.39,617.54c1,2.05,11.52-1.7,23.9-7.27s21.23-12.63,20.21-14.68-11.71,1.22-23.89,7.28S1106.37,615.5,1107.39,617.54Z"/><line class="cls-5" x1="1110.91" y1="681.84" x2="1139.52" y2="669.91"/><ellipse class="cls-5" cx="1170.62" cy="692.37" rx="49.44" ry="34.99" transform="translate(-185.86 593.99) rotate(-26.45)"/><ellipse class="cls-5" cx="1111.88" cy="681.5" rx="1.7" ry="0.9" transform="translate(-187.17 566.69) rotate(-26.45)"/><path class="cls-29" d="M1191,639.11c18.31,20-37.4,115.41-53.78,97.13-7.68-8.58-6.09-5.38-14.7-22.68-9.66-19.42-6.83-19.07-11.56-28.57C1107.51,678.05,1188.11,636,1191,639.11Z"/><path class="cls-29" d="M1139.5,740.77c-18.31-20,39.67-113.43,53-93.2,4.59,6.94-5.37,15.15,2.88,31.73,5.52,11.1,14.56,4.84,19.29,14.34C1218.17,700.58,1142.39,743.92,1139.5,740.77Z"/><path class="cls-30" d="M1088.6,603.4c2.36-7.18-45.89-37.44-50.55-54.64-3.83-14.1-8.15,3.11-6.21,10.32C1048,619,1054,613.68,1068,611.58,1077.58,610.15,1086.24,610.58,1088.6,603.4Z"/><rect class="cls-31" x="1093.49" y="528.64" width="26.71" height="34.85" rx="13.36" transform="translate(341.48 -422.18) rotate(25.42)"/><path class="cls-32" d="M1105.19,530l18.89,8.3c1.88.83,3.67-.49,3-2.21l-1-2.65a2.69,2.69,0,0,0-1.38-1.42l-20.16-9.58c-1.88-.9-3.76.41-3.1,2.15l1,2.62A5.13,5.13,0,0,0,1105.19,530Z"/><path class="cls-31" d="M1124.38,587.73c-12.13-37.74-29-25.66-27.76-32.89,1.75-10.11-26.93-2-36.49,1.28s5.72,21.07,23.74,29.63S1127.45,597.27,1124.38,587.73Z"/><path class="cls-31" d="M1078.28,590.38c-5.84,12.28-64.86,33.94-102.93,11-13-7.81-28.55-17.89-16-14.87,87.06,20.86,91.08-36.6,104.73-30.11S1084.11,578.1,1078.28,590.38Z"/><path class="cls-31" d="M1075.8,576.62c-6.66,2.71-4.12,64.38-14.65,79.77-8.64,12.62,6.63,5,11-1.45,36.71-53.51,29.57-55.19,20.61-65.93C1086.7,581.69,1082.46,573.92,1075.8,576.62Z"/><path class="cls-31" d="M1110.22,582.91c-8.43-5.33-36.89,2.75-55.82-4.61-15.53-6,6.95,8.57,12.44,9.14,42,4.35,53.22,14.15,55.14,10.94S1118.65,588.25,1110.22,582.91Z"/><path class="cls-31" d="M1087.64,598.07c-5.84,12.28,11.6,48.69,53.44,63.71,14.24,5.11,70,3.28,38.33-3.64-87.51-19.18-42.83-64.07-56.48-70.56S1093.47,585.79,1087.64,598.07Z"/><rect class="cls-33" x="662.48" y="538.83" width="85.23" height="12.6" transform="translate(92.62 -102.32) rotate(8.88)"/><polyline class="cls-34" points="718.87 583.69 746.17 557.96 757.15 582.88"/><polygon class="cls-35" points="719.11 583.73 642.99 568.54 662.01 544.78 746.22 557.94 719.11 583.73"/><polygon class="cls-36" points="699.92 704.95 630.25 685.84 642.99 568.54 719.37 580.48 699.92 704.95"/><polygon class="cls-35" points="739.76 694.11 699.92 704.95 717.92 583.54 757.15 582.88 739.76 694.11"/><polygon class="cls-37" points="684.52 679.1 647.13 669.55 654.36 593.76 693.74 599.92 684.52 679.1"/><path class="cls-38" d="M968.82,630.15c2.67.77-14.66-.93-29.34-11-12.79-8.8-12.61-6.45-15.26-6.77-33.07-4-2.17-11.12,17.31,6.13C952.38,628.09,954,625.89,968.82,630.15Z"/><path class="cls-39" d="M924,568.33c6.52,26.68-23.22-4-24.29-3.08-3.47,3.1-8.29-5.3-2.63-19.36s15.86-23.2,22.78-20.41S919.88,551.61,924,568.33Z"/><path class="cls-39" d="M989,581c-5.67,14.07-12.22,26.76-18.43,23.43-6.49-3.49-45-19.6-16.79-17.22,23.64,2,26-39.5,32.94-36.71S994.64,567,989,581Z"/><path class="cls-39" d="M976.76,607.78c.39-4.09-46-18.74-66.17-34.8-26-20.69-11.8-.15-17.75,14.6-9.7,24.11,23.47,37.27,62.27,61.46C991.6,671.8,975.65,619.47,976.76,607.78Z"/><path class="cls-17" d="M910.24,553.06c-1.6,13-5.48,7.82-6,9-1.12,2.36-3.18-2.84.24-11.32s7.48-14.84,9.08-14.2S911.31,544.35,910.24,553.06Z"/><path class="cls-17" d="M969.8,588.75c-8.89,10.11-.83,9.7-1.22,10.93-.78,2.49,5.44.63,8.85-7.85s4.48-16.05,2.37-16.9S975.74,582,969.8,588.75Z"/><path class="cls-38" d="M921.38,598.87c-33.07-4-1.52-6.47,18,10.78"/><path class="cls-40" d="M590.86,651.25l-4,2.55,1.43,5.19c.15.57-.31,1-.69.65l-4.05-3.74-1.59,3.63c-.57,1.31-2.18.59-2.19-1v-1.19l-4.61-4.61"/><path class="cls-41" d="M579.09,615.27c.59,3.67-.16,4.8-1.27,5s-2.52-.1-3.1-3.77-.41-10.54.7-10.71S578.5,611.6,579.09,615.27Z"/><path class="cls-42" d="M572,546.75l2.55-1.21c.38-.07-1.71-7.55-2-10.31l.38-7.25a3.23,3.23,0,0,0-.79-2.31c-.93-1-2.44-2.27-3.53-1.41h0a5.53,5.53,0,0,0-1.62,5.25l2.72,15C569.81,545.13,571.59,546.82,572,546.75Z"/><path class="cls-43" d="M519.05,557.55c21.07-9,46-10.18,46-10.18,32.41-1.58,47.93-15.82,52.82-7.79,2.17,3.55.85,9.24-1.79,20.6-2.5,10.78-17.22,17.86-9,25.89,2.18,2.14-2.6,7,0,13.06,1.59,3.66,6.81,8.77,6.33,12-2.12,14.21,27.65,10.93,28.93,15.83,1.67,6.39-10.82,18.39-25.38,22.94-13.61,4.26-15.42-2.26-32.51.87C569,653.62,565,660,549.68,659.61c-7.39-.2-14.35-.38-17.63-5.7-5.31-8.63,30.94-16,21.65-29.59-3.38-4.92,3.76-8,1.39-16.79-.54-2-4-1.4-5.24-6.7-1.83-8-3.14-8.19-6.21-12.49-2.44-3.41-1.57-7.28-9-6-8.78,1.48-10.4-4.91-12.63-8.59-2.1-3.46-4.92-8.43-3.15-11.75C520.05,559.78,518.33,557.85,519.05,557.55Z"/><path class="cls-44" d="M516.75,563.23C523,565,532.57,575.86,549,573.1s28.64-11.66,27.26-19.88-16.54-15.8-32.26-9.86C527.78,549.48,510.15,561.33,516.75,563.23Z"/><path class="cls-44" d="M620.36,545.94c-4.06,5.35-11.53,16.58-28.7,19.47s-32.17-1.15-33.49-9,15.57-6.19,28.7-19.46C597.1,526.59,625.82,538.75,620.36,545.94Z"/><path class="cls-44" d="M545.86,581.21,537.11,575a6.46,6.46,0,0,0-2.33-.31l-9.6,3.73c-1.91.1-4.6-4.5-5.81-6.6l-4.12-10.56,52,7.83c1.19,2.62-4.44,6.37-6.59,6.92l-6,.59C553.4,577.54,547.4,581.69,545.86,581.21Z"/><path class="cls-44" d="M587.85,573.61l9.22-8.39a10.54,10.54,0,0,1,2.68-1l11.8.73c2.25-.46,4.65-5.57,5.74-7.9L620.4,546l-59.49,22.45h0c-1,2.81,6.19,4.71,8.79,4.61l7.1-1.19C578.47,572.35,586.14,574.51,587.85,573.61Z"/><path class="cls-41" d="M592.07,612c.53,3.28-.5,4.34-1.94,4.56s-3.24.07-3.76-3.21.14-9.49,1.58-9.72S591.55,608.75,592.07,612Z"/><path class="cls-45" d="M574.11,588.22c-1.44,1.06-1.09,5.19-2.63,13.51-1.18,6.36-5.77,15.62-1,21.07,2.19,2.49,4.42,3.25,7,4.06.79.26,16,4.91,19.63-4.61,2.49-6.47-1.76-15.86-3.21-19.06,0,0-5.83-3.3-7.6-5.52-4.22-5.3-7.52-9.42-9.06-10.76"/><path class="cls-44" d="M521.5,652.21c-.79,4.38,6.2,12.42,13.4,15.52,5.47,2.36,19.65,3,28,.79,14.52-3.89-8.84-3.25,0,0,3.48,1.27,19.5-15.53,23.09-14.34,4.43,1.47,11.5,5.39,23.72,5.68,11.74.29,12.83-4.79,14.66-6.12,5-3.62,4.56-5.29,8.89-7.77,7.34-4.18,11.72-1.17,14.75-5.61,2.22-3.25,3.5-9.47,1.66-12.31-4.12-6.35-20.85,16.45-46.83,17.81-15.44.81-15.77-3.82-28.9,2-7.35,3.25-11.44,1.64-17.52,6.61-7.25,5.92-12-1.86-22.14-1C529.45,653.88,522.15,648.63,521.5,652.21Z"/><path class="cls-46" d="M900.37,711.13C923.14,699.89,910.93,735.65,917,748s32.37-6.52,10.06,5.6c-28.16,15.31-14.65,3-24.16-16.26C896.84,725,876.28,723,900.37,711.13Z"/><path class="cls-47" d="M910.79,760.25c3.45-.56.09-13.82-5.28-24.7S893.38,717,890.23,718.6s.74,10.07,6.11,20.95S905.46,761.12,910.79,760.25Z"/><path class="cls-48" d="M928.79,753.13c22.68-11.19,42.89-13.67,35.18-20.54-17.82-15.87-10.84-47.2-33.51-36-35.76,17.73-58.69,29-30.57,15.1C914.72,704.41,901.61,766.55,928.79,753.13Z"/><path class="cls-49" d="M1025.75,649.23l51.08-9.35c4.31,5,16.58,6.21,10.35,9.81-7.34,4.23-15.37,8.49-13.67,8.63,7.82.63,19.93-2.56,16.12,1.51-15.47,16.58-48.32,45.2-42,43.7,19.87-4.7,50.63-14.46,48.29-11.29-5.43,7.35-13.32,15.7-9,16.43,9.29,1.58,20.29,2.2,16.5,4.07l-63.06,35.36c-14.37,7.09-54.86,32-79.8-13.83l-22-44.49c-6.65-13.47-12.42-48.49,47.15-73.32l59-14.23c4.61-2.7-4,1.67-11,8.79-2.93,2.94,8.72-3.4,18.5-7.34C1058,601.33,1023.87,643.77,1025.75,649.23Z"/><path class="cls-50" d="M1045,526.71l-3.46-4.1a4.15,4.15,0,0,0-6-.15L934.87,612.29c1.33-1.45-5.51,4.92-5.72,7.36l5.71,6.75c.6.71,9.57-8.27,10.33-8.95l99.47-88.23A1.82,1.82,0,0,0,1045,526.71Z"/><ellipse class="cls-50" cx="927.56" cy="630.6" rx="3.47" ry="6.36" transform="translate(-75.73 1132.03) rotate(-60.76)"/><ellipse class="cls-50" cx="929.56" cy="627.37" rx="3.79" ry="6.36" transform="translate(-69.88 1136.09) rotate(-60.99)"/><ellipse class="cls-50" cx="932.01" cy="623.4" rx="2.6" ry="6.36" transform="translate(-70.63 1125.38) rotate(-60.37)"/><ellipse class="cls-50" cx="934.27" cy="621.45" rx="1.08" ry="5.47" transform="translate(-70.26 1121.42) rotate(-60.09)"/><ellipse class="cls-50" cx="924.07" cy="630.58" rx="1.74" ry="1.59" transform="translate(-155.7 923.2) rotate(-49.47)"/><ellipse class="cls-50" cx="925.88" cy="633.51" rx="1.63" ry="4.67" transform="translate(-83.47 1123.2) rotate(-60.26)"/><path class="cls-50" d="M955.17,691.92l-26.54-58.44a4.68,4.68,0,0,0-6.63-2l-.82.44c-2.54,1.37-1.66,11.62,8.63,28.51L946,696.05c1.12,2.46,3.27,4.61,5.81,3.24l.81-.43A5.51,5.51,0,0,0,955.17,691.92Z"/><path class="cls-51" d="M924,631.65l3.35,1.48c.67.3,2.31.67,2.7,1.33a1.5,1.5,0,0,0,2.59-1.52,5.5,5.5,0,0,0-2.89-2l-4.23-1.88c-1.75-.78-3.28,1.81-1.52,2.59Z"/><path class="cls-52" d="M926.23,625.12a7.36,7.36,0,0,0,2.7,1.9c.72.36,1.76.79,1.72,1.73-.07,1.93,2.93,1.93,3,0a4.27,4.27,0,0,0-2-3.61c-1.08-.78-2.49-1.06-3.33-2.14a1.5,1.5,0,0,0-2.12,0,1.53,1.53,0,0,0,0,2.12Z"/><path class="cls-53" d="M929.69,620.88a15.3,15.3,0,0,1,3.76,4.91c.85,1.73,3.44.21,2.59-1.52a17.25,17.25,0,0,0-4.23-5.51c-1.45-1.26-3.58.86-2.12,2.12Z"/><path class="cls-54" d="M924,631.68a6.82,6.82,0,0,1,4.28,1.94c1.39,1.35,3.52-.77,2.13-2.12a10.15,10.15,0,0,0-6.41-2.82c-1.92-.16-1.91,2.84,0,3Z"/><path class="cls-55" d="M925.11,629.45a7.26,7.26,0,0,1,5.92,2.89c1.19,1.52,3.3-.61,2.13-2.12a10.11,10.11,0,0,0-8-3.77,1.5,1.5,0,0,0,0,3Z"/><path class="cls-56" d="M927.91,622.44A32.82,32.82,0,0,1,932,627a1.55,1.55,0,0,0,2,.54,1.52,1.52,0,0,0,.54-2.06,37.33,37.33,0,0,0-4.56-5.17c-1.4-1.32-3.53.79-2.12,2.12Z"/><path class="cls-57" d="M764.3,619.52c-9.66-18.62,7-46.39,37.12-62s62.42-13.24,72.08,5.38"/><polygon class="cls-58" points="836.64 719.5 915.75 678.46 874.12 562.55 764.92 619.19 836.64 719.5"/><ellipse class="cls-16" cx="792.58" cy="573.48" rx="8.56" ry="1.41" transform="translate(-175.04 429.39) rotate(-27.42)"/><path class="cls-59" d="M816.11,592.64l-10.55,5.47-39-49.73,4.17-3c2.24-1.6,5.22-1.5,6.66.22Z"/><path class="cls-59" d="M726.27,570.49l45.16-23.75c1.57-.82,5.11-1.53,3.78-2.24L770.5,542a2.47,2.47,0,0,0-2.27.09l-44.37,23.31c-1.13.6.33,1.86.8,2.77l-.77,2.31C724.36,571.37,725.13,571.08,726.27,570.49Z"/><polygon class="cls-60" points="798.09 665.67 893.33 616.27 883.92 589.78 781.85 642.73 798.09 665.67"/><path class="cls-61" d="M479,554c24-20.23,23.9,24.57-67,54-89.7,29-70.75-104.56-199-192-78.56-53.56-56-113,16-40C229,376,358.21,655.75,479,554Z"/><ellipse cx="389" cy="525" rx="14" ry="5"/><ellipse cx="381" cy="519.5" rx="1" ry="5.5"/><ellipse cx="385" cy="520.5" rx="3" ry="6.5"/><ellipse cx="660" cy="303" rx="14" ry="5"/><ellipse cx="668" cy="297.5" rx="1" ry="5.5"/><ellipse cx="664" cy="298.5" rx="3" ry="6.5"/><ellipse cx="620" cy="273" rx="14" ry="5"/><ellipse cx="628" cy="267.5" rx="1" ry="5.5"/><ellipse cx="624" cy="268.5" rx="3" ry="6.5"/><ellipse cx="1179" cy="337" rx="14" ry="5"/><ellipse cx="1187" cy="331.5" rx="1" ry="5.5"/><ellipse cx="1183" cy="332.5" rx="3" ry="6.5"/><ellipse cx="587" cy="399" rx="14" ry="5"/><ellipse cx="595" cy="393.5" rx="1" ry="5.5"/><ellipse cx="591" cy="394.5" rx="3" ry="6.5"/><ellipse cx="902" cy="617" rx="14" ry="5"/><ellipse cx="910" cy="611.5" rx="1" ry="5.5"/><ellipse cx="906" cy="612.5" rx="3" ry="6.5"/><ellipse cx="796" cy="533" rx="14" ry="5"/><ellipse cx="788" cy="527.5" rx="1" ry="5.5"/><ellipse cx="792" cy="528.5" rx="3" ry="6.5"/><ellipse cx="1402" cy="479" rx="14" ry="5"/><ellipse cx="1394" cy="473.5" rx="1" ry="5.5"/><ellipse cx="1398" cy="474.5" rx="3" ry="6.5"/><ellipse cx="1085" cy="524" rx="14" ry="5"/><ellipse cx="1077" cy="518.5" rx="1" ry="5.5"/><ellipse cx="1081" cy="519.5" rx="3" ry="6.5"/><ellipse cx="1335" cy="592" rx="14" ry="5"/><ellipse cx="1327" cy="586.5" rx="1" ry="5.5"/><ellipse cx="1331" cy="587.5" rx="3" ry="6.5"/><ellipse cx="1475" cy="631" rx="14" ry="5"/><ellipse cx="1483" cy="625.5" rx="1" ry="5.5"/><ellipse cx="1479" cy="626.5" rx="3" ry="6.5"/><ellipse cx="1608" cy="597" rx="14" ry="5"/><ellipse cx="1600" cy="591.5" rx="1" ry="5.5"/><ellipse cx="1604" cy="592.5" rx="3" ry="6.5"/><ellipse cx="1250" cy="701" rx="14" ry="5"/><ellipse cx="1242" cy="695.5" rx="1" ry="5.5"/><ellipse cx="1246" cy="696.5" rx="3" ry="6.5"/><ellipse cx="1461" cy="728" rx="14" ry="5"/><ellipse cx="1469" cy="722.5" rx="1" ry="5.5"/><ellipse cx="1465" cy="723.5" rx="3" ry="6.5"/><ellipse cx="452" cy="673" rx="14" ry="5"/><ellipse cx="460" cy="667.5" rx="1" ry="5.5"/><ellipse cx="456" cy="668.5" rx="3" ry="6.5"/><ellipse cx="495" cy="597" rx="14" ry="5"/><ellipse cx="487" cy="591.5" rx="1" ry="5.5"/><ellipse cx="491" cy="592.5" rx="3" ry="6.5"/><ellipse cx="637" cy="517" rx="14" ry="5"/><ellipse cx="629" cy="511.5" rx="1" ry="5.5"/><ellipse cx="633" cy="512.5" rx="3" ry="6.5"/><path class="cls-62" d="M1460,559c-102,46,47.84,27,78-20,25-39,216.87-55.34,185-93-44-52-26,32-116,44C1573.59,494.46,1528.92,527.92,1460,559Z"/><path class="cls-62" d="M1132.89,349.7c-3.62,42.37-84.25,91.64-33.27,71.88s42.75-85.86,65.38-121.87c59.69-95,34.6-103.7-12.58-4.77C1131.71,338.36,1137.35,297.56,1132.89,349.7Z"/><path class="cls-62" d="M457,326c7.5-2.62,13,17.86,35,28,21.56,9.92,38.35.43,44,10,3.14,5.32-2,8.36-8,35-3.71,16.47.48,14.56,5,25,1.65,3.81,8.47,7.29,9,8,6,8,21,9.52,30,10,17.48.93,8.24-1.62,21,1,10.16,2.09,15.25,15.65,18,23,7.47,19.93,4.65,44.62-2,46-6.92,1.44-8.48-24.35-31-48-31.28-32.85-70.45-27.4-75-50-3-15.11,13.26-23.49,8-35-7.82-17.11-46.85-5.23-58-25C447.14,343.6,451,328.08,457,326Z"/><path class="cls-63" d="M1176.16,464.1c49.44-66.62,124.81-69.52,126.85-110,1.37-27.06-31.76-36.42-25.17-58,9.8-32,86.75-23.77,102-61.45,8-19.82-3.78-45.41-15.62-47.14-14.88-2.17-19.28,35-57.84,59.4-37.75,23.93-72.12,12.81-80,31.13-4.38,10.19,6.17,13.83,25.17,58,11.75,27.29,3.29,25.32-2.2,44.78-2,7.1-13.85,15.26-14.65,16.66-9,15.63-36.75,23-53.62,26.72-32.66,7.1-16-.21-39.27,8.33"/><path class="cls-64" d="M752.64,292.74c-25.26,42-78.24,50.06-73.75,73.17,3,15.45,27.85,17.92,26.34,30.7-2.25,19-58,20.89-63.29,43.54-2.8,11.92,9.33,25.41,18,25.38,10.87,0,8.54-21.46,32.28-38.61,23.24-16.78,49.22-13.42,52.12-24.47,1.61-6.15-6.4-7.31-26.34-30.7-12.32-14.46-6-14.06-5-25.56.38-4.2,7.57-9.83,7.93-10.69,4.07-9.62,22.67-16.2,34.08-19.72,22.1-6.82,11.36-1.25,26.6-8.08"/><path class="cls-17" d="M571.74,47.23c-.27-4,.37-7.23,1.92-9.77s4-3.32,7.34-2.42q53.14,14.12,107,23.87a12.49,12.49,0,0,1,8,4.63,14.11,14.11,0,0,1,3.13,7.89,9.55,9.55,0,0,1-2.32,7.28c-1.73,1.92-4.19,2.7-7.39,2.29q-18.45-2.34-36.84-5l8.1,122.76c.18,2.71-1.26,5.15-4.32,7.39a28.64,28.64,0,0,1-10.92,4.78c-4.38,1-8.16,1-11.35,0s-4.89-3-5.09-6q-4.54-67-9.1-134-18.44-3-36.79-6.46c-3.17-.59-5.76-2.49-7.79-5.77A24.54,24.54,0,0,1,571.74,47.23Z"/><path class="cls-17" d="M723.8,188.55,716.9,71a4.8,4.8,0,0,1,2.76-4.6,11.49,11.49,0,0,1,7.53-1q25.26,3.84,50.6,6.73c40.51,4.74,61.1,15.67,61.63,35.59A22.35,22.35,0,0,1,831,126.63q-8.71,7.2-23.65,10.07c11.44,12.12,22.74,23.56,33.9,34.6a2.6,2.6,0,0,1,1.31,2.22c.07,2.39-2,4.73-6.23,7.09a32.68,32.68,0,0,1-13.47,4.19c-4.77.41-8.52-.79-11.27-3.67-12.22-12.82-24.61-26.34-37.16-40.89q-10.5.18-21,.4,1.17,21.88,2.32,43.79c.11,2.12-1.36,4-4.4,5.64a33.56,33.56,0,0,1-11.2,3.47,28.89,28.89,0,0,1-11.27-.29C725.64,192.42,723.94,190.84,723.8,188.55Zm28.76-65q13.82.24,27.65.44,26.89.3,26.3-15.62c-.41-10.71-9.71-16.62-27.88-18.12q-14-1.11-28-2.44Z"/><path class="cls-17" d="M847.94,174a6.65,6.65,0,0,1,.46-1.55c15.15-30.62,30.87-59.21,47.13-87.24q1.51-2.52,7.54-3.77a62.89,62.89,0,0,1,13.75-1.13A59.93,59.93,0,0,1,930.69,82c4.11,1,6.66,2.5,7.67,4.38,16.28,28.12,32,56,47.17,85.08a5,5,0,0,1,.46,1.38c0,2-2.33,3.66-6.81,5a44.87,44.87,0,0,1-13.63,1.83c-6.1-.13-9.7-1.33-10.82-3.68q-4.56-9-9.2-17.94-26.7-.08-53.4.39-4.54,9.15-9,18.43c-1.27,2.41-5.33,3.76-12.19,4.08a51.3,51.3,0,0,1-15.46-1.5Q848,177.48,847.94,174Zm51.2-29.54q21.68-.15,43.34-.13c-7.14-13.74-14.39-27.44-21.77-41.25C913.4,116.77,906.21,130.52,899.14,144.44Z"/><path class="cls-17" d="M998.19,164.79q.1-3.16,4.56-6.3a16.21,16.21,0,0,1,10-3,18.63,18.63,0,0,1,7.28,2,78.65,78.65,0,0,1,7.8,4.17,48.57,48.57,0,0,0,10.87,4.42,68.44,68.44,0,0,0,15.77,2.67c7.92.47,14.57-.19,20-2.1s8.24-5.12,8.5-9.57c.17-3.11-1.12-5.94-3.89-8.44a32.6,32.6,0,0,0-11.14-6.22q-7-2.48-15.41-4.69t-17-4.81a137.57,137.57,0,0,1-15.61-5.73,30.08,30.08,0,0,1-11.29-8.29,17,17,0,0,1-4-11.78,19.67,19.67,0,0,1,5.92-13.34,42.14,42.14,0,0,1,15-9.64A127.17,127.17,0,0,1,1045.44,78a181.09,181.09,0,0,1,22.35-3.42q6.64-.61,14-.81t15.6.19c5.48.27,9.9,1.13,13.26,2.64s5,3.57,4.79,6.15c-.15,2.43-1.5,5.07-4,7.84a14.08,14.08,0,0,1-9.86,4.57c-1.52.11-5.6-.62-12.24-2.12a79.93,79.93,0,0,0-22.46-1.37q-13.73.9-21.39,4.24c-5.09,2.24-7.71,5-7.86,8.49-.12,2.77,1.8,5.12,5.75,7.09a60.29,60.29,0,0,0,14.79,4.73q8.85,1.78,19.12,4.71a157.15,157.15,0,0,1,18.94,6.67,33.82,33.82,0,0,1,14.18,11.24,26.2,26.2,0,0,1,4.85,17.71c-.73,11.34-6.69,19.66-17.79,24.5s-25.37,6.11-42.92,4.58q-23.37-2-39.93-8.36C1003.56,173.07,998.06,169,998.19,164.79Z"/><path class="cls-17" d="M1135.37,186.29q3.84-56.44,7.69-112.89c.16-2.31,1.89-4.26,5.19-5.89A40.68,40.68,0,0,1,1160.06,64a31.12,31.12,0,0,1,11.55,0c3.12.72,4.59,2.35,4.41,4.85q-1.77,24.45-3.55,48.9,28.08-.93,56-2.09l4.32-56.33c.22-2.88,2-5.34,5.28-7.45a35.9,35.9,0,0,1,11.74-4.68c4.53-1,8.32-1.1,11.38-.26s4.46,2.84,4.21,6l-11.88,152.75c-.23,3-2,5-5.26,6a21.81,21.81,0,0,1-11.19.12,27.6,27.6,0,0,1-10.94-4.77c-2.95-2.23-4.32-4.67-4.11-7.4q2.38-31,4.76-61.95-27.75-.45-55.68-.81l-3.9,53.78c-.17,2.37-1.89,4-5.16,4.86a27.59,27.59,0,0,1-11.26.28,32.06,32.06,0,0,1-11.11-3.61C1136.65,190.42,1135.22,188.49,1135.37,186.29Z"/></svg>
