<svg id="Layer_1" data-name="Layer 1" xmlns="http://www.w3.org/2000/svg" xmlns:xlink="http://www.w3.org/1999/xlink" width="620" height="815" viewBox="0 0 620 815"><defs><style>.cls-1{fill:none;}.cls-2{clip-path:url(#clip-path);}.cls-3{opacity:0.51;}.cls-4{clip-path:url(#clip-path-2);}.cls-5{fill:#072409;opacity:0.7;}.cls-6{fill:#001d06;}.cls-7{fill:#19210c;}.cls-7,.cls-8{opacity:0.8;}.cls-8{fill:#001802;}</style><clipPath id="clip-path"><rect class="cls-1" x="1019" y="-166" width="396" height="454"/></clipPath><clipPath id="clip-path-2"><rect class="cls-1" x="-718" y="-197" width="430" height="363"/></clipPath><image id="image" width="2898" height="2294" xlink:href="../dokumentation/tirsdag%20dokumentation/IMG_1692.JPG"/></defs><title>vinflaske</title><g class="cls-2"><use class="cls-3" transform="translate(-222.41 -996.45) scale(1.05 0.66)" xlink:href="#image"/></g><g class="cls-4"><use class="cls-3" transform="translate(-1730.2 -558.75) scale(0.85 0.59)" xlink:href="#image"/></g><path class="cls-5" d="M403,165c0,73.73-84.37-4-128-4s-26.83,92.66-30,19c-4-93,12-42,80-42C368.63,138,403,87,403,165Z"/><path class="cls-6" d="M249,129c-3.23,9.69,39.12,18,77.5,18s69.5-7.78,69.5-18-29.62-11-68-11S254,114,249,129Z"/><path class="cls-7" d="M244,185c0,73.45-21.29,129.25,9,118,70-26,149.13,32.45,149-41-.21-115.91.07-190,0-99C402,211,244,97,244,185Z"/><path class="cls-8" d="M403,571,358,716c-20.38,4.72-40.86,35.18-42.34,14.32-1.74-24.53-2.57-50.91-5.33-46.68-12.75,19.57-20.65,55.19-26.89,40-25.37-61.58-60.54-183.89-65.17-165.45-14.5,57.75-29.9,150.39-35.61,140.22-13.24-23.58-25.88-54.86-34-44.58C131.17,676,114,703.9,114,691.62L102,482c0-46.55-14-184,151-190H410c47.53,0,155,30,142,217L509.79,680.82c1.2,15.46.81-12.47-9.48-40-4.25-11.4-2.59,27.08-5.09,57.59C493.72,716.58,421.13,573.11,403,571Z"/></svg>
