<svg id="Layer_1" data-name="Layer 1" xmlns="http://www.w3.org/2000/svg" width="745" height="1010" viewBox="0 0 745 1010"><defs><style>.cls-1{fill:#42bee9;}.cls-2{fill:#3cf;}.cls-3{fill:#ffcd1f;}.cls-4{fill:#ffd61f;}.cls-5{fill:#ef7b0a;}.cls-6{fill:#ef7c0a;}.cls-7{fill:#fff;}.cls-8{fill:#ffe54a;}</style></defs><title>gamover</title><path class="cls-1" d="M382.38,369.5c0,136.69-21.31,235.5-100,235.5S45.28,500.69,45.28,364,161.12,122,239.84,122,382.38,232.81,382.38,369.5Z"/><path class="cls-2" d="M227.54,646l45.62-45.35c9.43-9.38,22.91-11.12,30.1-3.9l56.18,56.47"/><path d="M267,826c-38.27,101,7.36,141.22-17.92,136.14s-1-.23,20.29-106.08S300,613.88,280.61,652.3C275.32,662.81,301,736.4,267,826Z"/><path d="M441.4,784c-17.63,106.54,35,137,9.24,137s-1,0-1-108S431.9,569.52,420.51,611C417.4,622.35,457,689.45,441.4,784Z"/><path class="cls-3" d="M372.58,635.22l25-51.66a21.51,21.51,0,0,1,28.72-10L509.8,614"/><path class="cls-4" d="M153.32,279c0,133.65,116.26,302,259.07,302S670.46,412.65,670.46,279,554.69,37,411.89,37,153.32,145.35,153.32,279Z"/><line class="cls-5" x1="321.96" y1="434.71" x2="321.96" y2="434.71"/><path class="cls-6" d="M307.08,215.47l-17.17-5a7.28,7.28,0,0,0-6.66,1.35l-13.86,11.3a7.3,7.3,0,0,1-11.91-5.44l-.54-17.87a7.28,7.28,0,0,0-3.34-5.91l-15-9.69a7.29,7.29,0,0,1,1.49-13l16.84-6a7.31,7.31,0,0,0,4.59-5l4.57-17.29a7.3,7.3,0,0,1,12.83-2.6l10.94,14.14a7.28,7.28,0,0,0,6.18,2.82l17.86-1a7.29,7.29,0,0,1,6.44,11.39l-10.07,14.78a7.28,7.28,0,0,0-.78,6.74l6.47,16.68A7.3,7.3,0,0,1,307.08,215.47Z"/><path class="cls-5" d="M443.68,188.28l-18.15-5.38a7.61,7.61,0,0,0-7,1.42l-14.62,12a7.73,7.73,0,0,1-12.59-5.83l-.61-19.07a7.81,7.81,0,0,0-3.54-6.32l-15.9-10.37a7.81,7.81,0,0,1,1.54-13.87l17.77-6.4a7.69,7.69,0,0,0,4.84-5.33l4.79-18.44A7.67,7.67,0,0,1,413.73,108l11.6,15.12a7.69,7.69,0,0,0,6.53,3l18.86-1a7.81,7.81,0,0,1,6.83,12.17L446.94,153a7.87,7.87,0,0,0-.8,7.2L453,178A7.72,7.72,0,0,1,443.68,188.28Z"/><path class="cls-5" d="M575.54,217.33,557.4,212a7.7,7.7,0,0,0-7,1.42L535.74,225.4a7.71,7.71,0,0,1-12.57-5.74l-.57-18.88a7.73,7.73,0,0,0-3.53-6.24L503.2,184.31a7.7,7.7,0,0,1,1.57-13.72l17.78-6.38a7.69,7.69,0,0,0,4.85-5.28l4.83-18.26a7.7,7.7,0,0,1,13.54-2.74l11.56,14.93a7.69,7.69,0,0,0,6.52,3l18.86-1.05a7.7,7.7,0,0,1,6.79,12l-10.63,15.6a7.7,7.7,0,0,0-.82,7.13l6.83,17.6A7.7,7.7,0,0,1,575.54,217.33Z"/><path class="cls-7" d="M295.14,190.11c-3.11-1.9,0,0,4.2-6.87s4.46-14.79,7.57-12.89,2.22,9-2,16S298.25,192,295.14,190.11Z"/><path class="cls-7" d="M433.18,157.11c-3.11-1.9,0,0,4.19-6.87s4.47-14.79,7.58-12.89,2.22,9-2,16S436.29,159,433.18,157.11Z"/><path class="cls-7" d="M567.22,181.11c-3.11-1.9,0,0,4.19-6.87s4.47-14.79,7.58-12.89,2.21,9-2,16S570.33,183,567.22,181.11Z"/><path class="cls-8" d="M636.45,362.5c0-5.8-96.28-10.5-215.06-10.5s-215.06,4.7-215.06,10.5c0,18.5,96.29,11.72,215.06,10.5C518.42,372,636.45,375,636.45,362.5Z"/><path class="cls-7" d="M212.59,293.51a20.75,20.75,0,0,1,15,6.3,3.16,3.16,0,0,1-.09-.9q0-5,5.4-5a5.42,5.42,0,0,1,5.67,5.67,31.16,31.16,0,0,1-.27,3.42,49.92,49.92,0,0,0-.45,5.31,27.66,27.66,0,0,0,.31,3.47,28,28,0,0,1,.32,3.46,5.61,5.61,0,0,1-2,4.5,7.87,7.87,0,0,1-5.26,1.71c-4.56,0-6.79-1.89-6.66-5.67l.09-2.79a5.73,5.73,0,0,0-2.44-4.9,10.19,10.19,0,0,0-6.39-1.94q-12.06,0-12.06,19.08,0,9.9,2.93,14.45t9.31,4.54a10.74,10.74,0,0,0,6.49-1.84,5.53,5.53,0,0,0,2.43-4.82l-.09-3.24a5.52,5.52,0,0,1,1.8-4.5,7,7,0,0,1,4.86-1.71,7.53,7.53,0,0,1,6,2.52,10,10,0,0,1,2.21,6.84,17.15,17.15,0,0,1-6.8,14q-6.79,5.44-17.51,5.44-13.14,0-20.75-8.37T187,325.64q0-14.94,6.84-23.53T212.59,293.51Z"/><path class="cls-7" d="M265,297.74v16.47a27.53,27.53,0,0,1,6.48-4.45,16.39,16.39,0,0,1,6.48-1.13q8.37,0,11.88,5.22,2.34,3.51,2.34,11.16v15.48q0,4.5,1.8,4.5a4.05,4.05,0,0,0,1.27-.18,4.64,4.64,0,0,1,1.44-.18q4,0,4,4.59,0,6.3-5.31,6.3a40.66,40.66,0,0,1-4.51-.36,40.69,40.69,0,0,0-4.5-.36,37,37,0,0,0-4.27.36,37.13,37.13,0,0,1-4.28.36,4.71,4.71,0,0,1-3.65-1.53,5.78,5.78,0,0,1-1.39-4.05q0-4.59,3.42-4.86,1.53-.09,1.89-.81a5.87,5.87,0,0,0,.36-2.43V328.07q0-7.47-5.67-7.47-7.74,0-7.74,10.71v10.62a4.41,4.41,0,0,0,.4,2.39,3.9,3.9,0,0,0,2.21.76q2.79.45,2.79,4.5,0,5.94-4.95,5.94a35.68,35.68,0,0,1-3.87-.36,40.59,40.59,0,0,0-5.14-.36,32.75,32.75,0,0,0-4.05.27q-3.6.45-4.59.45a5.13,5.13,0,0,1-4-1.66,6.08,6.08,0,0,1-1.53-4.28q0-5.13,4.41-5.13a5.12,5.12,0,0,1,1.49.32,5,5,0,0,0,1.48.31q1.53,0,1.53-5v-30q0-5-1.53-5a5,5,0,0,0-1.62.36,4.68,4.68,0,0,1-1.44.18q-4.32,0-4.32-4.95a6.18,6.18,0,0,1,1.53-4.36,5.14,5.14,0,0,1,4-1.67,31.16,31.16,0,0,1,3.42.27,31.16,31.16,0,0,0,3.42.27,37.12,37.12,0,0,0,4.82-.27,25.42,25.42,0,0,1,3.11-.27Q265,294.59,265,297.74Z"/><path class="cls-7" d="M343.58,356.69q-7.38,0-9.9-5.94a21.08,21.08,0,0,1-14.95,5.94q-7.11,0-11.34-3.73a12.62,12.62,0,0,1-4.23-9.95q0-9.45,8.19-12.24a57.24,57.24,0,0,1,8.1-2q6.39-1.08,8.69-2.47a4.67,4.67,0,0,0,2.3-4.28,4.26,4.26,0,0,0-1.76-3.46,6.81,6.81,0,0,0-4.37-1.4q-3,0-3,1.89a8.9,8.9,0,0,0,.09,1.26v.36a5.24,5.24,0,0,1-2.11,4.23,8.12,8.12,0,0,1-5.27,1.71,8.42,8.42,0,0,1-5.94-2.16,7,7,0,0,1-2.34-5.4q0-4.86,5.13-7.65T325,308.63q9.74,0,14.5,3,5.13,3.24,5.13,12.06v18.63q0,2.88,1.44,2.88a9.56,9.56,0,0,0,1.35-.09,2,2,0,0,1,.63-.09,4.92,4.92,0,0,1,4.95,4.95,5.73,5.73,0,0,1-2.65,4.86A11.48,11.48,0,0,1,343.58,356.69Zm-13.05-19.26v-2q-.64.36-7.93,2.25-5,1.26-5,3.87,0,4.14,4.86,4.14Q330.52,345.71,330.53,337.43Z"/><path class="cls-7" d="M374.28,312.59v4.14q6.75-8.1,15-8.1,6.93,0,11.43,6.75a34.52,34.52,0,0,1,7.7-5.31,17.94,17.94,0,0,1,7.43-1.44q8.55,0,12.78,5.67,2.88,3.87,2.88,12.42v13.77q0,4.59,1.71,4.59a5.32,5.32,0,0,0,1.44-.27,3.84,3.84,0,0,1,1.35-.18c2.64,0,4,1.56,4,4.68a6.81,6.81,0,0,1-1.44,4.5,4.74,4.74,0,0,1-3.79,1.71q-.27,0-2.61-.27l-2-.27a31.75,31.75,0,0,0-3.78-.18,42.19,42.19,0,0,0-5.58.36,33.58,33.58,0,0,1-3.78.36,4.44,4.44,0,0,1-3.56-1.66,6.3,6.3,0,0,1-1.39-4.19q0-4.14,3.33-4.77c1.14-.18,1.81-.51,2-1a13.85,13.85,0,0,0,.32-4v-9.27q0-5.76-1.22-7.87t-4.63-2.12q-7.65,0-7.65,10.89V340a16.28,16.28,0,0,0,.27,3.87A1.77,1.77,0,0,0,406,344.9q2.79.63,2.79,4.5,0,6.12-5,6.12a20.15,20.15,0,0,1-2.8-.27,33.28,33.28,0,0,0-4-.45,20.76,20.76,0,0,0-3.19.36,20.86,20.86,0,0,1-3.2.36q-4.41,0-4.41-5.67,0-4.05,2.79-4.77a2.06,2.06,0,0,0,1.62-2.16q.09-2.43.09-3V329.78q0-5.13-1.21-7.11t-4.37-2q-7.92,0-7.92,10.89v10.89a3.1,3.1,0,0,0,.36,1.85,3.5,3.5,0,0,0,1.8.67q3.51.63,3.51,4.68,0,5.85-4.95,5.85a41.94,41.94,0,0,1-4.55-.36,41.8,41.8,0,0,0-4.54-.36,34.25,34.25,0,0,0-4.24.27q-3.6.45-4.59.45a5.08,5.08,0,0,1-4-1.66,6.2,6.2,0,0,1-1.49-4.28q0-5.13,4.32-5.13a5,5,0,0,1,1.62.32,4.52,4.52,0,0,0,1.35.31q1.53,0,1.53-5V325.46q0-5.13-1.53-5.13a6.14,6.14,0,0,0-1.39.32,5.92,5.92,0,0,1-1.58.31q-4.32,0-4.32-5A6.35,6.35,0,0,1,356,311.6a4.92,4.92,0,0,1,3.91-1.71,25,25,0,0,1,3,.45,14.69,14.69,0,0,0,2.7.27,20.86,20.86,0,0,0,3.2-.36,20.86,20.86,0,0,1,3.2-.36Q374.28,309.89,374.28,312.59Z"/><path class="cls-7" d="M458.36,313.13v2.7q5.58-7.2,14-7.2A15.6,15.6,0,0,1,485.37,315q4.86,6.34,4.86,17,0,11.07-5,17.55A15.9,15.9,0,0,1,472,356.06a14.1,14.1,0,0,1-6-1.26,36.08,36.08,0,0,1-5.22-3.42v6.93q0,2.79,2.16,2.79a9.34,9.34,0,0,0,2.07-.27q1.62-.18,2.34-.18c2.76,0,4.15,1.56,4.15,4.68,0,3.6-1.87,5.4-5.59,5.4q-1.62,0-4.95-.36a75.75,75.75,0,0,0-8.19-.45q-1.71,0-7.65.72-1.08.09-1.62.09a5,5,0,0,1-3.87-1.66,6.08,6.08,0,0,1-1.53-4.28q0-5,4.41-5a3.39,3.39,0,0,1,1.35.27q1.62.36,1.53.36,1.62,0,1.62-5.13V325.46q0-5.13-1.53-5.13a8.64,8.64,0,0,0-1.62.45,7.74,7.74,0,0,1-1.44.18q-4.32,0-4.32-5a6.48,6.48,0,0,1,1.44-4.32,4.61,4.61,0,0,1,3.69-1.71h.63l3.15.45a11.78,11.78,0,0,0,2.61.18,30.81,30.81,0,0,0,4.86-.36,12.63,12.63,0,0,1,1.71-.18Q458.36,310,458.36,313.13Zm10,6.93a6.14,6.14,0,0,0-5.49,3.24q-2,3.24-2,9t2,9a6,6,0,0,0,5.31,3.33,6.27,6.27,0,0,0,5.5-3.33q2.07-3.33,2.07-9a17,17,0,0,0-2-8.91A6.09,6.09,0,0,0,468.35,320.06Z"/><path class="cls-7" d="M514.36,309.89q2.52,0,2.52,3.51v27.09q0,4.59,1.71,4.59a6.63,6.63,0,0,0,1.3-.22,7.13,7.13,0,0,1,1.58-.23q3.78,0,3.78,4.68,0,6.21-5.31,6.21-.9,0-5-.45a54.63,54.63,0,0,0-5.76-.27,45.87,45.87,0,0,0-4.78.36,45.53,45.53,0,0,1-4.68.36,5.13,5.13,0,0,1-4-1.66,6.08,6.08,0,0,1-1.53-4.28q0-5.13,4.32-5.13l2.34.54a2.64,2.64,0,0,0,.63.09q1.62,0,1.62-5V325.46q0-5.13-1.53-5.13a8.64,8.64,0,0,0-1.62.45,7.74,7.74,0,0,1-1.44.18q-4.32,0-4.32-5a6.18,6.18,0,0,1,1.53-4.36,5.24,5.24,0,0,1,4-1.67,22.09,22.09,0,0,1,2.88.27,37.49,37.49,0,0,0,5.05.45,28.31,28.31,0,0,0,4-.36Q514.09,309.89,514.36,309.89Zm-5.13-3.42a8.14,8.14,0,1,1,5.8-2.38A7.88,7.88,0,0,1,509.23,306.47Z"/><path class="cls-7" d="M551.18,356.69q-11.16,0-17.24-6.3t-6.08-17.73q0-11.34,6-17.68t16.93-6.35q10.71,0,16.88,6.3t6.16,17.28q0,11.52-6,18T551.18,356.69Zm-.36-37a7.15,7.15,0,0,0-6.26,3.47q-2.29,3.46-2.29,9.49t2.29,9.54a7.33,7.33,0,0,0,6.44,3.42q8.37,0,8.37-13T550.82,319.7Z"/><path class="cls-7" d="M597.36,312.41v4.32q6.93-8.1,15.66-8.1,9.38,0,13.24,7,2.07,3.6,2.07,11.34v13.5q0,4.59,1.8,4.59a5.22,5.22,0,0,0,1.35-.27,3.84,3.84,0,0,1,1.35-.18q4,0,4,4.68,0,6.21-5.4,6.21a38.2,38.2,0,0,1-4.32-.36,38.2,38.2,0,0,0-4.32-.36,33.79,33.79,0,0,0-4.77.36,30.54,30.54,0,0,1-4.15.36q-5.31,0-5.31-5.49,0-4.77,3.69-5,2.43-.18,2.43-2.25v-12.6q0-5.22-1.35-7.33t-4.59-2.12a8,8,0,0,0-6.07,2.52,8.93,8.93,0,0,0-2.39,6.39V339a18.43,18.43,0,0,0,.36,4.91c.24.57.93.94,2.07,1.12q3.24.45,3.24,4.86,0,5.67-4.77,5.67a25.36,25.36,0,0,1-3.33-.27,40.85,40.85,0,0,0-4.95-.45,47,47,0,0,0-4.82.36,46.89,46.89,0,0,1-4.81.36c-3.78,0-5.68-2-5.68-6,0-3.36,1.45-5,4.33-5a5,5,0,0,1,1.62.32,4.52,4.52,0,0,0,1.35.31q1.53,0,1.53-5V325.46q0-5.13-1.53-5.13a6.18,6.18,0,0,0-1.4.32,5.86,5.86,0,0,1-1.57.31c-2.88,0-4.33-1.65-4.33-4.95A6.49,6.49,0,0,1,579,311.6a4.94,4.94,0,0,1,3.92-1.71,21.2,21.2,0,0,1,3.06.45,12.17,12.17,0,0,0,2.34.27,31.35,31.35,0,0,0,3.69-.36q2.61-.36,2.88-.36Q597.36,309.89,597.36,312.41Z"/></svg>
